SplineFontDB: 3.2
FontName: BikeCatalogTight-Regular
FullName: Bike Catalog Tight
FamilyName: Bike Catalog Tight
Weight: Black
Copyright: Bike Catalog - revived from vintage Bike Nashbar/Bike Warehouse catalog letterforms.
UComments: "2026-6-22: Created with FontForge (http://fontforge.org)"
Version: 1.000
ItalicAngle: 0
UnderlinePosition: -100
UnderlineWidth: 50
Ascent: 800
Descent: 200
InvalidEm: 0
LayerCount: 2
Layer: 0 0 "Back" 1
Layer: 1 0 "Fore" 0
XUID: [1021 823 -1767544778 13436885]
StyleMap: 0x0000
FSType: 0
OS2Version: 0
OS2_WeightWidthSlopeOnly: 0
OS2_UseTypoMetrics: 1
CreationTime: 1782159570
ModificationTime: 1782159572
PfmFamily: 16
TTFWeight: 900
TTFWidth: 5
LineGap: 0
VLineGap: 90
Panose: 2 0 10 3 0 0 0 0 0 0
OS2TypoAscent: 800
OS2TypoAOffset: 1
OS2TypoDescent: -200
OS2TypoDOffset: 1
OS2TypoLinegap: 0
OS2WinAscent: 820
OS2WinAOffset: 1
OS2WinDescent: 240
OS2WinDOffset: 1
HheadAscent: 820
HheadAOffset: 1
HheadDescent: -240
HheadDOffset: 1
OS2SubXSize: 650
OS2SubYSize: 700
OS2SubXOff: 0
OS2SubYOff: 140
OS2SupXSize: 650
OS2SupYSize: 700
OS2SupXOff: 0
OS2SupYOff: 480
OS2StrikeYSize: 49
OS2StrikeYPos: 258
Lookup: 258 0 0 "'kern' Horizontal Kerning lookup 0" { "'kern' Horizontal Kerning lookup 0 subtable"  } ['kern' ('DFLT' <'dflt' > ) ]
DEI: 91125
Encoding: UnicodeFull
UnicodeInterp: none
NameList: AGL For New Fonts
DisplaySize: -48
AntiAlias: 1
FitToEm: 0
BeginChars: 1114112 71

StartChar: a
Encoding: 97 97 0
Width: 548
Flags: W
HStem: -4 175<215.43 309.94>
VStem: 14 180<192.286 299.314> 344 183<8 298.125>
LayerCount: 2
Fore
SplineSet
231 497 m 0
 245 499 294 499 306 497 c 0
 336 492 350 490 372 481 c 0
 413 465 450 436 476 402 c 0
 496 375 511 340 520 303 c 0
 526 276 527 268 527 133 c 2
 527 8 l 1
 503 7 l 2
 473 6 371 6 356 7 c 2
 344 8 l 1
 344 133 l 2
 344 269 344 262 336 278 c 0
 324 303 305 317 277 322 c 0
 268 324 265 324 256 322 c 0
 240 319 228 312 217 301 c 0
 201 285 194 268 194 245 c 0
 194 229 197 219 204 207 c 0
 212 193 228 180 243 174 c 0
 249 171 253 171 265 171 c 0
 282 171 290 173 302 180 c 0
 306 183 310 184 310 184 c 2
 311 183 311 4 310 3 c 0
 308 1 275 -4 260 -4 c 0
 246 -4 223 -1 208 2 c 0
 159 12 114 36 81 71 c 0
 69 84 53 106 48 115 c 0
 37 135 34 143 27 163 c 0
 18 190 14 214 14 244 c 0
 14 265 15 274 18 292 c 0
 27 343 50 388 84 423 c 0
 110 449 136 467 173 482 c 0
 188 488 208 494 231 497 c 0
EndSplineSet
EndChar

StartChar: b
Encoding: 98 98 1
Width: 565
Flags: W
HStem: 329 178<246.766 340.776> 675 20G<22 208>
VStem: 22 190<199.861 694.89>
LayerCount: 2
Fore
SplineSet
115 695 m 2
 166 695 208 695 208 695 c 0
 212 697 212 693 212 468 c 0
 212 222 212 239 219 222 c 0
 232 192 256 177 288 177 c 0
 306 177 317 181 333 192 c 0
 354 207 365 237 361 265 c 0
 359 278 355 287 348 298 c 0
 334 319 316 329 289 329 c 0
 277 329 274 329 265 325 c 0
 259 323 253 319 251 318 c 0
 249 317 247 316 247 316 c 0
 247 316 246 357 246 408 c 2
 246 501 l 1
 252 502 l 2
 268 506 278 507 304 507 c 0
 333 507 342 507 363 501 c 0
 420 486 466 455 502 407 c 0
 514 391 532 357 538 337 c 0
 542 325 544 312 546 302 c 0
 547 297 548 289 549 286 c 0
 550 283 550 269 550 256 c 0
 550 219 546 191 532 157 c 0
 527 146 525 141 515 123 c 0
 509 112 489 86 477 74 c 0
 437 34 389 10 329 -0 c 0
 313 -3 263 -2 246 1 c 0
 214 6 194 12 168 25 c 0
 116 50 76 90 50 143 c 0
 41 162 37 173 31 195 c 0
 22 231 22 232 22 477 c 2
 22 695 l 1
 115 695 l 2
EndSplineSet
EndChar

StartChar: c
Encoding: 99 99 2
Width: 526
Flags: W
HStem: 225 10<506.298 516> 245 10<192 202> 294 30<496 506> 324 176<212.297 304.75>
VStem: 16 176<206.511 303.489>
LayerCount: 2
Fore
SplineSet
202 495 m 0xd8
 202 500 202 500 261 500 c 0xd8
 320 500 320 500 320 495 c 0
 320 490 320 490 335 490 c 0
 350 490 349 490 349 485 c 0
 349 480 349 480 364 480 c 0
 379 480 379 480 379 475 c 0
 379 470 379 471 384 471 c 0
 389 471 389 471 389 466 c 0
 389 461 388 461 398 461 c 0
 408 461 408 461 408 456 c 0
 408 451 408 451 413 451 c 0
 418 451 418 451 418 446 c 0
 418 441 418 441 428 441 c 0
 438 441 438 441 438 436 c 0
 438 431 437 431 442 431 c 0
 447 431 447 432 447 422 c 0
 447 412 447 412 452 412 c 0
 457 412 457 412 457 407 c 0
 457 402 457 402 462 402 c 0
 467 402 467 402 467 397 c 0
 467 392 467 392 472 392 c 0
 477 392 477 392 477 382 c 0
 477 372 477 373 482 373 c 0
 487 373 487 373 487 363 c 0
 487 353 486 353 491 353 c 0
 496 353 496 353 496 338 c 0
 496 323 496 324 501 324 c 0
 506 324 506 324 506 309 c 0
 506 294 506 294 408 294 c 0xe8
 310 294 310 294 310 299 c 0
 310 304 310 304 305 304 c 0
 300 304 300 304 300 309 c 0
 300 314 300 314 295 314 c 0
 290 314 291 314 291 319 c 0
 291 324 291 324 266 324 c 0xd8
 241 324 241 324 241 319 c 0
 241 314 242 314 232 314 c 0
 222 314 222 314 222 309 c 0
 222 304 222 304 217 304 c 0
 212 304 212 304 212 299 c 0
 212 294 212 294 207 294 c 0xe8
 202 294 202 294 202 279 c 0
 202 264 202 265 197 265 c 0
 192 265 192 265 192 260 c 0
 192 255 192 255 197 255 c 0
 202 255 202 255 202 250 c 0
 202 245 202 245 197 245 c 0
 192 245 192 245 192 240 c 0
 192 235 192 235 197 235 c 0
 202 235 202 235 202 225 c 0
 202 215 202 216 207 216 c 0
 212 216 212 216 212 211 c 0
 212 206 212 206 217 206 c 0
 222 206 222 206 222 201 c 0
 222 196 222 196 227 196 c 0
 232 196 232 196 232 191 c 0
 232 186 231 186 241 186 c 0
 251 186 251 186 251 181 c 0
 251 176 251 176 266 176 c 0
 281 176 281 176 281 181 c 0
 281 186 281 186 291 186 c 0
 301 186 300 186 300 191 c 0
 300 196 300 196 305 196 c 0
 310 196 310 196 310 201 c 0
 310 206 310 206 315 206 c 0
 320 206 320 206 320 216 c 0
 320 226 320 225 325 225 c 0
 330 225 330 225 330 230 c 0
 330 235 330 235 423 235 c 0
 516 235 516 235 516 230 c 0
 516 225 516 225 511 225 c 0
 506 225 506 226 506 201 c 0
 506 176 506 176 501 176 c 0
 496 176 496 177 496 162 c 0
 496 147 496 147 491 147 c 0
 486 147 487 147 487 137 c 0
 487 127 487 127 482 127 c 0
 477 127 477 128 477 123 c 0
 477 118 477 118 472 118 c 0
 467 118 467 118 467 108 c 0
 467 98 467 98 462 98 c 0
 457 98 457 98 457 93 c 0
 457 88 457 88 452 88 c 0
 447 88 447 88 447 83 c 0
 447 78 447 78 442 78 c 0
 437 78 438 79 438 74 c 0
 438 69 438 69 433 69 c 0
 428 69 428 69 428 64 c 0
 428 59 428 59 423 59 c 0
 418 59 418 59 418 54 c 0
 418 49 418 49 413 49 c 0
 408 49 408 49 408 44 c 0
 408 39 408 39 398 39 c 0
 388 39 389 39 389 34 c 0
 389 29 389 29 384 29 c 0
 379 29 379 30 379 25 c 0
 379 20 379 20 364 20 c 0
 349 20 349 20 349 15 c 0
 349 10 350 10 330 10 c 0
 310 10 310 10 310 5 c 0
 310 0 310 0 266 0 c 0
 222 0 222 0 222 5 c 0
 222 10 222 10 202 10 c 0
 182 10 183 10 183 15 c 0
 183 20 183 20 168 20 c 0
 153 20 153 20 153 25 c 0
 153 30 153 29 143 29 c 0
 133 29 134 29 134 34 c 0
 134 39 134 39 129 39 c 0
 124 39 124 39 124 44 c 0
 124 49 124 49 114 49 c 0
 104 49 104 49 104 54 c 0
 104 59 104 59 99 59 c 0
 94 59 94 59 94 64 c 0
 94 69 95 69 90 69 c 0
 85 69 85 69 85 74 c 0
 85 79 85 78 80 78 c 0
 75 78 75 78 75 83 c 0
 75 88 75 88 70 88 c 0
 65 88 65 88 65 93 c 0
 65 98 65 98 60 98 c 0
 55 98 55 98 55 108 c 0
 55 118 55 118 50 118 c 0
 45 118 45 117 45 127 c 0
 45 137 46 137 41 137 c 0
 36 137 36 137 36 147 c 0
 36 157 36 157 31 157 c 0
 26 157 26 157 26 172 c 0
 26 187 26 186 21 186 c 0
 16 186 16 186 16 255 c 0
 16 324 16 324 21 324 c 0
 26 324 26 323 26 338 c 0
 26 353 26 353 31 353 c 0
 36 353 36 353 36 363 c 0
 36 373 36 373 41 373 c 0
 46 373 45 372 45 382 c 0
 45 392 45 392 50 392 c 0
 55 392 55 392 55 397 c 0
 55 402 55 402 60 402 c 0
 65 402 65 402 65 407 c 0
 65 412 65 412 70 412 c 0
 75 412 75 412 75 417 c 0
 75 422 75 422 80 422 c 0
 85 422 85 421 85 426 c 0
 85 431 85 431 90 431 c 0
 95 431 94 431 94 436 c 0
 94 441 94 441 99 441 c 0
 104 441 104 441 104 446 c 0
 104 451 104 451 109 451 c 0
 114 451 114 451 114 456 c 0
 114 461 114 461 124 461 c 0
 134 461 134 461 134 466 c 0
 134 471 134 471 139 471 c 0
 144 471 143 470 143 475 c 0
 143 480 143 480 158 480 c 0
 173 480 173 480 173 485 c 0
 173 490 173 490 188 490 c 0
 203 490 202 490 202 495 c 0xd8
EndSplineSet
EndChar

StartChar: d
Encoding: 100 100 3
Width: 538
Flags: W
HStem: 314 186<232 299.539> 675 20G<330 516>
VStem: 291 19<304.001 313.797> 320 186<186.869 557.75> 330 186<196.385 695>
LayerCount: 2
Fore
SplineSet
330 446 m 2xe8
 330 695 l 1
 423 695 l 1
 516 695 l 1
 516 451 l 2xe8
 516 235 516 235 511 235 c 0
 506 235 506 235 506 206 c 0xf0
 506 177 506 176 501 176 c 0
 496 176 496 177 496 162 c 0
 496 147 496 147 491 147 c 0
 486 147 487 147 487 137 c 0
 487 127 487 127 482 127 c 0
 477 127 477 128 477 118 c 0
 477 108 477 108 472 108 c 0
 467 108 467 108 467 103 c 0
 467 98 467 98 462 98 c 0
 457 98 457 98 457 88 c 0
 457 78 457 78 452 78 c 0
 447 78 447 79 447 74 c 0
 447 69 448 69 438 69 c 0
 428 69 428 69 428 64 c 0
 428 59 428 59 423 59 c 0
 418 59 418 59 418 54 c 0
 418 49 418 49 413 49 c 0
 408 49 408 49 408 44 c 0
 408 39 408 39 398 39 c 0
 388 39 389 39 389 34 c 0
 389 29 389 29 379 29 c 0
 369 29 369 30 369 25 c 0
 369 20 369 20 359 20 c 0
 349 20 349 20 349 15 c 0
 349 10 350 10 330 10 c 0xe8
 310 10 310 10 310 5 c 0
 310 0 310 0 266 0 c 0
 222 0 222 0 222 5 c 0
 222 10 222 10 202 10 c 0
 182 10 183 10 183 15 c 0
 183 20 183 20 168 20 c 0
 153 20 153 20 153 25 c 0
 153 30 153 29 143 29 c 0
 133 29 134 29 134 34 c 0
 134 39 134 39 129 39 c 0
 124 39 124 39 124 44 c 0
 124 49 124 49 114 49 c 0
 104 49 104 49 104 54 c 0
 104 59 104 59 99 59 c 0
 94 59 94 59 94 64 c 0
 94 69 95 69 90 69 c 0
 85 69 85 69 85 74 c 0
 85 79 85 78 80 78 c 0
 75 78 75 78 75 83 c 0
 75 88 75 88 70 88 c 0
 65 88 65 88 65 93 c 0
 65 98 65 98 60 98 c 0
 55 98 55 98 55 108 c 0
 55 118 55 118 50 118 c 0
 45 118 45 118 45 123 c 0
 45 128 46 127 41 127 c 0
 36 127 36 127 36 137 c 0
 36 147 36 147 31 147 c 0
 26 147 26 147 26 162 c 0
 26 177 26 176 21 176 c 0
 16 176 16 176 16 250 c 0
 16 324 16 324 21 324 c 0
 26 324 26 323 26 338 c 0
 26 353 26 353 31 353 c 0
 36 353 36 353 36 363 c 0
 36 373 36 373 41 373 c 0
 46 373 45 372 45 377 c 0
 45 382 45 382 50 382 c 0
 55 382 55 382 55 392 c 0
 55 402 55 402 60 402 c 0
 65 402 65 402 65 407 c 0
 65 412 65 412 70 412 c 0
 75 412 75 412 75 417 c 0
 75 422 75 422 80 422 c 0
 85 422 85 421 85 426 c 0
 85 431 85 431 90 431 c 0
 95 431 94 431 94 436 c 0
 94 441 94 441 99 441 c 0
 104 441 104 441 104 446 c 0
 104 451 104 451 109 451 c 0
 114 451 114 451 114 456 c 0
 114 461 114 461 124 461 c 0
 134 461 134 461 134 466 c 0
 134 471 134 471 139 471 c 0
 144 471 143 470 143 475 c 0
 143 480 143 480 158 480 c 0
 173 480 173 480 173 485 c 0
 173 490 173 490 188 490 c 0
 203 490 202 490 202 495 c 0
 202 500 202 500 256 500 c 2
 310 500 l 1
 310 402 l 2
 310 304 310 304 300 304 c 0
 290 304 291 304 291 309 c 0
 291 314 290 314 261 314 c 0
 232 314 232 314 232 309 c 0
 232 304 232 304 227 304 c 0
 222 304 222 304 222 299 c 0
 222 294 222 294 217 294 c 0
 212 294 212 294 212 289 c 0
 212 284 212 284 207 284 c 0
 202 284 202 285 202 275 c 0
 202 265 202 265 197 265 c 0
 192 265 192 265 192 250 c 0
 192 235 192 235 197 235 c 0
 202 235 202 235 202 225 c 0
 202 215 202 216 207 216 c 0
 212 216 212 216 212 211 c 0
 212 206 212 206 217 206 c 0
 222 206 222 206 222 201 c 0
 222 196 222 196 227 196 c 0
 232 196 232 196 232 191 c 0
 232 186 231 186 241 186 c 0
 251 186 251 186 251 181 c 0
 251 176 251 176 261 176 c 0
 271 176 271 176 271 181 c 0
 271 186 271 186 286 186 c 0
 301 186 300 186 300 191 c 0
 300 196 300 196 305 196 c 0
 310 196 310 196 310 201 c 0
 310 206 310 206 315 206 c 0
 320 206 320 206 320 216 c 0xf0
 320 226 320 225 325 225 c 0
 330 225 330 225 330 446 c 2xe8
EndSplineSet
EndChar

StartChar: e
Encoding: 101 101 4
Width: 544
Flags: W
LayerCount: 2
Fore
SplineSet
259 509 m 0
 288 511 333 507 355 500 c 0
 406 484 436 467 470 435 c 2
 483 422 l 1
 470 405 l 2
 463 396 451 382 444 374 c 0
 437 366 424 348 414 336 c 0
 404 324 390 307 383 298 c 0
 369 281 333 237 315 215 c 0
 308 207 302 200 301 200 c 0
 299 200 228 256 228 258 c 0
 228 259 245 281 286 332 c 0
 293 340 299 347 299 348 c 0
 299 349 298 350 295 351 c 0
 271 361 240 357 219 341 c 0
 192 320 177 281 183 247 c 0
 191 199 220 167 263 158 c 0
 281 154 309 156 325 162 c 0
 348 171 367 188 377 210 c 0
 380 216 382 221 382 222 c 0
 382 227 383 227 458 227 c 0
 524 227 530 227 531 225 c 0
 533 219 522 167 515 150 c 0
 514 149 513 145 512 142 c 0
 499 112 485 91 462 68 c 0
 427 33 383 11 325 1 c 0
 309 -2 253 -3 237 -0 c 0
 209 5 187 11 171 18 c 0
 161 23 143 31 138 34 c 0
 105 53 71 88 52 120 c 0
 46 131 34 155 34 158 c 0
 34 159 34 160 33 161 c 0
 31 163 26 182 23 196 c 0
 16 228 15 266 20 296 c 0
 24 316 25 320 31 338 c 0
 63 435 151 502 259 509 c 0
EndSplineSet
EndChar

StartChar: f
Encoding: 102 102 5
Width: 307
Flags: W
HStem: 675 20G<243 295>
VStem: 30 265<196 381.999> 30 186<10 196 382.283 470.703>
LayerCount: 2
Fore
SplineSet
226 690 m 0xc0
 226 695 226 695 260 695 c 2
 295 695 l 1
 295 592 l 2xc0
 295 490 295 490 280 490 c 0
 265 490 265 490 265 485 c 0
 265 480 265 480 255 480 c 0
 245 480 246 480 246 475 c 0
 246 470 246 471 241 471 c 0
 236 471 236 471 236 466 c 0
 236 461 236 461 231 461 c 0
 226 461 226 461 226 451 c 0
 226 441 226 441 221 441 c 0
 216 441 216 441 216 412 c 0xa0
 216 383 216 382 255 382 c 2
 295 382 l 1
 295 289 l 1
 295 196 l 1xc0
 255 196 l 1
 216 196 l 1
 216 103 l 1
 216 10 l 1
 123 10 l 1
 30 10 l 1xa0
 30 235 l 2
 30 460 30 461 35 461 c 0
 40 461 40 460 40 485 c 0
 40 511 40 511 45 511 c 0
 50 511 50 511 50 527 c 0
 50 543 50 543 55 543 c 0
 60 543 59 544 59 549 c 0
 59 554 59 554 64 554 c 0
 69 554 69 554 69 565 c 0
 69 576 69 576 74 576 c 0
 79 576 79 576 79 581 c 0
 79 586 79 587 84 587 c 0
 89 587 89 587 89 598 c 0
 89 609 89 608 94 608 c 0
 99 608 99 609 99 614 c 0
 99 619 99 619 104 619 c 0
 109 619 108 620 108 625 c 0
 108 630 108 630 118 630 c 0
 128 630 128 630 128 635 c 0
 128 640 128 641 133 641 c 0
 138 641 138 641 138 646 c 0
 138 651 138 652 148 652 c 0
 158 652 157 652 157 657 c 0
 157 662 157 662 162 662 c 0
 167 662 167 663 167 668 c 0
 167 673 167 673 182 673 c 0
 197 673 197 674 197 679 c 0
 197 684 196 684 211 684 c 0
 226 684 226 685 226 690 c 0xc0
EndSplineSet
EndChar

StartChar: g
Encoding: 103 103 6
Width: 519
Flags: W
HStem: -210 160<148.083 279.898> 196 10<290.47 299> 333 167<211.453 298.733>
VStem: 15 176<216.671 312.982> 142 20<-39.9861 -30> 319 176<-9.79377 312.953>
LayerCount: 2
Fore
SplineSet
201 495 m 0xec
 201 500 201 500 260 500 c 0
 319 500 319 500 319 495 c 0
 319 490 319 490 339 490 c 0
 359 490 358 490 358 485 c 0
 358 480 358 480 368 480 c 0
 378 480 378 480 378 475 c 0
 378 470 378 471 388 471 c 0
 398 471 397 471 397 466 c 0
 397 461 397 461 407 461 c 0
 417 461 417 461 417 456 c 0
 417 451 417 451 422 451 c 0
 427 451 427 451 427 446 c 0
 427 441 427 441 432 441 c 0
 437 441 437 441 437 436 c 0
 437 431 436 431 441 431 c 0
 446 431 446 431 446 426 c 0
 446 421 446 422 451 422 c 0
 456 422 456 422 456 412 c 0
 456 402 456 402 461 402 c 0
 466 402 466 402 466 392 c 0
 466 382 466 382 471 382 c 0
 476 382 476 383 476 373 c 0
 476 363 476 363 481 363 c 0
 486 363 486 363 486 348 c 0
 486 333 485 333 490 333 c 0
 495 333 495 334 495 162 c 0
 495 -10 495 -10 490 -10 c 0
 485 -10 486 -10 486 -25 c 0
 486 -40 486 -40 481 -40 c 0
 476 -40 476 -40 476 -55 c 0
 476 -70 476 -70 471 -70 c 0
 466 -70 466 -70 466 -80 c 0
 466 -90 466 -90 461 -90 c 0
 456 -90 456 -90 456 -95 c 0
 456 -100 456 -100 451 -100 c 0
 446 -100 446 -100 446 -110 c 0
 446 -120 446 -120 441 -120 c 0
 436 -120 437 -120 437 -125 c 0
 437 -130 437 -130 432 -130 c 0
 427 -130 427 -130 427 -135 c 0
 427 -140 427 -140 422 -140 c 0
 417 -140 417 -140 417 -145 c 0
 417 -150 417 -150 412 -150 c 0
 407 -150 407 -150 407 -155 c 0
 407 -160 407 -160 402 -160 c 0
 397 -160 397 -160 397 -165 c 0
 397 -170 398 -170 388 -170 c 0
 378 -170 378 -170 378 -175 c 0
 378 -180 378 -180 373 -180 c 0
 368 -180 368 -180 368 -185 c 0
 368 -190 368 -190 353 -190 c 0
 338 -190 339 -190 339 -195 c 0
 339 -200 339 -200 324 -200 c 0
 309 -200 309 -200 309 -205 c 0
 309 -210 309 -210 240 -210 c 0
 171 -210 172 -210 172 -205 c 0
 172 -200 172 -200 157 -200 c 0
 142 -200 142 -200 142 -115 c 0
 142 -30 142 -30 152 -30 c 0
 162 -30 162 -30 162 -35 c 0xec
 162 -40 162 -40 177 -40 c 0
 192 -40 191 -40 191 -45 c 0
 191 -50 191 -50 216 -50 c 0
 241 -50 240 -50 240 -45 c 0
 240 -40 240 -40 255 -40 c 0
 270 -40 270 -40 270 -35 c 0
 270 -30 270 -30 275 -30 c 0
 280 -30 280 -30 280 -25 c 0
 280 -20 280 -20 285 -20 c 0
 290 -20 290 -20 290 -15 c 0
 290 -10 289 -10 294 -10 c 0
 299 -10 299 -10 299 0 c 0
 299 10 299 10 304 10 c 0
 309 10 309 10 309 20 c 0
 309 30 309 29 314 29 c 0
 319 29 319 30 319 157 c 0
 319 284 319 284 314 284 c 0
 309 284 309 284 309 294 c 0
 309 304 309 304 304 304 c 0
 299 304 299 304 299 309 c 0
 299 314 299 314 294 314 c 0
 289 314 290 314 290 319 c 0
 290 324 290 324 280 324 c 0
 270 324 270 323 270 328 c 0
 270 333 270 333 260 333 c 0
 250 333 250 333 250 328 c 0
 250 323 250 324 240 324 c 0
 230 324 231 324 231 319 c 0
 231 314 231 314 221 314 c 0
 211 314 211 314 211 304 c 0
 211 294 211 294 206 294 c 0
 201 294 201 295 201 275 c 0
 201 255 201 255 196 255 c 0
 191 255 191 255 191 250 c 0xf4
 191 245 191 245 196 245 c 0
 201 245 201 245 201 235 c 0
 201 225 201 225 206 225 c 0
 211 225 211 226 211 221 c 0
 211 216 211 216 221 216 c 0
 231 216 231 216 231 211 c 0
 231 206 231 206 265 206 c 0
 299 206 299 206 299 201 c 0
 299 196 299 196 294 196 c 0
 289 196 290 196 290 118 c 0
 290 40 290 39 275 39 c 0
 260 39 260 39 260 34 c 0
 260 29 260 29 216 29 c 0
 172 29 172 29 172 34 c 0
 172 39 172 39 157 39 c 0
 142 39 142 39 142 44 c 0xec
 142 49 143 49 133 49 c 0
 123 49 123 49 123 54 c 0
 123 59 123 59 113 59 c 0
 103 59 103 59 103 64 c 0
 103 69 103 69 98 69 c 0
 93 69 93 69 93 74 c 0
 93 79 94 78 89 78 c 0
 84 78 84 78 84 83 c 0
 84 88 84 88 79 88 c 0
 74 88 74 88 74 93 c 0
 74 98 74 98 69 98 c 0
 64 98 64 98 64 103 c 0
 64 108 64 108 59 108 c 0
 54 108 54 108 54 113 c 0
 54 118 54 118 49 118 c 0
 44 118 44 117 44 127 c 0
 44 137 45 137 40 137 c 0
 35 137 35 137 35 147 c 0
 35 157 35 157 30 157 c 0
 25 157 25 157 25 172 c 0
 25 187 25 186 20 186 c 0
 15 186 15 186 15 255 c 0xf4
 15 324 15 324 20 324 c 0
 25 324 25 323 25 338 c 0
 25 353 25 353 30 353 c 0
 35 353 35 353 35 363 c 0
 35 373 35 373 40 373 c 0
 45 373 44 372 44 382 c 0
 44 392 44 392 49 392 c 0
 54 392 54 392 54 397 c 0
 54 402 54 402 59 402 c 0
 64 402 64 402 64 412 c 0
 64 422 64 422 69 422 c 0
 74 422 74 421 74 426 c 0
 74 431 74 431 79 431 c 0
 84 431 84 431 84 436 c 0
 84 441 83 441 93 441 c 0
 103 441 103 441 103 446 c 0
 103 451 103 451 108 451 c 0
 113 451 113 451 113 456 c 0
 113 461 113 461 118 461 c 0
 123 461 123 461 123 466 c 0
 123 471 123 471 133 471 c 0
 143 471 142 470 142 475 c 0
 142 480 142 480 152 480 c 0
 162 480 162 480 162 485 c 0
 162 490 162 490 182 490 c 0
 202 490 201 490 201 495 c 0xec
EndSplineSet
EndChar

StartChar: h
Encoding: 104 104 7
Width: 501
Flags: W
VStem: 31 185<7.125 302.903 449 632.574> 288 186<8 288.717>
LayerCount: 2
Fore
SplineSet
33 694 m 0
 35 695 213 695 215 694 c 0
 216 694 216 673 216 505 c 0
 216 475 216 450 216 449 c 0
 217 449 218 449 219 450 c 0
 221 453 235 465 242 469 c 0
 272 489 313 498 349 492 c 0
 375 488 390 481 410 468 c 0
 436 451 457 418 466 380 c 0
 473 348 474 336 474 162 c 0
 474 42 473 9 472 8 c 0
 471 7 436 7 379 7 c 2
 289 7 l 1
 288 145 l 2
 287 275 287 283 285 289 c 0
 280 301 272 309 259 312 c 0
 249 314 236 311 227 303 c 0
 224 301 221 294 218 287 c 0
 217 284 217 241 216 145 c 2
 215 7 l 1
 124 7 l 2
 55 7 33 7 32 8 c 0
 30 9 30 44 31 285 c 0
 31 451 32 694 33 694 c 0
EndSplineSet
EndChar

StartChar: i
Encoding: 105 105 8
Width: 272
Flags: W
HStem: 475 20G<36 226> 519 186<81.0022 197.536>
VStem: 36 190<10 495>
LayerCount: 2
Fore
SplineSet
36 253 m 1
 36 495 l 1
 131 495 l 1
 226 495 l 1
 226 253 l 1
 226 10 l 1
 131 10 l 1
 36 10 l 1
 36 253 l 1
119 705 m 0
 127 706 148 705 155 703 c 0
 173 699 186 693 199 682 c 0
 233 653 243 603 220 565 c 0
 214 555 200 541 190 535 c 0
 171 524 153 519 131 519 c 0
 112 519 102 521 87 527 c 0
 84 528 81 530 81 530 c 0
 79 530 62 542 57 547 c 0
 49 555 40 570 36 579 c 0
 31 592 30 597 30 613 c 0
 30 626 30 630 33 638 c 0
 40 661 59 683 81 694 c 0
 91 699 109 704 119 705 c 0
EndSplineSet
EndChar

StartChar: j
Encoding: 106 106 9
Width: 419
Flags: W
HStem: -210 170<37.3134 172.266> 470 20G<212 389> 546 130<221.975 294.43 297.569 378.797> 556 111<212.131 260.539 330.461 379> 584 46<378.936 389> 593 37<202 212.007>
VStem: 26 39<-39.9477 -30.0002> 202 187<-9.53674 395.938 556.012 666.823> 212 177<0.0761604 490 556.012 610.124 611.877 666.906> 212 167<546.094 605.939 608.061 610.124 611.877 675.988> 222 147<537.232 605.939 608.061 610.124 611.877 676.001> 232 127<536.993 583.621 630.275 685.797> 271 49<676.375 694.999>
LayerCount: 2
Fore
SplineSet
271 690 m 0xe208
 271 695 271 695 296 695 c 0
 321 695 320 695 320 690 c 0xe208
 320 685 320 686 330 686 c 0
 340 686 340 686 340 681 c 0
 340 676 340 676 350 676 c 0
 360 676 359 677 359 672 c 0xe210
 359 667 359 667 364 667 c 0
 369 667 369 667 369 662 c 0xd220
 369 657 369 658 374 658 c 0
 379 658 379 658 379 644 c 0xd240
 379 630 379 630 384 630 c 0
 389 630 389 630 389 607 c 0xcb
 389 584 389 584 384 584 c 0
 379 584 379 583 379 574 c 0xca40
 379 565 379 565 374 565 c 0
 369 565 369 565 369 560 c 0
 369 555 369 556 364 556 c 0xd220
 359 556 359 556 359 551 c 0
 359 546 359 546 354 546 c 0
 349 546 350 547 350 542 c 0
 350 537 350 537 340 537 c 0
 330 537 330 537 330 532 c 0
 330 527 330 528 296 528 c 0
 262 528 261 527 261 532 c 0
 261 537 261 537 251 537 c 0
 241 537 242 537 242 542 c 0
 242 547 242 546 237 546 c 0
 232 546 232 546 232 551 c 0xe210
 232 556 232 556 227 556 c 0
 222 556 222 555 222 560 c 0xd220
 222 565 222 565 217 565 c 0
 212 565 212 565 212 579 c 0xd280
 212 593 212 593 207 593 c 0
 202 593 202 592 202 611 c 0xc7
 202 630 202 630 207 630 c 0
 212 630 212 630 212 639 c 0xc680
 212 648 212 649 217 649 c 0
 222 649 222 649 222 658 c 0xc620
 222 667 222 667 227 667 c 0
 232 667 232 667 232 672 c 0xd210
 232 677 232 676 242 676 c 0
 252 676 251 676 251 681 c 0
 251 686 251 686 261 686 c 0
 271 686 271 685 271 690 c 0xe208
212 275 m 2xc280
 212 490 l 1
 301 490 l 1
 389 490 l 1xc280
 389 245 l 2xc3
 389 0 389 0 384 0 c 0
 379 0 379 0 379 -20 c 0xc240
 379 -40 379 -40 374 -40 c 0
 369 -40 369 -40 369 -50 c 0xc220
 369 -60 369 -60 364 -60 c 0
 359 -60 359 -60 359 -75 c 0xc210
 359 -90 359 -90 354 -90 c 0
 349 -90 350 -90 350 -95 c 0
 350 -100 350 -100 345 -100 c 0
 340 -100 340 -100 340 -110 c 0
 340 -120 340 -120 335 -120 c 0
 330 -120 330 -120 330 -125 c 0
 330 -130 330 -130 325 -130 c 0
 320 -130 320 -130 320 -135 c 0
 320 -140 320 -140 315 -140 c 0
 310 -140 310 -140 310 -145 c 0
 310 -150 310 -150 305 -150 c 0
 300 -150 301 -150 301 -155 c 0
 301 -160 301 -160 291 -160 c 0
 281 -160 281 -160 281 -165 c 0
 281 -170 281 -170 276 -170 c 0
 271 -170 271 -170 271 -175 c 0xc208
 271 -180 271 -180 261 -180 c 0
 251 -180 251 -180 251 -185 c 0
 251 -190 252 -190 242 -190 c 0
 232 -190 232 -190 232 -195 c 0xc210
 232 -200 232 -200 217 -200 c 0
 202 -200 202 -200 202 -205 c 0
 202 -210 203 -210 129 -210 c 0
 55 -210 55 -210 55 -205 c 0
 55 -200 56 -200 41 -200 c 0
 26 -200 26 -200 26 -115 c 0
 26 -30 26 -30 46 -30 c 0
 66 -30 65 -30 65 -35 c 0
 65 -40 65 -40 104 -40 c 0
 143 -40 144 -40 144 -35 c 0
 144 -30 143 -30 153 -30 c 0
 163 -30 163 -30 163 -25 c 0
 163 -20 163 -20 168 -20 c 0
 173 -20 173 -20 173 -15 c 0
 173 -10 173 -10 178 -10 c 0
 183 -10 183 -10 183 -5 c 0
 183 0 183 0 188 0 c 0
 193 0 193 0 193 15 c 0
 193 30 193 29 198 29 c 0
 203 29 202 29 202 44 c 0xc3
 202 59 202 59 207 59 c 0
 212 59 212 59 212 275 c 2xc280
EndSplineSet
EndChar

StartChar: k
Encoding: 107 107 10
Width: 508
Flags: W
HStem: 478 20G<302 425.5> 675 20G<26 217>
VStem: 26 191<10 228 378.002 695> 299 187<10.178 150.28>
LayerCount: 2
Fore
SplineSet
26 352 m 1
 26 695 l 1
 121 695 l 1
 217 695 l 1
 217 536 l 2
 217 380 216 378 219 378 c 0
 220 378 225 379 228 381 c 0
 231 383 236 385 238 386 c 0
 244 389 260 405 266 414 c 0
 277 429 293 465 300 491 c 2
 302 497 l 1
 399 498 l 2
 452 498 496 497 497 497 c 0
 498 496 498 496 497 494 c 0
 496 493 494 487 492 482 c 0
 489 473 485 464 483 458 c 0
 482 457 482 452 480 448 c 0
 478 444 476 439 475 437 c 0
 474 435 474 433 473 431 c 0
 471 426 464 410 458 397 c 0
 454 389 438 360 433 352 c 0
 423 337 413 326 402 314 c 0
 396 307 391 301 391 301 c 0
 391 301 394 297 399 292 c 0
 410 280 416 273 424 261 c 0
 439 236 454 200 463 166 c 0
 464 163 464 159 465 157 c 0
 466 155 467 150 468 146 c 0
 469 142 470 137 471 135 c 0
 474 124 478 100 481 76 c 0
 484 54 487 13 486 11 c 0
 486 10 444 10 393 10 c 2
 299 10 l 1
 299 19 l 2
 299 24 297 33 297 39 c 0
 294 82 282 143 270 171 c 0
 259 195 250 207 233 220 c 0
 228 224 219 228 217 228 c 0
 217 228 217 179 217 119 c 2
 217 10 l 1
 121 10 l 1
 26 10 l 1
 26 352 l 1
EndSplineSet
EndChar

StartChar: l
Encoding: 108 108 11
Width: 246
Flags: W
HStem: 675 20G<30 216>
VStem: 30 186<10 695>
LayerCount: 2
Fore
SplineSet
30 338 m 1
 30 695 l 1
 123 695 l 1
 216 695 l 1
 216 338 l 1
 216 10 l 1
 123 10 l 1
 30 10 l 1
 30 338 l 1
EndSplineSet
EndChar

StartChar: m
Encoding: 109 109 12
Width: 708
Flags: W
HStem: 10 470<94.0254 208.739 270.049 338.949 378.051 446.908 505.908 622.975> 324 176<186.5 259.976 448.393 502.394>
VStem: 25 186<10 322.125> 250 216<12.2969 324> 270 177<10 323.768> 505 177<10 322.513>
LayerCount: 2
Fore
SplineSet
162 495 m 0xb4
 162 500 162 500 211 500 c 0x74
 260 500 260 500 260 495 c 0
 260 490 260 490 275 490 c 0
 290 490 290 490 290 485 c 0
 290 480 290 480 300 480 c 0
 310 480 309 480 309 475 c 0
 309 470 309 471 314 471 c 0
 319 471 319 471 319 466 c 0
 319 461 319 461 329 461 c 0
 339 461 339 461 339 456 c 0
 339 451 339 451 344 451 c 0
 349 451 349 451 349 446 c 0
 349 441 348 441 358 441 c 0
 368 441 368 441 368 446 c 0
 368 451 368 451 373 451 c 0
 378 451 378 451 378 456 c 0
 378 461 378 461 388 461 c 0
 398 461 398 461 398 466 c 0
 398 471 397 471 402 471 c 0
 407 471 407 470 407 475 c 0
 407 480 407 480 417 480 c 0xb4
 427 480 427 480 427 485 c 0
 427 490 427 490 442 490 c 0
 457 490 456 490 456 495 c 0
 456 500 456 500 500 500 c 0x74
 544 500 545 500 545 495 c 0
 545 490 544 490 559 490 c 0
 574 490 574 490 574 485 c 0
 574 480 574 480 584 480 c 0
 594 480 594 480 594 475 c 0
 594 470 593 471 603 471 c 0
 613 471 613 471 613 466 c 0
 613 461 613 461 618 461 c 0
 623 461 623 461 623 456 c 0
 623 451 623 451 628 451 c 0
 633 451 633 451 633 446 c 0
 633 441 633 441 638 441 c 0
 643 441 643 441 643 436 c 0
 643 431 643 431 648 431 c 0
 653 431 652 432 652 422 c 0
 652 412 652 412 657 412 c 0
 662 412 662 412 662 402 c 0
 662 392 662 392 667 392 c 0
 672 392 672 392 672 377 c 0
 672 362 672 363 677 363 c 0
 682 363 682 362 682 186 c 2
 682 10 l 1
 594 10 l 1
 505 10 l 1xb4
 505 157 l 2
 505 304 505 304 500 304 c 0
 495 304 496 304 496 309 c 0
 496 314 496 314 491 314 c 0
 486 314 486 314 486 319 c 0
 486 324 486 324 476 324 c 0
 466 324 466 324 466 319 c 0x74
 466 314 466 314 461 314 c 0
 456 314 456 314 456 309 c 0
 456 304 456 304 451 304 c 0
 446 304 447 304 447 157 c 2
 447 10 l 1
 358 10 l 1
 270 10 l 1
 270 142 l 2xac
 270 274 270 275 265 275 c 0
 260 275 260 274 260 294 c 0
 260 314 260 314 255 314 c 0
 250 314 250 314 250 319 c 0
 250 324 251 324 241 324 c 0x74
 231 324 231 324 231 319 c 0
 231 314 231 314 226 314 c 0
 221 314 221 314 221 309 c 0
 221 304 221 304 216 304 c 0
 211 304 211 304 211 157 c 2
 211 10 l 1
 118 10 l 1
 25 10 l 1
 25 176 l 2
 25 343 25 343 30 343 c 0
 35 343 35 343 35 363 c 0
 35 383 35 382 40 382 c 0
 45 382 45 382 45 392 c 0
 45 402 45 402 50 402 c 0
 55 402 54 402 54 412 c 0
 54 422 54 422 59 422 c 0
 64 422 64 421 64 426 c 0
 64 431 64 431 69 431 c 0
 74 431 74 431 74 436 c 0
 74 441 74 441 79 441 c 0
 84 441 84 441 84 446 c 0
 84 451 84 451 89 451 c 0
 94 451 94 451 94 456 c 0
 94 461 94 461 99 461 c 0
 104 461 103 461 103 466 c 0
 103 471 103 471 113 471 c 0
 123 471 123 470 123 475 c 0
 123 480 123 480 128 480 c 0
 133 480 133 480 133 485 c 0
 133 490 133 490 148 490 c 0
 163 490 162 490 162 495 c 0xb4
EndSplineSet
EndChar

StartChar: n
Encoding: 110 110 13
Width: 510
Flags: W
VStem: 24 189<8 310.76> 295 191<7 317.205>
LayerCount: 2
Fore
SplineSet
217 500 m 0
 227 502 281 502 293 500 c 0
 303 499 314 497 327 494 c 0
 350 489 382 474 402 460 c 0
 408 456 418 446 425 439 c 0
 445 419 456 402 469 370 c 0
 471 365 478 343 479 336 c 0
 485 307 486 290 486 143 c 0
 486 16 486 8 484 7 c 0
 483 7 440 7 389 7 c 2
 296 7 l 1
 295 146 l 2
 295 237 294 288 293 291 c 0
 289 308 279 318 264 322 c 0
 251 325 236 321 227 311 c 0
 222 306 216 293 215 284 c 0
 214 280 214 216 214 143 c 0
 214 38 214 9 213 8 c 0
 212 7 169 7 117 7 c 2
 24 7 l 1
 24 156 l 2
 24 310 24 309 29 336 c 0
 32 353 42 379 50 393 c 0
 64 419 90 447 112 462 c 0
 128 472 148 483 164 488 c 0
 180 493 192 496 217 500 c 0
EndSplineSet
EndChar

StartChar: o
Encoding: 111 111 14
Width: 537
Flags: W
HStem: 0 176<220.325 317.548> 10 186<209.999 267.2 270.8 328.001> 324 176<220.297 317.703>
VStem: 14 186<196.394 303.722> 24 196<186.611 248.846 251.154 253.2 256.8 314.007> 328 186<195.999 248.846 251.154 253.661 256.338 313.389> 338 186<196.857 303.746>
LayerCount: 2
Fore
SplineSet
210 495 m 0x68
 210 500 210 500 269 500 c 0
 328 500 328 500 328 495 c 0
 328 490 327 490 347 490 c 0
 367 490 367 490 367 485 c 0
 367 480 367 480 377 480 c 0
 387 480 387 480 387 475 c 0
 387 470 386 471 396 471 c 0
 406 471 406 471 406 466 c 0
 406 461 406 461 411 461 c 0
 416 461 416 461 416 456 c 0
 416 451 416 451 421 451 c 0
 426 451 426 451 426 446 c 0
 426 441 426 441 436 441 c 0
 446 441 445 441 445 436 c 0
 445 431 445 431 450 431 c 0
 455 431 455 431 455 426 c 0
 455 421 455 422 460 422 c 0
 465 422 465 422 465 412 c 0
 465 402 465 402 470 402 c 0
 475 402 475 402 475 397 c 0
 475 392 475 392 480 392 c 0
 485 392 485 392 485 382 c 0
 485 372 484 373 489 373 c 0
 494 373 494 373 494 363 c 0
 494 353 494 353 499 353 c 0
 504 353 504 353 504 343 c 0
 504 333 504 333 509 333 c 0
 514 333 514 334 514 309 c 0x6c
 514 284 514 284 519 284 c 0
 524 284 524 284 524 255 c 0x62
 524 226 524 225 519 225 c 0
 514 225 514 225 514 196 c 0
 514 167 514 167 509 167 c 0
 504 167 504 167 504 157 c 0
 504 147 504 147 499 147 c 0
 494 147 494 147 494 137 c 0
 494 127 494 127 489 127 c 0
 484 127 485 128 485 118 c 0
 485 108 485 108 480 108 c 0
 475 108 475 108 475 103 c 0
 475 98 475 98 470 98 c 0
 465 98 465 98 465 93 c 0
 465 88 465 88 460 88 c 0
 455 88 455 88 455 83 c 0
 455 78 455 78 450 78 c 0
 445 78 445 79 445 74 c 0
 445 69 445 69 440 69 c 0
 435 69 436 69 436 64 c 0
 436 59 436 59 431 59 c 0
 426 59 426 59 426 54 c 0
 426 49 426 49 421 49 c 0
 416 49 416 49 416 44 c 0
 416 39 416 39 406 39 c 0
 396 39 396 39 396 34 c 0
 396 29 397 29 387 29 c 0
 377 29 377 30 377 25 c 0
 377 20 377 20 367 20 c 0
 357 20 357 20 357 15 c 0
 357 10 358 10 333 10 c 0x64
 308 10 308 10 308 5 c 0
 308 0 308 0 269 0 c 0xa4
 230 0 230 0 230 5 c 0
 230 10 230 10 210 10 c 0
 190 10 190 10 190 15 c 0
 190 20 191 20 176 20 c 0
 161 20 161 20 161 25 c 0
 161 30 161 29 151 29 c 0
 141 29 141 29 141 34 c 0
 141 39 142 39 132 39 c 0
 122 39 122 39 122 44 c 0
 122 49 122 49 117 49 c 0
 112 49 112 49 112 54 c 0
 112 59 112 59 107 59 c 0
 102 59 102 59 102 64 c 0
 102 69 102 69 97 69 c 0
 92 69 92 69 92 74 c 0
 92 79 93 78 88 78 c 0
 83 78 83 78 83 83 c 0
 83 88 83 88 78 88 c 0
 73 88 73 88 73 93 c 0
 73 98 73 98 68 98 c 0
 63 98 63 98 63 103 c 0
 63 108 63 108 58 108 c 0
 53 108 53 108 53 118 c 0
 53 128 53 127 48 127 c 0
 43 127 43 127 43 137 c 0
 43 147 44 147 39 147 c 0
 34 147 34 147 34 157 c 0
 34 167 34 167 29 167 c 0
 24 167 24 166 24 191 c 0x6c
 24 216 24 216 19 216 c 0
 14 216 14 216 14 255 c 0x70
 14 294 14 294 19 294 c 0
 24 294 24 294 24 314 c 0
 24 334 24 333 29 333 c 0
 34 333 34 333 34 348 c 0
 34 363 34 363 39 363 c 0
 44 363 43 363 43 368 c 0
 43 373 43 373 48 373 c 0
 53 373 53 372 53 382 c 0
 53 392 53 392 58 392 c 0
 63 392 63 392 63 397 c 0
 63 402 63 402 68 402 c 0
 73 402 73 402 73 412 c 0
 73 422 73 422 78 422 c 0
 83 422 83 421 83 426 c 0
 83 431 83 431 88 431 c 0
 93 431 92 431 92 436 c 0
 92 441 92 441 102 441 c 0
 112 441 112 441 112 446 c 0
 112 451 112 451 117 451 c 0
 122 451 122 451 122 456 c 0
 122 461 122 461 127 461 c 0
 132 461 132 461 132 466 c 0
 132 471 131 471 141 471 c 0
 151 471 151 470 151 475 c 0
 151 480 151 480 166 480 c 0
 181 480 181 480 181 485 c 0
 181 490 180 490 195 490 c 0
 210 490 210 490 210 495 c 0x68
289 319 m 0
 289 324 289 324 269 324 c 0
 249 324 249 324 249 319 c 0
 249 314 249 314 239 314 c 0
 229 314 230 314 230 309 c 0
 230 304 230 304 225 304 c 0
 220 304 220 304 220 299 c 0x6c
 220 294 220 294 215 294 c 0
 210 294 210 294 210 284 c 0
 210 274 210 275 205 275 c 0
 200 275 200 275 200 250 c 0x70
 200 225 200 225 205 225 c 0
 210 225 210 226 210 216 c 0
 210 206 210 206 215 206 c 0
 220 206 220 206 220 201 c 0
 220 196 220 196 230 196 c 0x68
 240 196 239 196 239 191 c 0
 239 186 239 186 249 186 c 0
 259 186 259 186 259 181 c 0
 259 176 259 176 269 176 c 0xa8
 279 176 279 176 279 181 c 0
 279 186 279 186 289 186 c 0
 299 186 298 186 298 191 c 0
 298 196 298 196 308 196 c 0
 318 196 318 196 318 201 c 0
 318 206 318 206 323 206 c 0
 328 206 328 206 328 216 c 0x6c
 328 226 328 225 333 225 c 0
 338 225 338 225 338 250 c 0x62
 338 275 338 275 333 275 c 0
 328 275 328 274 328 284 c 0
 328 294 328 294 323 294 c 0
 318 294 318 294 318 299 c 0
 318 304 318 304 313 304 c 0
 308 304 308 304 308 309 c 0
 308 314 308 314 298 314 c 0
 288 314 289 314 289 319 c 0
EndSplineSet
EndChar

StartChar: p
Encoding: 112 112 15
Width: 536
Flags: W
HStem: 0 186<232.231 324.904> 324 176<227.264 324.203>
VStem: 21 186<-210 303.586> 31 186<-41.875 313.389> 345 176<206.511 303.161>
LayerCount: 2
Fore
SplineSet
217 495 m 0xd8
 217 500 217 500 271 500 c 0
 325 500 325 500 325 495 c 0
 325 490 325 490 345 490 c 0
 365 490 364 490 364 485 c 0
 364 480 364 480 374 480 c 0
 384 480 384 480 384 475 c 0
 384 470 384 471 394 471 c 0
 404 471 403 471 403 466 c 0
 403 461 403 461 413 461 c 0
 423 461 423 461 423 456 c 0
 423 451 423 451 428 451 c 0
 433 451 433 451 433 446 c 0
 433 441 433 441 438 441 c 0
 443 441 443 441 443 436 c 0
 443 431 442 431 447 431 c 0
 452 431 452 431 452 426 c 0
 452 421 452 422 457 422 c 0
 462 422 462 422 462 417 c 0
 462 412 462 412 467 412 c 0
 472 412 472 412 472 407 c 0
 472 402 472 402 477 402 c 0
 482 402 482 402 482 392 c 0
 482 382 482 382 487 382 c 0
 492 382 492 382 492 377 c 0
 492 372 491 373 496 373 c 0
 501 373 501 373 501 363 c 0
 501 353 501 353 506 353 c 0
 511 353 511 353 511 338 c 0
 511 323 511 324 516 324 c 0
 521 324 521 324 521 255 c 0
 521 186 521 186 516 186 c 0
 511 186 511 187 511 172 c 0
 511 157 511 157 506 157 c 0
 501 157 501 157 501 147 c 0
 501 137 501 137 496 137 c 0
 491 137 492 137 492 127 c 0
 492 117 492 118 487 118 c 0
 482 118 482 118 482 108 c 0
 482 98 482 98 477 98 c 0
 472 98 472 98 472 93 c 0
 472 88 472 88 467 88 c 0
 462 88 462 88 462 83 c 0
 462 78 462 78 457 78 c 0
 452 78 452 79 452 74 c 0
 452 69 452 69 447 69 c 0
 442 69 443 69 443 64 c 0
 443 59 443 59 438 59 c 0
 433 59 433 59 433 54 c 0
 433 49 433 49 423 49 c 0
 413 49 413 49 413 44 c 0
 413 39 413 39 408 39 c 0
 403 39 403 39 403 34 c 0
 403 29 404 29 394 29 c 0
 384 29 384 30 384 25 c 0
 384 20 384 20 374 20 c 0
 364 20 364 20 364 15 c 0
 364 10 365 10 345 10 c 0
 325 10 325 10 325 5 c 0
 325 0 325 0 276 0 c 2
 227 0 l 1
 227 103 l 2
 227 206 227 206 232 206 c 0
 237 206 237 206 237 201 c 0
 237 196 236 196 246 196 c 0
 256 196 256 196 256 191 c 0
 256 186 256 186 276 186 c 0
 296 186 296 186 296 191 c 0
 296 196 295 196 305 196 c 0
 315 196 315 196 315 201 c 0
 315 206 315 206 320 206 c 0
 325 206 325 206 325 211 c 0
 325 216 325 216 330 216 c 0
 335 216 335 215 335 230 c 0
 335 245 335 245 340 245 c 0
 345 245 345 245 345 255 c 0
 345 265 345 265 340 265 c 0
 335 265 335 265 335 275 c 0
 335 285 335 284 330 284 c 0
 325 284 325 284 325 294 c 0
 325 304 325 304 315 304 c 0
 305 304 305 304 305 309 c 0
 305 314 305 314 300 314 c 0
 295 314 296 314 296 319 c 0
 296 324 296 324 276 324 c 0
 256 324 256 324 256 319 c 0
 256 314 256 314 246 314 c 0
 236 314 237 314 237 309 c 0
 237 304 237 304 232 304 c 0
 227 304 227 304 227 299 c 0
 227 294 227 294 222 294 c 0
 217 294 217 294 217 284 c 0xd8
 217 274 217 275 212 275 c 0
 207 275 207 275 207 54 c 2
 207 -210 l 1
 114 -210 l 1
 21 -210 l 1
 21 59 l 2xe8
 21 284 21 284 26 284 c 0
 31 284 31 284 31 309 c 0
 31 334 31 333 36 333 c 0
 41 333 41 333 41 343 c 0
 41 353 41 353 46 353 c 0
 51 353 50 353 50 368 c 0
 50 383 50 382 55 382 c 0
 60 382 60 382 60 387 c 0
 60 392 60 392 65 392 c 0
 70 392 70 392 70 402 c 0
 70 412 70 412 75 412 c 0
 80 412 80 412 80 417 c 0
 80 422 80 422 85 422 c 0
 90 422 90 421 90 426 c 0
 90 431 90 431 95 431 c 0
 100 431 99 431 99 436 c 0
 99 441 99 441 104 441 c 0
 109 441 109 441 109 446 c 0
 109 451 109 451 119 451 c 0
 129 451 129 451 129 456 c 0
 129 461 129 461 134 461 c 0
 139 461 139 461 139 466 c 0
 139 471 138 471 148 471 c 0
 158 471 158 470 158 475 c 0
 158 480 158 480 168 480 c 0
 178 480 178 480 178 485 c 0
 178 490 177 490 197 490 c 0
 217 490 217 490 217 495 c 0xd8
EndSplineSet
EndChar

StartChar: q
Encoding: 113 113 16
Width: 547
Flags: W
HStem: 0 190<216.109 313.042> 330 180<216.101 315.639>
VStem: 16 180<210.867 309.355> 326 190<-51.5625 318.976> 336 190<-210 309.695>
LayerCount: 2
Fore
SplineSet
216 505 m 0xf0
 216 510 216 510 271 510 c 0
 326 510 326 510 326 505 c 0
 326 500 326 500 341 500 c 0
 356 500 356 500 356 495 c 0
 356 490 356 490 371 490 c 0
 386 490 386 490 386 485 c 0
 386 480 386 480 396 480 c 0
 406 480 406 480 406 475 c 0
 406 470 406 470 411 470 c 0
 416 470 416 470 416 465 c 0
 416 460 416 460 426 460 c 0
 436 460 436 460 436 455 c 0
 436 450 436 450 441 450 c 0
 446 450 446 450 446 445 c 0
 446 440 446 440 451 440 c 0
 456 440 456 440 456 435 c 0
 456 430 456 430 461 430 c 0
 466 430 466 430 466 425 c 0
 466 420 466 420 471 420 c 0
 476 420 476 420 476 410 c 0
 476 400 476 400 481 400 c 0
 486 400 486 400 486 390 c 0
 486 380 486 380 491 380 c 0
 496 380 496 380 496 370 c 0
 496 360 496 360 501 360 c 0
 506 360 506 360 506 350 c 0
 506 340 506 340 511 340 c 0
 516 340 516 340 516 305 c 0xf0
 516 270 516 270 521 270 c 0
 526 270 526 270 526 50 c 2
 526 -210 l 1
 431 -210 l 1
 336 -210 l 1
 336 55 l 2xe8
 336 280 336 280 331 280 c 0
 326 280 326 280 326 290 c 0
 326 300 326 300 321 300 c 0
 316 300 316 300 316 305 c 0
 316 310 316 310 311 310 c 0
 306 310 306 310 306 315 c 0
 306 320 306 320 296 320 c 0
 286 320 286 320 286 325 c 0
 286 330 286 330 266 330 c 0
 246 330 246 330 246 325 c 0
 246 320 246 320 236 320 c 0
 226 320 226 320 226 315 c 0
 226 310 226 310 221 310 c 0
 216 310 216 310 216 305 c 0
 216 300 216 300 211 300 c 0
 206 300 206 300 206 290 c 0
 206 280 206 280 201 280 c 0
 196 280 196 280 196 260 c 0
 196 240 196 240 201 240 c 0
 206 240 206 240 206 230 c 0
 206 220 206 220 211 220 c 0
 216 220 216 220 216 215 c 0
 216 210 216 210 221 210 c 0
 226 210 226 210 226 205 c 0
 226 200 226 200 236 200 c 0
 246 200 246 200 246 195 c 0
 246 190 246 190 266 190 c 0
 286 190 286 190 286 195 c 0
 286 200 286 200 296 200 c 0
 306 200 306 200 306 205 c 0
 306 210 306 210 311 210 c 0
 316 210 316 210 316 110 c 0
 316 10 316 10 311 10 c 0
 306 10 306 10 306 5 c 0
 306 0 306 0 261 0 c 0
 216 0 216 0 216 5 c 0
 216 10 216 10 196 10 c 0
 176 10 176 10 176 15 c 0
 176 20 176 20 166 20 c 0
 156 20 156 20 156 25 c 0
 156 30 156 30 146 30 c 0
 136 30 136 30 136 35 c 0
 136 40 136 40 131 40 c 0
 126 40 126 40 126 45 c 0
 126 50 126 50 116 50 c 0
 106 50 106 50 106 55 c 0
 106 60 106 60 101 60 c 0
 96 60 96 60 96 65 c 0
 96 70 96 70 91 70 c 0
 86 70 86 70 86 75 c 0
 86 80 86 80 81 80 c 0
 76 80 76 80 76 85 c 0
 76 90 76 90 71 90 c 0
 66 90 66 90 66 95 c 0
 66 100 66 100 61 100 c 0
 56 100 56 100 56 110 c 0
 56 120 56 120 51 120 c 0
 46 120 46 120 46 130 c 0
 46 140 46 140 41 140 c 0
 36 140 36 140 36 150 c 0
 36 160 36 160 31 160 c 0
 26 160 26 160 26 170 c 0
 26 180 26 180 21 180 c 0
 16 180 16 180 16 255 c 0
 16 330 16 330 21 330 c 0
 26 330 26 330 26 345 c 0
 26 360 26 360 31 360 c 0
 36 360 36 360 36 370 c 0
 36 380 36 380 41 380 c 0
 46 380 46 380 46 390 c 0
 46 400 46 400 51 400 c 0
 56 400 56 400 56 405 c 0
 56 410 56 410 61 410 c 0
 66 410 66 410 66 415 c 0
 66 420 66 420 71 420 c 0
 76 420 76 420 76 425 c 0
 76 430 76 430 81 430 c 0
 86 430 86 430 86 435 c 0
 86 440 86 440 91 440 c 0
 96 440 96 440 96 445 c 0
 96 450 96 450 101 450 c 0
 106 450 106 450 106 455 c 0
 106 460 106 460 111 460 c 0
 116 460 116 460 116 465 c 0
 116 470 116 470 126 470 c 0
 136 470 136 470 136 475 c 0
 136 480 136 480 141 480 c 0
 146 480 146 480 146 485 c 0
 146 490 146 490 161 490 c 0
 176 490 176 490 176 495 c 0
 176 500 176 500 196 500 c 0
 216 500 216 500 216 505 c 0xf0
EndSplineSet
EndChar

StartChar: r
Encoding: 114 114 17
Width: 313
Flags: W
VStem: 25 187<8 304.143>
LayerCount: 2
Fore
SplineSet
228 499 m 0
 245 501 282 499 297 495 c 2
 303 493 l 1
 303 403 l 2
 303 345 302 312 301 312 c 0
 300 312 298 313 295 314 c 0
 280 320 263 320 248 314 c 0
 245 313 234 305 231 302 c 0
 224 295 218 283 215 271 c 0
 214 267 213 225 213 136 c 2
 212 7 l 1
 119 7 l 2
 57 7 26 7 25 8 c 0
 23 10 24 281 26 297 c 0
 29 319 33 339 38 354 c 0
 40 359 42 365 43 368 c 0
 46 376 55 392 62 404 c 0
 87 444 128 475 178 490 c 0
 190 494 213 498 228 499 c 0
EndSplineSet
EndChar

StartChar: s
Encoding: 115 115 18
Width: 374
Flags: W
HStem: -4 183<11.0607 78.1764>
LayerCount: 2
Fore
SplineSet
289 479 m 0
 307 481 347 480 361 477 c 2
 364 477 l 1
 364 386 l 2
 364 336 364 295 363 295 c 0
 363 295 359 296 354 297 c 0
 335 300 312 291 302 277 c 0
 292 263 288 249 286 219 c 0
 284 190 282 178 276 158 c 0
 261 103 234 64 190 34 c 0
 172 22 138 7 117 3 c 0
 115 3 111 2 107 1 c 0
 94 -2 69 -4 52 -4 c 0
 32 -4 12 -1 11 1 c 0
 10 2 10 42 10 91 c 2
 11 180 l 1
 26 179 l 2
 53 179 69 187 82 206 c 0
 93 222 95 233 97 270 c 0
 99 312 104 335 114 360 c 0
 128 395 149 422 180 442 c 0
 195 452 203 456 222 464 c 0
 237 470 263 476 289 479 c 0
EndSplineSet
EndChar

StartChar: t
Encoding: 116 116 19
Width: 315
Flags: W
HStem: 0 200<222.599 290.659> 675 20G<22 212>
VStem: 22 190<210.414 299.802 490 695> 252 40<1.90735e-05 9.99762>
LayerCount: 2
Fore
SplineSet
22 455 m 2
 22 695 l 1
 117 695 l 1
 212 695 l 1
 212 592 l 1
 212 490 l 1
 252 490 l 1
 292 490 l 1
 292 395 l 1
 292 300 l 1
 252 300 l 2
 212 300 212 300 212 270 c 0
 212 240 212 240 217 240 c 0
 222 240 222 240 222 230 c 0
 222 220 222 220 227 220 c 0
 232 220 232 220 232 215 c 0
 232 210 232 210 242 210 c 0
 252 210 252 210 252 205 c 0
 252 200 252 200 272 200 c 0
 292 200 292 200 292 100 c 0
 292 0 292 0 272 0 c 0
 252 0 252 0 252 5 c 0
 252 10 252 10 227 10 c 0
 202 10 202 10 202 15 c 0
 202 20 202 20 187 20 c 0
 172 20 172 20 172 25 c 0
 172 30 172 30 162 30 c 0
 152 30 152 30 152 35 c 0
 152 40 152 40 142 40 c 0
 132 40 132 40 132 45 c 0
 132 50 132 50 127 50 c 0
 122 50 122 50 122 55 c 0
 122 60 122 60 112 60 c 0
 102 60 102 60 102 65 c 0
 102 70 102 70 97 70 c 0
 92 70 92 70 92 75 c 0
 92 80 92 80 87 80 c 0
 82 80 82 80 82 90 c 0
 82 100 82 100 77 100 c 0
 72 100 72 100 72 105 c 0
 72 110 72 110 67 110 c 0
 62 110 62 110 62 115 c 0
 62 120 62 120 57 120 c 0
 52 120 52 120 52 135 c 0
 52 150 52 150 47 150 c 0
 42 150 42 150 42 165 c 0
 42 180 42 180 37 180 c 0
 32 180 32 180 32 205 c 0
 32 230 32 230 27 230 c 0
 22 230 22 230 22 455 c 2
EndSplineSet
EndChar

StartChar: u
Encoding: 117 117 20
Width: 490
Flags: W
HStem: 0 21G<210 280> 0 21G<210 280> 470 20G<25 215 275 465>
VStem: 25 190<180.099 490> 35 190<180 487.656> 275 190<191.934 490>
LayerCount: 2
Fore
SplineSet
25 340 m 2xb4
 25 490 l 1
 120 490 l 1
 215 490 l 1
 215 340 l 2xb4
 215 190 215 190 220 190 c 0
 225 190 225 190 225 185 c 0
 225 180 225 180 245 180 c 0
 265 180 265 180 265 185 c 0
 265 190 265 190 270 190 c 0
 275 190 275 190 275 340 c 2
 275 490 l 1
 370 490 l 1
 465 490 l 1
 465 330 l 2
 465 170 465 170 460 170 c 0
 455 170 455 170 455 155 c 0
 455 140 455 140 450 140 c 0
 445 140 445 140 445 125 c 0
 445 110 445 110 440 110 c 0
 435 110 435 110 435 105 c 0
 435 100 435 100 430 100 c 0
 425 100 425 100 425 90 c 0
 425 80 425 80 420 80 c 0
 415 80 415 80 415 75 c 0
 415 70 415 70 410 70 c 0
 405 70 405 70 405 65 c 0
 405 60 405 60 400 60 c 0
 395 60 395 60 395 55 c 0
 395 50 395 50 390 50 c 0
 385 50 385 50 385 45 c 0
 385 40 385 40 380 40 c 0
 375 40 375 40 375 35 c 0
 375 30 375 30 365 30 c 0
 355 30 355 30 355 25 c 0
 355 20 355 20 350 20 c 0
 345 20 345 20 345 15 c 0
 345 10 345 10 330 10 c 0
 315 10 315 10 315 5 c 0
 315 0 315 0 245 0 c 0
 175 0 175 0 175 5 c 0
 175 10 175 10 160 10 c 0
 145 10 145 10 145 15 c 0
 145 20 145 20 135 20 c 0
 125 20 125 20 125 25 c 0
 125 30 125 30 120 30 c 0
 115 30 115 30 115 35 c 0
 115 40 115 40 110 40 c 0
 105 40 105 40 105 45 c 0
 105 50 105 50 100 50 c 0
 95 50 95 50 95 55 c 0
 95 60 95 60 90 60 c 0
 85 60 85 60 85 65 c 0
 85 70 85 70 80 70 c 0
 75 70 75 70 75 75 c 0
 75 80 75 80 70 80 c 0
 65 80 65 80 65 85 c 0
 65 90 65 90 60 90 c 0
 55 90 55 90 55 100 c 0
 55 110 55 110 50 110 c 0
 45 110 45 110 45 125 c 0
 45 140 45 140 40 140 c 0
 35 140 35 140 35 165 c 0xac
 35 190 35 190 30 190 c 0
 25 190 25 190 25 340 c 2xb4
EndSplineSet
EndChar

StartChar: v
Encoding: 118 118 21
Width: 470
Flags: W
HStem: 0 21G<225 235> 0 21G<225 235> 480 20<10 19.9861 450 460>
VStem: 40 170<380.48 479.52> 220 20<5.72205e-05 30.4615> 260 170<380.597 479.539> 270 170<400.187 489.539>
LayerCount: 2
Fore
SplineSet
10 490 m 0xbc
 10 500 10 500 100 500 c 0
 190 500 190 500 190 485 c 0
 190 470 190 470 195 470 c 0
 200 470 200 470 200 460 c 0
 200 450 200 450 205 450 c 0
 210 450 210 450 210 435 c 0
 210 420 210 420 215 420 c 0
 220 420 220 420 220 410 c 0
 220 400 220 400 225 400 c 0
 230 400 230 400 230 390 c 0
 230 380 230 380 235 380 c 0
 240 380 240 380 240 390 c 0
 240 400 240 400 245 400 c 0
 250 400 250 400 250 410 c 0
 250 420 250 420 255 420 c 0
 260 420 260 420 260 435 c 0xbc
 260 450 260 450 265 450 c 0
 270 450 270 450 270 460 c 0
 270 470 270 470 275 470 c 0
 280 470 280 470 280 480 c 0
 280 490 280 490 285 490 c 0
 290 490 290 490 290 495 c 0
 290 500 290 500 375 500 c 0
 460 500 460 500 460 490 c 0
 460 480 460 480 455 480 c 0
 450 480 450 480 450 470 c 0
 450 460 450 460 445 460 c 0
 440 460 440 460 440 450 c 0xba
 440 440 440 440 435 440 c 0
 430 440 430 440 430 430 c 0xbc
 430 420 430 420 425 420 c 0
 420 420 420 420 420 410 c 0
 420 400 420 400 415 400 c 0
 410 400 410 400 410 385 c 0
 410 370 410 370 405 370 c 0
 400 370 400 370 400 360 c 0
 400 350 400 350 395 350 c 0
 390 350 390 350 390 340 c 0
 390 330 390 330 385 330 c 0
 380 330 380 330 380 320 c 0
 380 310 380 310 375 310 c 0
 370 310 370 310 370 295 c 0
 370 280 370 280 365 280 c 0
 360 280 360 280 360 270 c 0
 360 260 360 260 355 260 c 0
 350 260 350 260 350 250 c 0
 350 240 350 240 345 240 c 0
 340 240 340 240 340 230 c 0
 340 220 340 220 335 220 c 0
 330 220 330 220 330 210 c 0
 330 200 330 200 325 200 c 0
 320 200 320 200 320 185 c 0
 320 170 320 170 315 170 c 0
 310 170 310 170 310 160 c 0
 310 150 310 150 305 150 c 0
 300 150 300 150 300 140 c 0
 300 130 300 130 295 130 c 0
 290 130 290 130 290 120 c 0
 290 110 290 110 285 110 c 0
 280 110 280 110 280 95 c 0
 280 80 280 80 275 80 c 0
 270 80 270 80 270 70 c 0xba
 270 60 270 60 265 60 c 0
 260 60 260 60 260 50 c 0
 260 40 260 40 255 40 c 0
 250 40 250 40 250 30 c 0
 250 20 250 20 245 20 c 0
 240 20 240 20 240 10 c 0
 240 0 240 0 230 0 c 0
 220 0 220 0 220 15 c 0
 220 30 220 30 215 30 c 0
 210 30 210 30 210 40 c 0
 210 50 210 50 205 50 c 0
 200 50 200 50 200 60 c 0
 200 70 200 70 195 70 c 0
 190 70 190 70 190 80 c 0
 190 90 190 90 185 90 c 0
 180 90 180 90 180 105 c 0
 180 120 180 120 175 120 c 0
 170 120 170 120 170 130 c 0
 170 140 170 140 165 140 c 0
 160 140 160 140 160 150 c 0
 160 160 160 160 155 160 c 0
 150 160 150 160 150 170 c 0
 150 180 150 180 145 180 c 0
 140 180 140 180 140 195 c 0
 140 210 140 210 135 210 c 0
 130 210 130 210 130 220 c 0
 130 230 130 230 125 230 c 0
 120 230 120 230 120 240 c 0
 120 250 120 250 115 250 c 0
 110 250 110 250 110 260 c 0
 110 270 110 270 105 270 c 0
 100 270 100 270 100 285 c 0
 100 300 100 300 95 300 c 0
 90 300 90 300 90 310 c 0
 90 320 90 320 85 320 c 0
 80 320 80 320 80 330 c 0
 80 340 80 340 75 340 c 0
 70 340 70 340 70 350 c 0
 70 360 70 360 65 360 c 0
 60 360 60 360 60 375 c 0
 60 390 60 390 55 390 c 0
 50 390 50 390 50 400 c 0
 50 410 50 410 45 410 c 0
 40 410 40 410 40 420 c 0
 40 430 40 430 35 430 c 0
 30 430 30 430 30 440 c 0
 30 450 30 450 25 450 c 0
 20 450 20 450 20 465 c 0
 20 480 20 480 15 480 c 0
 10 480 10 480 10 490 c 0xbc
EndSplineSet
EndChar

StartChar: w
Encoding: 119 119 22
Width: 712
Flags: W
HStem: 0 180<181 260.659 452.267 539.878> 20 470<81.0937 208.231 271 340.906 371.187 450.746 511.905 630.906>
VStem: 21 190<180.728 490> 251 210<180 487.656> 271 180<180.625 490> 511 180<180.872 490>
LayerCount: 2
Fore
SplineSet
21 330 m 2x6c
 21 490 l 1
 116 490 l 1
 211 490 l 1x6c
 211 340 l 2
 211 190 211 190 216 190 c 0
 221 190 221 190 221 185 c 0
 221 180 221 180 236 180 c 0
 251 180 251 180 251 185 c 0xb4
 251 190 251 190 256 190 c 0
 261 190 261 190 261 205 c 0
 261 220 261 220 266 220 c 0
 271 220 271 220 271 355 c 2
 271 490 l 1
 361 490 l 1
 451 490 l 1
 451 340 l 2x6c
 451 190 451 190 456 190 c 0
 461 190 461 190 461 185 c 0
 461 180 461 180 476 180 c 0xb4
 491 180 491 180 491 185 c 0
 491 190 491 190 496 190 c 0
 501 190 501 190 501 195 c 0
 501 200 501 200 506 200 c 0
 511 200 511 200 511 345 c 2
 511 490 l 1
 601 490 l 1
 691 490 l 1
 691 310 l 2
 691 130 691 130 686 130 c 0
 681 130 681 130 681 120 c 0
 681 110 681 110 676 110 c 0
 671 110 671 110 671 100 c 0
 671 90 671 90 666 90 c 0
 661 90 661 90 661 80 c 0
 661 70 661 70 656 70 c 0
 651 70 651 70 651 65 c 0
 651 60 651 60 646 60 c 0
 641 60 641 60 641 55 c 0
 641 50 641 50 636 50 c 0
 631 50 631 50 631 45 c 0
 631 40 631 40 626 40 c 0
 621 40 621 40 621 35 c 0
 621 30 621 30 616 30 c 0
 611 30 611 30 611 25 c 0
 611 20 611 20 601 20 c 0x74
 591 20 591 20 591 15 c 0
 591 10 591 10 581 10 c 0
 571 10 571 10 571 5 c 0
 571 0 571 0 506 0 c 0xb4
 441 0 441 0 441 5 c 0
 441 10 441 10 431 10 c 0
 421 10 421 10 421 15 c 0
 421 20 421 20 411 20 c 0
 401 20 401 20 401 25 c 0
 401 30 401 30 396 30 c 0
 391 30 391 30 391 35 c 0
 391 40 391 40 381 40 c 0
 371 40 371 40 371 45 c 0
 371 50 371 50 366 50 c 0
 361 50 361 50 361 55 c 0
 361 60 361 60 356 60 c 0
 351 60 351 60 351 55 c 0
 351 50 351 50 346 50 c 0
 341 50 341 50 341 45 c 0
 341 40 341 40 336 40 c 0
 331 40 331 40 331 35 c 0
 331 30 331 30 321 30 c 0
 311 30 311 30 311 25 c 0
 311 20 311 20 301 20 c 0x74
 291 20 291 20 291 15 c 0
 291 10 291 10 281 10 c 0
 271 10 271 10 271 5 c 0
 271 0 271 0 211 0 c 0xac
 151 0 151 0 151 5 c 0
 151 10 151 10 136 10 c 0
 121 10 121 10 121 15 c 0
 121 20 121 20 111 20 c 0
 101 20 101 20 101 25 c 0
 101 30 101 30 96 30 c 0
 91 30 91 30 91 35 c 0
 91 40 91 40 86 40 c 0
 81 40 81 40 81 45 c 0
 81 50 81 50 76 50 c 0
 71 50 71 50 71 55 c 0
 71 60 71 60 66 60 c 0
 61 60 61 60 61 65 c 0
 61 70 61 70 56 70 c 0
 51 70 51 70 51 80 c 0
 51 90 51 90 46 90 c 0
 41 90 41 90 41 105 c 0
 41 120 41 120 36 120 c 0
 31 120 31 120 31 145 c 0
 31 170 31 170 26 170 c 0
 21 170 21 170 21 330 c 2x6c
EndSplineSet
EndChar

StartChar: x
Encoding: 120 120 23
Width: 471
Flags: W
HStem: 480 20G<20 200 270 450>
VStem: 20 180<10 209.091 339.999 500> 30 190<11.4844 210> 270 180<10 209.341 340.625 500>
LayerCount: 2
Fore
SplineSet
20 420 m 2xd0
 20 500 l 1
 110 500 l 1
 200 500 l 1
 200 430 l 2xd0
 200 360 200 360 205 360 c 0
 210 360 210 360 210 350 c 0
 210 340 210 340 220 340 c 0
 230 340 230 340 230 335 c 0
 230 330 230 330 235 330 c 0
 240 330 240 330 240 335 c 0
 240 340 240 340 250 340 c 0
 260 340 260 340 260 350 c 0
 260 360 260 360 265 360 c 0
 270 360 270 360 270 430 c 2
 270 500 l 1
 360 500 l 1
 450 500 l 1
 450 415 l 2
 450 330 450 330 445 330 c 0
 440 330 440 330 440 320 c 0
 440 310 440 310 435 310 c 0
 430 310 430 310 430 300 c 0
 430 290 430 290 425 290 c 0
 420 290 420 290 420 285 c 0
 420 280 420 280 415 280 c 0
 410 280 410 280 410 275 c 0
 410 270 410 270 405 270 c 0
 400 270 400 270 400 265 c 0
 400 260 400 260 410 260 c 0
 420 260 420 260 420 250 c 0
 420 240 420 240 425 240 c 0
 430 240 430 240 430 235 c 0
 430 230 430 230 435 230 c 0
 440 230 440 230 440 220 c 0
 440 210 440 210 445 210 c 0
 450 210 450 210 450 110 c 2
 450 10 l 1
 360 10 l 1
 270 10 l 1
 270 95 l 2
 270 180 270 180 265 180 c 0
 260 180 260 180 260 190 c 0
 260 200 260 200 255 200 c 0
 250 200 250 200 250 205 c 0
 250 210 250 210 235 210 c 0
 220 210 220 210 220 205 c 0xb0
 220 200 220 200 215 200 c 0
 210 200 210 200 210 195 c 0
 210 190 210 190 205 190 c 0
 200 190 200 190 200 100 c 2
 200 10 l 1
 110 10 l 1
 20 10 l 1
 20 105 l 2xd0
 20 200 20 200 25 200 c 0
 30 200 30 200 30 210 c 0
 30 220 30 220 35 220 c 0
 40 220 40 220 40 225 c 0
 40 230 40 230 45 230 c 0
 50 230 50 230 50 240 c 0
 50 250 50 250 60 250 c 0
 70 250 70 250 70 255 c 0
 70 260 70 260 75 260 c 0
 80 260 80 260 80 270 c 0
 80 280 80 280 70 280 c 0
 60 280 60 280 60 285 c 0
 60 290 60 290 55 290 c 0
 50 290 50 290 50 300 c 0
 50 310 50 310 45 310 c 0
 40 310 40 310 40 315 c 0
 40 320 40 320 35 320 c 0
 30 320 30 320 30 330 c 0xb0
 30 340 30 340 25 340 c 0
 20 340 20 340 20 420 c 2xd0
EndSplineSet
EndChar

StartChar: y
Encoding: 121 121 24
Width: 496
Flags: W
HStem: -210 153<100.752 226.794> 10 490<97.1874 207> 30 170<209.273 267> 490 10<458.98 467>
VStem: 27 180<203.27 500> 97 10<-47.7363 -38> 277 190<200.929 499.702> 277 180<200.105 494.769>
LayerCount: 2
Fore
SplineSet
27 315 m 2xa8
 27 500 l 1xb8
 117 500 l 1xc8
 207 500 l 1
 207 360 l 2
 207 220 207 220 212 220 c 0
 217 220 217 220 217 210 c 0
 217 200 217 200 242 200 c 0
 267 200 267 200 267 210 c 0
 267 220 267 220 272 220 c 0
 277 220 277 220 277 360 c 2xba
 277 500 l 1xb1
 372 500 l 2
 467 500 467 500 467 495 c 0xb2
 467 490 467 490 462 490 c 0
 457 490 457 490 457 235 c 0
 457 -19 457 -19 452 -19 c 0
 447 -19 447 -19 447 -33 c 0
 447 -47 447 -48 442 -48 c 0
 437 -48 437 -48 437 -62 c 0
 437 -76 437 -76 432 -76 c 0
 427 -76 427 -76 427 -86 c 0
 427 -96 427 -95 422 -95 c 0
 417 -95 417 -95 417 -100 c 0
 417 -105 417 -105 412 -105 c 0
 407 -105 407 -105 407 -110 c 0
 407 -115 407 -115 402 -115 c 0
 397 -115 397 -114 397 -119 c 0
 397 -124 397 -124 392 -124 c 0
 387 -124 387 -124 387 -134 c 0
 387 -144 387 -143 377 -143 c 0
 367 -143 367 -143 367 -148 c 0
 367 -153 367 -153 362 -153 c 0
 357 -153 357 -153 357 -158 c 0
 357 -163 357 -162 352 -162 c 0
 347 -162 347 -162 347 -167 c 0
 347 -172 347 -172 337 -172 c 0
 327 -172 327 -172 327 -177 c 0
 327 -182 327 -181 322 -181 c 0
 317 -181 317 -181 317 -186 c 0
 317 -191 317 -191 302 -191 c 0
 287 -191 287 -191 287 -196 c 0
 287 -201 287 -200 272 -200 c 0
 257 -200 257 -200 257 -205 c 0
 257 -210 257 -210 197 -210 c 0
 137 -210 137 -210 137 -205 c 0
 137 -200 137 -200 117 -200 c 0
 97 -200 97 -200 97 -119 c 0
 97 -38 97 -38 102 -38 c 0
 107 -38 107 -38 107 -43 c 0xb5
 107 -48 107 -48 127 -48 c 0
 147 -48 147 -47 147 -52 c 0
 147 -57 147 -57 162 -57 c 0
 177 -57 177 -57 177 -52 c 0
 177 -47 177 -48 192 -48 c 0
 207 -48 207 -48 207 -43 c 0
 207 -38 207 -38 217 -38 c 0
 227 -38 227 -38 227 -33 c 0
 227 -28 227 -29 232 -29 c 0
 237 -29 237 -29 237 -24 c 0
 237 -19 237 -19 242 -19 c 0
 247 -19 247 -20 247 -10 c 0
 247 0 247 0 252 0 c 0
 257 0 257 0 257 5 c 0
 257 10 257 10 262 10 c 0xc8
 267 10 267 10 267 20 c 0
 267 30 267 30 257 30 c 0xa8
 247 30 247 30 247 25 c 0
 247 20 247 20 227 20 c 0
 207 20 207 20 207 15 c 0
 207 10 207 10 182 10 c 0xc8
 157 10 157 10 157 15 c 0
 157 20 157 20 137 20 c 0
 117 20 117 20 117 25 c 0
 117 30 117 30 107 30 c 0
 97 30 97 30 97 35 c 0xa4
 97 40 97 40 92 40 c 0
 87 40 87 40 87 45 c 0
 87 50 87 50 82 50 c 0
 77 50 77 50 77 55 c 0
 77 60 77 60 72 60 c 0
 67 60 67 60 67 65 c 0
 67 70 67 70 62 70 c 0
 57 70 57 70 57 75 c 0
 57 80 57 80 52 80 c 0
 47 80 47 80 47 90 c 0
 47 100 47 100 42 100 c 0
 37 100 37 100 37 115 c 0
 37 130 37 130 32 130 c 0
 27 130 27 130 27 315 c 2xa8
EndSplineSet
EndChar

StartChar: z
Encoding: 122 122 25
Width: 490
Flags: W
HStem: 10 200<325.231 480> 10 190<91.6894 119.625 320 478.828> 310 190<10 150 350.375 376.456>
VStem: 150 200<240.461 309.47>
LayerCount: 2
Fore
SplineSet
10 405 m 1xb0
 10 500 l 1
 235 500 l 2
 460 500 460 500 460 490 c 0
 460 480 460 480 455 480 c 0
 450 480 450 480 450 475 c 0
 450 470 450 470 445 470 c 0
 440 470 440 470 440 460 c 0
 440 450 440 450 435 450 c 0
 430 450 430 450 430 440 c 0
 430 430 430 430 425 430 c 0
 420 430 420 430 420 420 c 0
 420 410 420 410 415 410 c 0
 410 410 410 410 410 400 c 0
 410 390 410 390 405 390 c 0
 400 390 400 390 400 380 c 0
 400 370 400 370 395 370 c 0
 390 370 390 370 390 360 c 0
 390 350 390 350 385 350 c 0
 380 350 380 350 380 340 c 0
 380 330 380 330 375 330 c 0
 370 330 370 330 370 320 c 0
 370 310 370 310 365 310 c 0
 360 310 360 310 360 300 c 0
 360 290 360 290 355 290 c 0
 350 290 350 290 350 280 c 0
 350 270 350 270 345 270 c 0
 340 270 340 270 340 260 c 0
 340 250 340 250 335 250 c 0
 330 250 330 250 330 240 c 0
 330 230 330 230 325 230 c 0
 320 230 320 230 320 215 c 0
 320 200 320 200 325 200 c 0x70
 330 200 330 200 330 205 c 0
 330 210 330 210 405 210 c 2
 480 210 l 1
 480 110 l 1
 480 10 l 1xb0
 245 10 l 2
 10 10 10 10 10 15 c 0
 10 20 10 20 15 20 c 0
 20 20 20 20 20 30 c 0
 20 40 20 40 25 40 c 0
 30 40 30 40 30 50 c 0
 30 60 30 60 35 60 c 0
 40 60 40 60 40 70 c 0
 40 80 40 80 45 80 c 0
 50 80 50 80 50 90 c 0
 50 100 50 100 55 100 c 0
 60 100 60 100 60 110 c 0
 60 120 60 120 65 120 c 0
 70 120 70 120 70 130 c 0
 70 140 70 140 75 140 c 0
 80 140 80 140 80 150 c 0
 80 160 80 160 85 160 c 0
 90 160 90 160 90 170 c 0
 90 180 90 180 95 180 c 0
 100 180 100 180 100 190 c 0
 100 200 100 200 105 200 c 0x70
 110 200 110 200 110 210 c 0
 110 220 110 220 115 220 c 0
 120 220 120 220 120 230 c 0
 120 240 120 240 125 240 c 0
 130 240 130 240 130 250 c 0
 130 260 130 260 135 260 c 0
 140 260 140 260 140 270 c 0
 140 280 140 280 145 280 c 0
 150 280 150 280 150 295 c 0
 150 310 150 310 80 310 c 2
 10 310 l 1
 10 405 l 1xb0
EndSplineSet
EndChar

StartChar: comma
Encoding: 44 44 26
Width: 333
Flags: W
HStem: 108 18<274.282 283>
VStem: 50 224<45 116.585 117.415 188> 68 197<27.4153 116.585 117.415 119.154 122.847 206> 77 179<27.0027 80.2361 162.024 215> 158 27<-26.9993 -17.8595>
LayerCount: 2
Fore
SplineSet
122 229 m 0x90
 122 233 122 233 167 233 c 0
 212 233 212 233 212 229 c 0
 212 225 212 224 221 224 c 0
 230 224 229 224 229 220 c 0
 229 216 230 215 234 215 c 0
 238 215 238 215 238 211 c 0
 238 207 239 206 243 206 c 0
 247 206 247 206 247 202 c 0
 247 198 248 197 252 197 c 0
 256 197 256 197 256 193 c 0x90
 256 189 257 188 261 188 c 0
 265 188 265 188 265 179 c 0xa0
 265 170 266 171 270 171 c 0
 274 171 274 170 274 148 c 0
 274 126 275 126 279 126 c 0
 283 126 283 126 283 117 c 0
 283 108 283 108 279 108 c 0
 275 108 274 107 274 85 c 0xc0
 274 63 274 63 270 63 c 0
 266 63 265 63 265 54 c 0xa0
 265 45 265 45 261 45 c 0
 257 45 256 44 256 40 c 0x90
 256 36 256 36 252 36 c 0
 248 36 247 36 247 27 c 0
 247 18 247 18 243 18 c 0
 239 18 238 17 238 13 c 0
 238 9 238 9 234 9 c 0
 230 9 229 8 229 4 c 0
 229 0 229 0 225 0 c 0
 221 0 221 0 221 -4 c 0
 221 -8 221 -9 212 -9 c 0
 203 -9 203 -9 203 -13 c 0
 203 -17 203 -18 194 -18 c 0
 185 -18 185 -18 185 -22 c 0
 185 -26 184 -27 171 -27 c 0
 158 -27 158 -27 158 -9 c 0x88
 158 9 158 9 140 9 c 0
 122 9 122 9 122 13 c 0
 122 17 122 18 113 18 c 0
 104 18 104 18 104 22 c 0
 104 26 104 27 95 27 c 0
 86 27 86 27 86 31 c 0
 86 35 85 36 81 36 c 0
 77 36 77 36 77 40 c 0x90
 77 44 76 45 72 45 c 0
 68 45 68 45 68 54 c 0xa0
 68 63 67 63 63 63 c 0
 59 63 59 63 59 72 c 0
 59 81 58 81 54 81 c 0
 50 81 50 81 50 121 c 0xc0
 50 161 50 162 54 162 c 0
 58 162 59 162 59 171 c 0
 59 180 59 179 63 179 c 0
 67 179 68 180 68 184 c 0xa0
 68 188 68 188 72 188 c 0
 76 188 77 188 77 197 c 0
 77 206 77 206 86 206 c 0
 95 206 95 207 95 211 c 0
 95 215 95 215 99 215 c 0
 103 215 104 216 104 220 c 0
 104 224 104 224 113 224 c 0
 122 224 122 225 122 229 c 0x90
EndSplineSet
EndChar

StartChar: semicolon
Encoding: 59 59 27
Width: 329
Flags: W
HStem: 99 36<272 281> 305 198<75.0033 158.154 161.847 253.859> 323 162<57.0625 101.997 219.003 262.997>
VStem: 57 215<36.0027 115.339 118.661 197 323.141 401.923 406.077 406.569 409.431 485> 57 206<36.0027 115.339 118.661 197 323 401.923 406.077 406.569 409.431 485> 66 197<27.0625 115.339 118.661 206 322.98 401.923 406.077 406.569 409.431 494> 75 179<26.9012 80.1694 153.831 215 314 358.709 449.415 502.781> 84 170<18.0625 62.9657 179.415 215 314 340.996 467.415 502.781> 84 152<188.028 223.938 304.98 340.992 476.003 511.781> 93 143<188.028 224.099 304.949 331.585 476.003 511.881> 102 143<9.26819 35.5847 197.028 223.974 485.003 503.02> 156 27<-26.9993 -17.8595>
LayerCount: 2
Fore
SplineSet
120 516 m 0xc020
 120 520 120 521 160 521 c 0
 200 521 201 520 201 516 c 0
 201 512 201 512 210 512 c 0
 219 512 219 511 219 507 c 0
 219 503 218 503 227 503 c 0
 236 503 236 502 236 498 c 0xc080
 236 494 237 494 241 494 c 0
 245 494 245 493 245 489 c 0xc020
 245 485 246 485 250 485 c 0
 254 485 254 484 254 480 c 0xa2
 254 476 255 476 259 476 c 0
 263 476 263 476 263 467 c 0xa8
 263 458 264 458 268 458 c 0
 272 458 272 458 272 449 c 0
 272 440 273 440 277 440 c 0
 281 440 281 439 281 408 c 0
 281 377 281 377 277 377 c 0
 273 377 272 376 272 363 c 0xb0
 272 350 272 350 268 350 c 0
 264 350 263 350 263 346 c 0xa8
 263 342 263 341 259 341 c 0
 255 341 254 341 254 332 c 0xa2
 254 323 254 323 245 323 c 0xa020
 236 323 236 323 236 319 c 0xa080
 236 315 236 314 232 314 c 0
 228 314 227 314 227 310 c 0
 227 306 228 305 219 305 c 0
 210 305 210 305 210 301 c 0
 210 297 209 296 196 296 c 0
 183 296 183 296 183 292 c 0xc010
 183 288 182 287 160 287 c 0
 138 287 138 288 138 292 c 0
 138 296 137 296 124 296 c 0
 111 296 111 297 111 301 c 0
 111 305 111 305 102 305 c 0xc020
 93 305 93 306 93 310 c 0xc040
 93 314 92 314 88 314 c 0
 84 314 84 315 84 319 c 0xc1
 84 323 83 323 79 323 c 0
 75 323 75 324 75 328 c 0xa2
 75 332 74 332 70 332 c 0
 66 332 66 333 66 337 c 0xa4
 66 341 65 341 61 341 c 0
 57 341 57 341 57 350 c 0
 57 359 56 359 52 359 c 0
 48 359 48 359 48 404 c 0
 48 449 48 449 52 449 c 0
 56 449 57 449 57 458 c 0xb0
 57 467 57 467 61 467 c 0
 65 467 66 467 66 471 c 0xa4
 66 475 66 476 70 476 c 0
 74 476 75 476 75 480 c 0xa2
 75 484 75 485 79 485 c 0
 83 485 84 485 84 489 c 0xa1
 84 493 84 494 88 494 c 0
 92 494 93 494 93 498 c 0xa040
 93 502 93 503 97 503 c 0
 101 503 102 503 102 507 c 0
 102 511 102 512 111 512 c 0
 120 512 120 512 120 516 c 0xc020
120 229 m 0
 120 233 120 233 165 233 c 0
 210 233 210 233 210 229 c 0
 210 225 210 224 219 224 c 0
 228 224 227 224 227 220 c 0
 227 216 228 215 232 215 c 0
 236 215 236 215 236 211 c 0x8080
 236 207 237 206 241 206 c 0
 245 206 245 206 245 202 c 0x8020
 245 198 246 197 250 197 c 0
 254 197 254 197 254 193 c 0x82
 254 189 255 188 259 188 c 0
 263 188 263 188 263 179 c 0x88
 263 170 264 171 268 171 c 0
 272 171 272 171 272 153 c 0
 272 135 273 135 277 135 c 0
 281 135 281 135 281 117 c 0
 281 99 281 99 277 99 c 0
 273 99 272 99 272 81 c 0x90
 272 63 272 63 268 63 c 0
 264 63 263 63 263 54 c 0x88
 263 45 263 45 259 45 c 0
 255 45 254 45 254 36 c 0x82
 254 27 254 27 250 27 c 0
 246 27 245 26 245 22 c 0x8020
 245 18 245 18 241 18 c 0
 237 18 236 17 236 13 c 0x8040
 236 9 236 9 232 9 c 0
 228 9 227 8 227 4 c 0
 227 0 227 0 223 0 c 0
 219 0 219 0 219 -4 c 0
 219 -8 219 -9 210 -9 c 0
 201 -9 201 -9 201 -13 c 0
 201 -17 201 -18 192 -18 c 0
 183 -18 183 -18 183 -22 c 0
 183 -26 182 -27 169 -27 c 0
 156 -27 156 -27 156 -9 c 0x8010
 156 9 156 9 138 9 c 0
 120 9 120 9 120 13 c 0
 120 17 120 18 111 18 c 0
 102 18 102 18 102 22 c 0x8020
 102 26 102 27 93 27 c 0x8040
 84 27 84 27 84 31 c 0x81
 84 35 83 36 79 36 c 0
 75 36 75 36 75 45 c 0x82
 75 54 74 54 70 54 c 0
 66 54 66 54 66 58 c 0x84
 66 62 65 63 61 63 c 0
 57 63 57 63 57 72 c 0
 57 81 56 81 52 81 c 0
 48 81 48 81 48 117 c 0
 48 153 48 153 52 153 c 0
 56 153 57 153 57 166 c 0x90
 57 179 57 179 61 179 c 0
 65 179 66 180 66 184 c 0x84
 66 188 66 188 70 188 c 0
 74 188 75 189 75 193 c 0x82
 75 197 75 197 79 197 c 0
 83 197 84 198 84 202 c 0x81
 84 206 84 206 88 206 c 0
 92 206 93 207 93 211 c 0x8040
 93 215 93 215 97 215 c 0
 101 215 102 216 102 220 c 0x8020
 102 224 102 224 111 224 c 0
 120 224 120 225 120 229 c 0
EndSplineSet
EndChar

StartChar: bracketleft
Encoding: 91 91 28
Width: 318
Flags: W
HStem: -108 117<183 308> 512 179<183 308>
VStem: 30 278<-108 9 512 691> 30 153<9 512>
LayerCount: 2
Fore
SplineSet
30 292 m 1xd0
 30 691 l 1
 169 691 l 1
 308 691 l 1
 308 601 l 1
 308 512 l 1xe0
 245 512 l 1
 183 512 l 1
 183 260 l 1
 183 9 l 1xd0
 245 9 l 1
 308 9 l 1
 308 -49 l 1
 308 -108 l 1
 169 -108 l 1
 30 -108 l 1xe0
 30 292 l 1xd0
EndSplineSet
EndChar

StartChar: bracketright
Encoding: 93 93 29
Width: 327
Flags: W
HStem: -108 117<10 136> 512 179<10.412 136> 521 170<10.2109 135.078>
VStem: 10 287<-108 9 512.268 691> 19 278<512.089 689.672> 136 161<9 512>
LayerCount: 2
Fore
SplineSet
10 606 m 2xb0
 10 691 l 1
 154 691 l 1
 297 691 l 1xb0
 297 292 l 1xa4
 297 -108 l 1
 154 -108 l 1
 10 -108 l 1
 10 -49 l 1
 10 9 l 1xb0
 73 9 l 1
 136 9 l 1
 136 260 l 1
 136 512 l 1xc4
 77 512 l 2
 19 512 19 512 19 516 c 0xc8
 19 520 18 521 14 521 c 0
 10 521 10 521 10 606 c 2xb0
EndSplineSet
EndChar

StartChar: braceleft
Encoding: 123 123 30
Width: 328
Flags: W
HStem: -108 117<245.092 317.199> 565 135<222.753 308.438> 574 126<229.644 318>
VStem: 67 152<19.8732 214.487 377.98 562.629> 76 242<-79.4661 6.49841 575.88 672.938> 85 233<-89.6612 6.49841 575.88 673.099>
LayerCount: 2
Fore
SplineSet
157 696 m 0xc4
 157 700 156 700 237 700 c 2xc4
 318 700 l 1xa4
 318 637 l 1xa8
 318 574 l 1
 282 574 l 2xa4
 246 574 246 574 246 570 c 0
 246 566 246 565 237 565 c 0
 228 565 228 565 228 556 c 0
 228 547 228 547 224 547 c 0
 220 547 219 548 219 449 c 0
 219 350 219 350 215 350 c 0
 211 350 210 350 210 341 c 0
 210 332 210 332 206 332 c 0
 202 332 201 332 201 328 c 0
 201 324 201 323 197 323 c 0
 193 323 192 323 192 319 c 0
 192 315 192 314 188 314 c 0
 184 314 184 314 184 310 c 0
 184 306 183 305 179 305 c 0
 175 305 175 305 175 301 c 0
 175 297 174 296 170 296 c 0
 166 296 166 296 166 292 c 0
 166 288 166 287 175 287 c 0
 184 287 184 287 184 283 c 0
 184 279 184 278 188 278 c 0
 192 278 192 278 192 274 c 0
 192 270 193 269 197 269 c 0
 201 269 201 269 201 260 c 0
 201 251 202 251 206 251 c 0
 210 251 210 251 210 242 c 0
 210 233 211 233 215 233 c 0
 219 233 219 234 219 135 c 0xd0
 219 36 220 36 224 36 c 0
 228 36 228 36 228 27 c 0
 228 18 228 18 237 18 c 0
 246 18 246 17 246 13 c 0
 246 9 246 9 282 9 c 0
 318 9 318 9 318 -49 c 0xc8
 318 -107 318 -108 314 -108 c 0
 310 -108 309 -108 309 -112 c 0
 309 -116 309 -117 242 -117 c 0
 175 -117 175 -116 175 -112 c 0
 175 -108 174 -108 152 -108 c 0
 130 -108 130 -107 130 -103 c 0
 130 -99 130 -99 121 -99 c 0
 112 -99 112 -98 112 -94 c 0
 112 -90 111 -90 107 -90 c 0
 103 -90 103 -89 103 -85 c 0
 103 -81 102 -81 98 -81 c 0
 94 -81 94 -80 94 -76 c 0
 94 -72 93 -72 89 -72 c 0
 85 -72 85 -71 85 -67 c 0xc4
 85 -63 84 -63 80 -63 c 0
 76 -63 76 -63 76 -54 c 0xc8
 76 -45 75 -45 71 -45 c 0
 67 -45 67 -45 67 63 c 0
 67 171 66 171 62 171 c 0
 58 171 58 170 58 188 c 0
 58 206 57 206 53 206 c 0
 49 206 49 207 49 211 c 0
 49 215 48 215 44 215 c 0
 40 215 40 216 40 220 c 0
 40 224 40 224 31 224 c 0
 22 224 22 225 22 229 c 0
 22 233 21 233 17 233 c 0
 13 233 13 234 13 301 c 0
 13 368 13 368 26 368 c 0
 39 368 40 368 40 372 c 0
 40 376 40 377 44 377 c 0
 48 377 49 377 49 381 c 0
 49 385 49 386 53 386 c 0
 57 386 58 386 58 404 c 0
 58 422 58 422 62 422 c 0
 66 422 67 422 67 525 c 0xd0
 67 628 67 628 71 628 c 0
 75 628 76 628 76 637 c 0xc8
 76 646 76 646 80 646 c 0
 84 646 85 646 85 655 c 0
 85 664 85 664 89 664 c 0
 93 664 94 665 94 669 c 0
 94 673 94 673 103 673 c 0
 112 673 112 674 112 678 c 0
 112 682 112 682 121 682 c 0
 130 682 130 683 130 687 c 0
 130 691 130 691 143 691 c 0
 156 691 157 692 157 696 c 0xc4
EndSplineSet
EndChar

StartChar: braceright
Encoding: 125 125 31
Width: 330
Flags: W
HStem: -117 135<12.0785 106.591> -108 117<10.6897 87.6775> 574 126<10.2384 103.738> 583 108<10.075 96.2621>
VStem: 109 161<19.1294 214.318 359.082 573.257>
LayerCount: 2
Fore
SplineSet
19 696 m 0x18
 19 700 19 700 100 700 c 0x28
 181 700 181 700 181 696 c 0
 181 692 181 691 194 691 c 0
 207 691 207 691 207 687 c 0
 207 683 207 682 216 682 c 0
 225 682 225 682 225 678 c 0
 225 674 226 673 230 673 c 0
 234 673 234 673 234 669 c 0
 234 665 235 664 239 664 c 0
 243 664 243 664 243 655 c 0
 243 646 244 646 248 646 c 0
 252 646 252 646 252 637 c 0
 252 628 253 628 257 628 c 0
 261 628 261 628 261 606 c 0
 261 584 262 583 266 583 c 0
 270 583 270 584 270 485 c 0
 270 386 271 386 275 386 c 0
 279 386 279 386 279 377 c 0
 279 368 280 368 284 368 c 0
 288 368 288 367 288 363 c 0
 288 359 288 359 297 359 c 0
 306 359 306 358 306 354 c 0
 306 350 307 350 311 350 c 0
 315 350 315 350 315 287 c 0
 315 224 315 224 311 224 c 0
 307 224 306 224 306 220 c 0
 306 216 306 215 297 215 c 0
 288 215 288 215 288 211 c 0
 288 207 288 206 284 206 c 0
 280 206 279 206 279 202 c 0
 279 198 279 197 275 197 c 0
 271 197 270 198 270 99 c 0
 270 0 270 0 266 0 c 0
 262 0 261 0 261 -22 c 0
 261 -44 261 -45 257 -45 c 0
 253 -45 252 -45 252 -54 c 0
 252 -63 252 -63 248 -63 c 0
 244 -63 243 -63 243 -72 c 0
 243 -81 243 -81 239 -81 c 0
 235 -81 234 -81 234 -85 c 0
 234 -89 234 -90 225 -90 c 0
 216 -90 216 -90 216 -94 c 0
 216 -98 216 -99 207 -99 c 0
 198 -99 198 -99 198 -103 c 0
 198 -107 199 -108 181 -108 c 0x58
 163 -108 163 -108 163 -112 c 0
 163 -116 163 -117 91 -117 c 0x88
 19 -117 19 -116 19 -112 c 0
 19 -108 18 -108 14 -108 c 0
 10 -108 10 -107 10 -49 c 0
 10 9 10 9 41 9 c 0x48
 72 9 73 9 73 13 c 0
 73 17 73 18 86 18 c 0
 99 18 100 18 100 27 c 0
 100 36 100 36 104 36 c 0
 108 36 109 36 109 130 c 0
 109 224 109 224 113 224 c 0
 117 224 118 225 118 238 c 0
 118 251 118 251 122 251 c 0
 126 251 127 252 127 256 c 0
 127 260 127 260 131 260 c 0
 135 260 136 261 136 265 c 0
 136 269 136 269 140 269 c 0
 144 269 145 270 145 274 c 0
 145 278 145 278 149 278 c 0
 153 278 154 279 154 283 c 0
 154 287 154 287 158 287 c 0
 162 287 163 288 163 292 c 0
 163 296 162 296 158 296 c 0
 154 296 154 297 154 301 c 0
 154 305 153 305 149 305 c 0
 145 305 145 306 145 310 c 0
 145 314 144 314 140 314 c 0
 136 314 136 315 136 319 c 0
 136 323 135 323 131 323 c 0
 127 323 127 324 127 328 c 0
 127 332 126 332 122 332 c 0
 118 332 118 333 118 346 c 0
 118 359 117 359 113 359 c 0
 109 359 109 359 109 458 c 0
 109 557 108 556 104 556 c 0
 100 556 100 557 100 561 c 0
 100 565 99 565 95 565 c 0
 91 565 91 566 91 570 c 0
 91 574 91 574 55 574 c 0xa8
 19 574 19 575 19 579 c 0
 19 583 18 583 14 583 c 0
 10 583 10 583 10 637 c 0
 10 691 10 691 14 691 c 0
 18 691 19 692 19 696 c 0x18
EndSplineSet
EndChar

StartChar: asciitilde
Encoding: 126 126 32
Width: 593
Flags: W
HStem: 574 153<332.146 430.766> 583 171<99.4153 134.585 135.415 153 269.197 384.421 395.452 449> 592 171<108.003 134.585 251.291 358.821> 592 153<99.0027 134.585 287 388.738> 601 180<144 188.774 225.559 313.989 440 461.815 462.185 493.972> 610 162<152.901 205.754 208.245 314 462.185 502.781> 619 162<153.066 205.754 208.245 287 467 493.972> 619 72<63.0625 90> 628 162<162.092 268.872> 628 45<54.0625 80.7812> 637 18<54 63> 673 63<512.003 538.371> 691 36<524.815 538.999>
VStem: 90 72<592.003 619.099> 117 36<574.001 601> 126 18<574.001 587.827> 431 72<736 771.966> 440 45<745.062 789.972> 449 27<763.003 789.993> 458 9<781 789.993>
LayerCount: 2
Fore
SplineSet
180 785 m 0x0802
 180 789 180 790 207 790 c 0x0082
 234 790 233 789 233 785 c 0
 233 781 234 781 247 781 c 0x0802
 260 781 260 780 260 776 c 0
 260 772 261 772 274 772 c 0x0402
 287 772 287 771 287 767 c 0
 287 763 288 763 301 763 c 0x2002
 314 763 314 762 314 758 c 0
 314 754 314 754 323 754 c 0x4002
 332 754 332 753 332 749 c 0
 332 745 333 745 346 745 c 0x1002
 359 745 359 744 359 740 c 0
 359 736 360 736 373 736 c 0x0012
 386 736 386 735 386 731 c 0
 386 727 387 727 391 727 c 0x8002
 395 727 395 727 395 731 c 0
 395 735 395 736 408 736 c 0x0012
 421 736 422 736 422 740 c 0
 422 744 422 745 426 745 c 0x1002
 430 745 431 745 431 749 c 0
 431 753 431 754 435 754 c 0x400280
 439 754 440 754 440 763 c 0x200040
 440 772 440 772 444 772 c 0x040040
 448 772 449 772 449 776 c 0
 449 780 449 781 453 781 c 0x080020
 457 781 458 781 458 785 c 0
 458 789 458 790 462 790 c 0x008010
 466 790 467 789 467 785 c 0
 467 781 467 781 471 781 c 0x080010
 475 781 476 780 476 776 c 0
 476 772 476 772 480 772 c 0x040020
 484 772 485 771 485 767 c 0
 485 763 485 763 489 763 c 0x200040
 493 763 494 762 494 758 c 0
 494 754 494 754 498 754 c 0x400040
 502 754 503 753 503 749 c 0
 503 745 503 745 512 745 c 0x100080
 521 745 521 744 521 740 c 0
 521 736 521 736 525 736 c 0x001080
 529 736 530 735 530 731 c 0
 530 727 530 727 534 727 c 0
 538 727 539 727 539 709 c 0
 539 691 538 691 534 691 c 0x000880
 530 691 530 691 530 682 c 0
 530 673 529 673 525 673 c 0
 521 673 521 673 521 664 c 0
 521 655 520 655 516 655 c 0
 512 655 512 655 512 651 c 0
 512 647 511 646 507 646 c 0
 503 646 503 646 503 637 c 0x003080
 503 628 502 628 498 628 c 0x004080
 494 628 494 628 494 624 c 0
 494 620 493 619 489 619 c 0x020080
 485 619 485 619 485 615 c 0
 485 611 484 610 480 610 c 0x040040
 476 610 476 610 476 606 c 0
 476 602 475 601 471 601 c 0x080020
 467 601 467 601 467 597 c 0
 467 593 466 592 462 592 c 0
 458 592 458 592 458 588 c 0x100010
 458 584 458 583 449 583 c 0x400020
 440 583 440 583 440 579 c 0
 440 575 440 574 391 574 c 0x800040
 342 574 341 575 341 579 c 0
 341 583 341 583 328 583 c 0x400040
 315 583 314 584 314 588 c 0
 314 592 314 592 301 592 c 0x200040
 288 592 287 593 287 597 c 0
 287 601 287 601 278 601 c 0x080040
 269 601 269 602 269 606 c 0
 269 610 269 610 260 610 c 0x040040
 251 610 251 611 251 615 c 0
 251 619 251 619 238 619 c 0x020040
 225 619 225 620 225 624 c 0
 225 628 225 628 207 628 c 0x008040
 189 628 189 628 189 624 c 0
 189 620 189 619 180 619 c 0x020040
 171 619 171 619 171 615 c 0
 171 611 170 610 166 610 c 0x040040
 162 610 162 610 162 606 c 0
 162 602 161 601 157 601 c 0x080440
 153 601 153 601 153 592 c 0x1002
 153 583 152 583 148 583 c 0x4002
 144 583 144 583 144 579 c 0
 144 575 144 574 135 574 c 0x8001
 126 574 126 575 126 579 c 0
 126 583 125 583 121 583 c 0x4001
 117 583 117 584 117 588 c 0
 117 592 116 592 112 592 c 0x2002
 108 592 108 593 108 597 c 0
 108 601 108 601 99 601 c 0x0802
 90 601 90 602 90 606 c 0
 90 610 89 610 85 610 c 0x0404
 81 610 81 611 81 615 c 0
 81 619 80 619 76 619 c 0x0104
 72 619 72 620 72 624 c 0
 72 628 71 628 67 628 c 0x0044
 63 628 63 629 63 633 c 0
 63 637 62 637 58 637 c 0
 54 637 54 637 54 646 c 0
 54 655 54 655 58 655 c 0x0024
 62 655 63 655 63 664 c 0
 63 673 63 673 67 673 c 0x0044
 71 673 72 673 72 682 c 0
 72 691 72 691 76 691 c 0x0104
 80 691 81 691 81 700 c 0
 81 709 81 709 85 709 c 0
 89 709 90 709 90 713 c 0
 90 717 90 718 94 718 c 0
 98 718 99 718 99 727 c 0x000c
 99 736 99 736 103 736 c 0x0014
 107 736 108 736 108 740 c 0
 108 744 108 745 112 745 c 0x1004
 116 745 117 745 117 749 c 0
 117 753 117 754 121 754 c 0x4002
 125 754 126 754 126 758 c 0
 126 762 126 763 135 763 c 0x2001
 144 763 144 763 144 767 c 0
 144 771 144 772 148 772 c 0x0401
 152 772 153 772 153 776 c 0
 153 780 153 781 166 781 c 0
 179 781 180 781 180 785 c 0x0802
EndSplineSet
EndChar

StartChar: grave
Encoding: 96 96 33
Width: 335
Flags: W
HStem: 565 63<195.325 237.818> 565 54<204.176 246.943> 619 63<96.8109 139.243>
VStem: 96 108<619 663.585> 105 108<610 654.997> 114 108<601 645.997> 123 108<592 636.997> 132 107<583.028 627.997> 141 107<574.028 618.997>
LayerCount: 2
Fore
SplineSet
60 673 m 0x90
 60 682 60 682 118 682 c 0
 176 682 177 682 177 678 c 0
 177 674 177 673 181 673 c 0
 185 673 186 673 186 664 c 0
 186 655 186 655 190 655 c 0
 194 655 195 655 195 651 c 0
 195 647 195 646 199 646 c 0
 203 646 204 646 204 642 c 0x30
 204 638 204 637 208 637 c 0
 212 637 213 637 213 633 c 0x28
 213 629 213 628 217 628 c 0
 221 628 222 628 222 624 c 0x84
 222 620 222 619 226 619 c 0
 230 619 231 619 231 615 c 0x42
 231 611 231 610 235 610 c 0
 239 610 239 610 239 606 c 0x41
 239 602 240 601 244 601 c 0
 248 601 248 601 248 597 c 0x4080
 248 593 249 592 253 592 c 0
 257 592 257 592 257 588 c 0
 257 584 258 583 262 583 c 0
 266 583 266 583 266 579 c 0
 266 575 267 574 271 574 c 0
 275 574 275 574 275 570 c 0
 275 566 276 565 222 565 c 0x84
 168 565 168 566 168 570 c 0
 168 574 167 574 163 574 c 0
 159 574 159 575 159 579 c 0
 159 583 158 583 154 583 c 0
 150 583 150 584 150 588 c 0
 150 592 149 592 145 592 c 0
 141 592 141 593 141 597 c 0x8080
 141 601 140 601 136 601 c 0
 132 601 132 602 132 606 c 0x81
 132 610 131 610 127 610 c 0
 123 610 123 611 123 615 c 0x82
 123 619 122 619 118 619 c 0
 114 619 114 620 114 624 c 0x24
 114 628 113 628 109 628 c 0
 105 628 105 629 105 633 c 0x88
 105 637 104 637 100 637 c 0
 96 637 96 638 96 642 c 0
 96 646 95 646 91 646 c 0
 87 646 87 647 87 651 c 0
 87 655 86 655 82 655 c 0
 78 655 78 656 78 660 c 0
 78 664 78 664 69 664 c 0
 60 664 60 664 60 673 c 0x90
EndSplineSet
EndChar

StartChar: zero
Encoding: 48 48 34
Width: 521
Flags: W
HStem: 0 179<224.422 295.815> 529 180<217.186 303.633>
VStem: 18 197<188.183 528.528> 27 197<179.629 351.94 366.06 528.957> 242 27<1.52588e-05 8.75085> 296 198<179.682 348.001 366.06 528.957> 305 198<188.259 528.528>
LayerCount: 2
Fore
SplineSet
206 704 m 0xd8
 206 708 206 709 260 709 c 0
 314 709 314 708 314 704 c 0
 314 700 314 700 332 700 c 0
 350 700 350 700 350 696 c 0
 350 692 350 691 359 691 c 0
 368 691 368 691 368 687 c 0
 368 683 368 682 377 682 c 0
 386 682 386 682 386 678 c 0
 386 674 386 673 395 673 c 0
 404 673 404 673 404 669 c 0
 404 665 404 664 408 664 c 0
 412 664 413 664 413 660 c 0
 413 656 413 655 417 655 c 0
 421 655 422 655 422 651 c 0
 422 647 422 646 426 646 c 0
 430 646 431 646 431 642 c 0
 431 638 431 637 435 637 c 0
 439 637 440 637 440 633 c 0
 440 629 440 628 444 628 c 0
 448 628 449 628 449 619 c 0
 449 610 449 610 453 610 c 0
 457 610 458 610 458 606 c 0
 458 602 458 601 462 601 c 0
 466 601 467 601 467 592 c 0
 467 583 467 583 471 583 c 0
 475 583 476 583 476 574 c 0
 476 565 476 565 480 565 c 0
 484 565 485 565 485 547 c 0
 485 529 485 529 489 529 c 0
 493 529 494 529 494 507 c 0xdc
 494 485 494 485 498 485 c 0
 502 485 503 484 503 354 c 0xca
 503 224 502 224 498 224 c 0
 494 224 494 224 494 202 c 0
 494 180 493 179 489 179 c 0
 485 179 485 179 485 166 c 0
 485 153 484 153 480 153 c 0
 476 153 476 153 476 144 c 0
 476 135 475 135 471 135 c 0
 467 135 467 135 467 126 c 0
 467 117 466 117 462 117 c 0
 458 117 458 117 458 108 c 0
 458 99 457 99 453 99 c 0
 449 99 449 98 449 94 c 0
 449 90 448 90 444 90 c 0
 440 90 440 89 440 85 c 0
 440 81 439 81 435 81 c 0
 431 81 431 80 431 76 c 0
 431 72 430 72 426 72 c 0
 422 72 422 71 422 67 c 0
 422 63 421 63 417 63 c 0
 413 63 413 62 413 58 c 0
 413 54 412 54 408 54 c 0
 404 54 404 53 404 49 c 0
 404 45 403 45 399 45 c 0
 395 45 395 44 395 40 c 0
 395 36 395 36 386 36 c 0
 377 36 377 35 377 31 c 0
 377 27 377 27 368 27 c 0
 359 27 359 26 359 22 c 0
 359 18 359 18 346 18 c 0
 333 18 332 17 332 13 c 0
 332 9 332 9 301 9 c 0
 270 9 269 8 269 4 c 0
 269 0 269 0 256 0 c 0
 243 0 242 0 242 4 c 0
 242 8 242 9 215 9 c 0xec
 188 9 189 9 189 13 c 0
 189 17 188 18 175 18 c 0
 162 18 162 18 162 22 c 0
 162 26 162 27 153 27 c 0
 144 27 144 27 144 31 c 0
 144 35 144 36 135 36 c 0
 126 36 126 36 126 40 c 0
 126 44 125 45 121 45 c 0
 117 45 117 45 117 49 c 0
 117 53 116 54 112 54 c 0
 108 54 108 54 108 58 c 0
 108 62 107 63 103 63 c 0
 99 63 99 63 99 67 c 0
 99 71 98 72 94 72 c 0
 90 72 90 72 90 76 c 0
 90 80 89 81 85 81 c 0
 81 81 81 81 81 85 c 0
 81 89 80 90 76 90 c 0
 72 90 72 90 72 94 c 0
 72 98 71 99 67 99 c 0
 63 99 63 99 63 108 c 0
 63 117 62 117 58 117 c 0
 54 117 54 117 54 126 c 0
 54 135 53 135 49 135 c 0
 45 135 45 135 45 144 c 0
 45 153 44 153 40 153 c 0
 36 153 36 153 36 166 c 0
 36 179 35 179 31 179 c 0
 27 179 27 179 27 206 c 0xd8
 27 233 26 233 22 233 c 0
 18 233 18 233 18 359 c 0xe8
 18 485 18 485 22 485 c 0
 26 485 27 485 27 507 c 0
 27 529 27 529 31 529 c 0
 35 529 36 529 36 547 c 0
 36 565 36 565 40 565 c 0
 44 565 45 565 45 574 c 0
 45 583 45 583 49 583 c 0
 53 583 54 583 54 592 c 0
 54 601 54 601 58 601 c 0
 62 601 63 602 63 606 c 0
 63 610 63 610 67 610 c 0
 71 610 72 610 72 619 c 0
 72 628 72 628 76 628 c 0
 80 628 81 629 81 633 c 0
 81 637 81 637 85 637 c 0
 89 637 90 638 90 642 c 0
 90 646 90 646 94 646 c 0
 98 646 99 647 99 651 c 0
 99 655 99 655 103 655 c 0
 107 655 108 656 108 660 c 0
 108 664 108 664 112 664 c 0
 116 664 117 665 117 669 c 0
 117 673 117 673 126 673 c 0
 135 673 135 674 135 678 c 0
 135 682 135 682 144 682 c 0
 153 682 153 683 153 687 c 0
 153 691 153 691 162 691 c 0
 171 691 171 692 171 696 c 0
 171 700 171 700 189 700 c 0
 207 700 206 700 206 704 c 0xd8
287 525 m 0
 287 529 287 529 260 529 c 0
 233 529 233 529 233 525 c 0
 233 521 233 521 229 521 c 0
 225 521 224 520 224 516 c 0xdc
 224 512 224 512 220 512 c 0
 216 512 215 512 215 359 c 0xe8
 215 206 216 206 220 206 c 0
 224 206 224 206 224 197 c 0
 224 188 224 188 233 188 c 0
 242 188 242 188 242 184 c 0
 242 180 242 179 260 179 c 0
 278 179 278 180 278 184 c 0
 278 188 278 188 287 188 c 0
 296 188 296 188 296 197 c 0xdc
 296 206 297 206 301 206 c 0
 305 206 305 206 305 359 c 0xca
 305 512 305 512 301 512 c 0
 297 512 296 512 296 516 c 0
 296 520 296 521 292 521 c 0
 288 521 287 521 287 525 c 0
EndSplineSet
EndChar

StartChar: one
Encoding: 49 49 35
Width: 257
Flags: W
HStem: 671 20G<30 227>
VStem: 30 197<18.4546 691> 30 188<18.2384 374.562>
LayerCount: 2
Fore
SplineSet
30 354 m 1xc0
 30 691 l 1
 129 691 l 1
 227 691 l 1
 227 359 l 2xc0
 227 27 227 27 223 27 c 0
 219 27 218 26 218 22 c 0
 218 18 218 18 124 18 c 2
 30 18 l 1xa0
 30 354 l 1xc0
EndSplineSet
EndChar

StartChar: two
Encoding: 50 50 36
Width: 505
Flags: W
HStem: 18 197<145.703 171.781 378 486> 395 63<189.001 206.789> 413 27<197.966 207> 458 36<477.011 485.999> 512 197<198.415 278.664>
VStem: 10 179<401.8 502.494> 19 179<368.003 425.4 426.601 466.585 467.415 473.923> 55 108<305.028 376.585> 64 90<296.415 358.585> 73 72<296.003 340.585> 100 36<278.001 300.961> 109 18<278.001 292.111>
LayerCount: 2
Fore
SplineSet
189 704 m 0xac
 189 708 189 709 243 709 c 0
 297 709 297 708 297 704 c 0
 297 700 297 700 315 700 c 0
 333 700 333 700 333 696 c 0
 333 692 333 691 342 691 c 0
 351 691 351 691 351 687 c 0
 351 683 351 682 360 682 c 0
 369 682 369 682 369 678 c 0
 369 674 369 673 373 673 c 0
 377 673 378 673 378 669 c 0
 378 665 378 664 387 664 c 0
 396 664 396 664 396 660 c 0
 396 656 396 655 400 655 c 0
 404 655 405 655 405 651 c 0
 405 647 405 646 409 646 c 0
 413 646 414 646 414 642 c 0
 414 638 414 637 418 637 c 0
 422 637 423 637 423 633 c 0
 423 629 423 628 427 628 c 0
 431 628 432 628 432 619 c 0
 432 610 432 610 436 610 c 0
 440 610 441 610 441 606 c 0
 441 602 441 601 445 601 c 0
 449 601 450 601 450 592 c 0
 450 583 450 583 454 583 c 0
 458 583 459 583 459 574 c 0
 459 565 459 565 463 565 c 0
 467 565 468 565 468 552 c 0
 468 539 468 538 472 538 c 0
 476 538 477 538 477 516 c 0
 477 494 477 494 481 494 c 0
 485 494 486 494 486 476 c 0
 486 458 485 458 481 458 c 0xbc
 477 458 477 458 477 431 c 0
 477 404 476 404 472 404 c 0
 468 404 468 404 468 395 c 0
 468 386 467 386 463 386 c 0
 459 386 459 386 459 377 c 0
 459 368 458 368 454 368 c 0
 450 368 450 368 450 359 c 0
 450 350 449 350 445 350 c 0
 441 350 441 350 441 341 c 0
 441 332 440 332 436 332 c 0
 432 332 432 332 432 323 c 0
 432 314 431 314 427 314 c 0
 423 314 423 314 423 305 c 0
 423 296 422 296 418 296 c 0
 414 296 414 296 414 287 c 0
 414 278 413 278 409 278 c 0
 405 278 405 278 405 269 c 0
 405 260 404 260 400 260 c 0
 396 260 396 260 396 251 c 0
 396 242 395 242 391 242 c 0
 387 242 387 242 387 233 c 0
 387 224 386 224 382 224 c 0
 378 224 378 224 378 220 c 0
 378 216 378 215 432 215 c 2
 486 215 l 1
 486 117 l 1
 486 18 l 1
 270 18 l 2
 55 18 55 18 55 27 c 0xc9
 55 36 55 36 59 36 c 0
 63 36 64 36 64 45 c 0xc880
 64 54 64 54 68 54 c 0
 72 54 73 54 73 58 c 0xc840
 73 62 73 63 77 63 c 0
 81 63 82 63 82 72 c 0
 82 81 82 81 86 81 c 0
 90 81 91 81 91 90 c 0
 91 99 91 99 95 99 c 0
 99 99 100 99 100 108 c 0xc820
 100 117 100 117 104 117 c 0
 108 117 109 117 109 126 c 0
 109 135 109 135 113 135 c 0
 117 135 118 135 118 144 c 0
 118 153 118 153 122 153 c 0
 126 153 127 153 127 162 c 0xc810
 127 171 127 171 131 171 c 0
 135 171 136 170 136 179 c 0xc820
 136 188 136 188 140 188 c 0
 144 188 145 189 145 193 c 0xc840
 145 197 145 197 149 197 c 0
 153 197 154 197 154 206 c 0xc880
 154 215 154 215 158 215 c 0
 162 215 163 215 163 224 c 0xc9
 163 233 163 233 167 233 c 0
 171 233 172 233 172 242 c 0
 172 251 172 251 176 251 c 0
 180 251 181 251 181 260 c 0
 181 269 181 269 185 269 c 0
 189 269 189 269 189 278 c 0xcc
 189 287 190 287 194 287 c 0
 198 287 198 287 198 296 c 0
 198 305 199 305 203 305 c 0
 207 305 207 305 207 314 c 0
 207 323 208 323 212 323 c 0
 216 323 216 324 216 328 c 0
 216 332 217 332 221 332 c 0
 225 332 225 332 225 341 c 0
 225 350 226 350 230 350 c 0
 234 350 234 350 234 359 c 0
 234 368 235 368 239 368 c 0
 243 368 243 368 243 377 c 0
 243 386 244 386 248 386 c 0
 252 386 252 386 252 395 c 0xca
 252 404 253 404 257 404 c 0
 261 404 261 404 261 413 c 0
 261 422 262 422 266 422 c 0
 270 422 270 422 270 431 c 0
 270 440 271 440 275 440 c 0
 279 440 279 440 279 449 c 0
 279 458 280 458 284 458 c 0
 288 458 288 458 288 471 c 0
 288 484 288 485 284 485 c 0
 280 485 279 485 279 494 c 0
 279 503 279 503 275 503 c 0
 271 503 270 503 270 507 c 0
 270 511 270 512 243 512 c 0
 216 512 216 511 216 507 c 0
 216 503 216 503 212 503 c 0
 208 503 207 502 207 498 c 0
 207 494 207 494 203 494 c 0
 199 494 198 494 198 485 c 0xba
 198 476 198 476 194 476 c 0
 190 476 189 476 189 467 c 0
 189 458 190 458 194 458 c 0xcc
 198 458 198 458 198 449 c 0
 198 440 199 440 203 440 c 0
 207 440 207 439 207 426 c 0
 207 413 207 413 203 413 c 0
 199 413 198 413 198 404 c 0xaa
 198 395 198 395 194 395 c 0
 190 395 189 394 189 390 c 0xcc
 189 386 189 386 185 386 c 0
 181 386 181 386 181 377 c 0
 181 368 180 368 176 368 c 0
 172 368 172 368 172 359 c 0
 172 350 171 350 167 350 c 0
 163 350 163 350 163 341 c 0xc9
 163 332 162 332 158 332 c 0
 154 332 154 332 154 323 c 0xc880
 154 314 153 314 149 314 c 0
 145 314 145 314 145 310 c 0xc840
 145 306 144 305 140 305 c 0
 136 305 136 305 136 296 c 0xc820
 136 287 135 287 131 287 c 0
 127 287 127 287 127 283 c 0
 127 279 127 278 118 278 c 0
 109 278 109 279 109 283 c 0xc810
 109 287 108 287 104 287 c 0
 100 287 100 288 100 292 c 0xc820
 100 296 100 296 91 296 c 0
 82 296 82 297 82 301 c 0
 82 305 81 305 77 305 c 0
 73 305 73 306 73 310 c 0xc840
 73 314 72 314 68 314 c 0
 64 314 64 314 64 323 c 0xc880
 64 332 63 332 59 332 c 0
 55 332 55 333 55 337 c 0
 55 341 54 341 50 341 c 0
 46 341 46 341 46 350 c 0
 46 359 45 359 41 359 c 0
 37 359 37 359 37 368 c 0
 37 377 36 377 32 377 c 0
 28 377 28 377 28 386 c 0
 28 395 27 395 23 395 c 0xc9
 19 395 19 395 19 413 c 0xaa
 19 431 18 431 14 431 c 0
 10 431 10 431 10 476 c 0xac
 10 521 10 521 14 521 c 0
 18 521 19 521 19 534 c 0xaa
 19 547 19 547 23 547 c 0
 27 547 28 548 28 561 c 0
 28 574 28 574 32 574 c 0
 36 574 37 574 37 583 c 0
 37 592 37 592 41 592 c 0
 45 592 46 593 46 597 c 0
 46 601 46 601 50 601 c 0
 54 601 55 601 55 610 c 0xa9
 55 619 55 619 59 619 c 0
 63 619 64 620 64 624 c 0xa880
 64 628 64 628 68 628 c 0
 72 628 73 629 73 633 c 0xa840
 73 637 73 637 77 637 c 0
 81 637 82 638 82 642 c 0
 82 646 82 646 86 646 c 0
 90 646 91 647 91 651 c 0
 91 655 91 655 95 655 c 0
 99 655 100 656 100 660 c 0xa820
 100 664 100 664 104 664 c 0
 108 664 109 665 109 669 c 0
 109 673 109 673 118 673 c 0
 127 673 127 674 127 678 c 0xa810
 127 682 127 682 136 682 c 0xa820
 145 682 145 683 145 687 c 0xa840
 145 691 145 691 154 691 c 0xa880
 163 691 163 692 163 696 c 0xa9
 163 700 163 700 176 700 c 0
 189 700 189 700 189 704 c 0xac
EndSplineSet
EndChar

StartChar: three
Encoding: 51 51 37
Width: 388
Flags: W
HStem: 0 21G<124.5 137.5> 0 21G<124.5 137.5> 9 179<19.0086 130.4> 368 27<46.0001 55>
VStem: 64 197<422.003 484.803> 118 27<1.52588e-05 8.75085> 172 206<215.41 331.904>
LayerCount: 2
Fore
SplineSet
19 597 m 1x38
 19 691 l 1
 194 691 l 2
 369 691 369 691 369 682 c 0
 369 673 368 673 364 673 c 0
 360 673 360 673 360 664 c 0
 360 655 360 655 356 655 c 0
 352 655 351 655 351 642 c 0
 351 629 351 628 347 628 c 0
 343 628 342 628 342 619 c 0
 342 610 342 610 338 610 c 0
 334 610 333 610 333 601 c 0
 333 592 333 592 329 592 c 0
 325 592 324 592 324 579 c 0
 324 566 324 565 320 565 c 0
 316 565 315 565 315 556 c 0
 315 547 315 547 311 547 c 0
 307 547 306 547 306 538 c 0
 306 529 306 529 302 529 c 0
 298 529 297 529 297 516 c 0
 297 503 297 503 293 503 c 0
 289 503 288 503 288 494 c 0
 288 485 288 485 284 485 c 0
 280 485 279 485 279 476 c 0
 279 467 279 467 275 467 c 0
 271 467 270 467 270 458 c 0
 270 449 270 449 266 449 c 0
 262 449 261 448 261 444 c 0x38
 261 440 262 440 266 440 c 0
 270 440 270 439 270 435 c 0
 270 431 271 431 275 431 c 0
 279 431 279 430 279 426 c 0
 279 422 280 422 284 422 c 0
 288 422 288 421 288 417 c 0
 288 413 289 413 293 413 c 0
 297 413 297 412 297 408 c 0
 297 404 298 404 302 404 c 0
 306 404 306 403 306 399 c 0
 306 395 307 395 311 395 c 0
 315 395 315 394 315 390 c 0
 315 386 316 386 320 386 c 0
 324 386 324 385 324 381 c 0
 324 377 325 377 329 377 c 0
 333 377 333 376 333 372 c 0
 333 368 334 368 338 368 c 0
 342 368 342 368 342 359 c 0
 342 350 343 350 347 350 c 0
 351 350 351 350 351 346 c 0
 351 342 352 341 356 341 c 0
 360 341 360 341 360 328 c 0
 360 315 360 314 364 314 c 0
 368 314 369 314 369 296 c 0
 369 278 369 278 373 278 c 0
 377 278 378 278 378 238 c 0x32
 378 198 377 197 373 197 c 0
 369 197 369 197 369 179 c 0
 369 161 368 162 364 162 c 0
 360 162 360 162 360 153 c 0
 360 144 360 144 356 144 c 0
 352 144 351 144 351 135 c 0
 351 126 351 126 347 126 c 0
 343 126 342 126 342 117 c 0
 342 108 342 108 338 108 c 0
 334 108 333 107 333 103 c 0
 333 99 333 99 329 99 c 0
 325 99 324 98 324 94 c 0
 324 90 324 90 320 90 c 0
 316 90 315 89 315 85 c 0
 315 81 315 81 311 81 c 0
 307 81 306 80 306 76 c 0
 306 72 306 72 302 72 c 0
 298 72 297 71 297 67 c 0
 297 63 297 63 293 63 c 0
 289 63 288 62 288 58 c 0
 288 54 288 54 284 54 c 0
 280 54 279 53 279 49 c 0
 279 45 279 45 270 45 c 0
 261 45 261 44 261 40 c 0x38
 261 36 261 36 257 36 c 0
 253 36 252 35 252 31 c 0
 252 27 252 27 239 27 c 0
 226 27 225 26 225 22 c 0
 225 18 225 18 212 18 c 0
 199 18 198 17 198 13 c 0
 198 9 199 9 172 9 c 0x32
 145 9 145 8 145 4 c 0
 145 0 144 0 131 0 c 0x96
 118 0 118 0 118 4 c 0
 118 8 117 9 86 9 c 0
 55 9 55 9 55 13 c 0
 55 17 55 18 37 18 c 0
 19 18 19 18 19 22 c 0
 19 26 18 27 14 27 c 0
 10 27 10 27 10 121 c 0
 10 215 10 215 14 215 c 0
 18 215 19 215 19 211 c 0
 19 207 19 206 28 206 c 0
 37 206 37 206 37 202 c 0
 37 198 37 197 55 197 c 0
 73 197 73 197 73 193 c 0
 73 189 73 188 91 188 c 0
 109 188 109 189 109 193 c 0
 109 197 109 197 118 197 c 0
 127 197 127 198 127 202 c 0
 127 206 127 206 136 206 c 0
 145 206 145 207 145 211 c 0
 145 215 145 215 149 215 c 0
 153 215 154 215 154 224 c 0
 154 233 154 233 158 233 c 0
 162 233 163 234 163 247 c 0
 163 260 163 260 167 260 c 0
 171 260 172 260 172 278 c 0
 172 296 171 296 167 296 c 0
 163 296 163 296 163 305 c 0
 163 314 162 314 158 314 c 0
 154 314 154 314 154 323 c 0
 154 332 153 332 149 332 c 0
 145 332 145 333 145 337 c 0
 145 341 145 341 136 341 c 0
 127 341 127 342 127 346 c 0
 127 350 126 350 122 350 c 0
 118 350 118 350 118 354 c 0x36
 118 358 117 359 104 359 c 0
 91 359 91 359 91 363 c 0
 91 367 90 368 68 368 c 0
 46 368 46 368 46 381 c 0
 46 394 46 395 50 395 c 0
 54 395 55 395 55 408 c 0
 55 421 55 422 59 422 c 0
 63 422 64 422 64 435 c 0
 64 448 64 449 68 449 c 0
 72 449 73 449 73 458 c 0
 73 467 73 467 77 467 c 0
 81 467 82 467 82 480 c 0
 82 493 82 494 86 494 c 0
 90 494 91 494 91 498 c 0
 91 502 91 503 55 503 c 2
 19 503 l 1
 19 597 l 1x38
EndSplineSet
EndChar

StartChar: four
Encoding: 52 52 38
Width: 534
Flags: W
HStem: 671 20G<282 504>
VStem: 91 161<377.415 457.709> 100 161<386.007 475.992> 109 161<404.012 493.993> 315 189<18 520.998>
LayerCount: 2
Fore
SplineSet
207 687 m 0x98
 207 691 208 691 356 691 c 2
 504 691 l 1
 504 354 l 1
 504 18 l 1
 409 18 l 1
 315 18 l 1
 315 269 l 2
 315 520 315 521 311 521 c 0
 307 521 306 520 306 516 c 0
 306 512 306 512 302 512 c 0
 298 512 297 512 297 503 c 0
 297 494 297 494 293 494 c 0
 289 494 288 494 288 485 c 0
 288 476 288 476 284 476 c 0
 280 476 279 476 279 467 c 0
 279 458 279 458 275 458 c 0
 271 458 270 458 270 449 c 0x98
 270 440 270 440 266 440 c 0
 262 440 261 440 261 431 c 0xa8
 261 422 261 422 257 422 c 0
 253 422 252 422 252 413 c 0
 252 404 252 404 248 404 c 0
 244 404 243 404 243 395 c 0
 243 386 243 386 239 386 c 0
 235 386 234 386 234 377 c 0
 234 368 234 368 252 368 c 0xc8
 270 368 270 368 270 296 c 2
 270 224 l 1x98
 140 224 l 2
 10 224 10 224 10 233 c 0
 10 242 10 242 14 242 c 0
 18 242 19 242 19 251 c 0
 19 260 19 260 23 260 c 0
 27 260 28 260 28 269 c 0
 28 278 28 278 32 278 c 0
 36 278 37 279 37 292 c 0
 37 305 37 305 41 305 c 0
 45 305 46 305 46 314 c 0
 46 323 46 323 50 323 c 0
 54 323 55 323 55 332 c 0
 55 341 55 341 59 341 c 0
 63 341 64 341 64 354 c 0
 64 367 64 368 68 368 c 0
 72 368 73 368 73 377 c 0
 73 386 73 386 77 386 c 0
 81 386 82 386 82 395 c 0
 82 404 82 404 86 404 c 0
 90 404 91 404 91 417 c 0xc8
 91 430 91 431 95 431 c 0
 99 431 100 431 100 440 c 0xa8
 100 449 100 449 104 449 c 0
 108 449 109 449 109 462 c 0
 109 475 109 476 113 476 c 0
 117 476 118 476 118 485 c 0
 118 494 118 494 122 494 c 0
 126 494 127 494 127 503 c 0
 127 512 127 512 131 512 c 0
 135 512 136 512 136 525 c 0
 136 538 136 538 140 538 c 0
 144 538 145 538 145 547 c 0
 145 556 145 556 149 556 c 0
 153 556 154 556 154 565 c 0
 154 574 154 574 158 574 c 0
 162 574 163 575 163 588 c 0
 163 601 163 601 167 601 c 0
 171 601 172 601 172 610 c 0
 172 619 172 619 176 619 c 0
 180 619 181 619 181 628 c 0
 181 637 181 637 185 637 c 0
 189 637 189 638 189 651 c 0
 189 664 190 664 194 664 c 0
 198 664 198 664 198 673 c 0
 198 682 199 682 203 682 c 0
 207 682 207 683 207 687 c 0x98
EndSplineSet
EndChar

StartChar: five
Encoding: 53 53 39
Width: 424
Flags: W
HStem: 0 21G<145 163> 0 21G<145 163> 9 170<28.1839 153.169> 18 170<14.1853 111.569> 350 36<10.0002 18.9807> 503 188<219.285 396>
VStem: 46 350<503.024 646> 64 332<512.018 686.749> 136 36<1.52588e-05 8.90122> 207 207<206.492 313.936>
LayerCount: 2
Fore
SplineSet
73 669 m 0x1d
 73 691 72 691 234 691 c 2
 396 691 l 1x1d
 396 597 l 1x1e
 396 503 l 1
 311 503 l 2
 226 503 225 503 225 494 c 0
 225 485 225 485 221 485 c 0
 217 485 216 484 216 480 c 0
 216 476 217 476 221 476 c 0
 225 476 225 475 225 471 c 0
 225 467 225 467 234 467 c 0
 243 467 243 466 243 462 c 0
 243 458 244 458 257 458 c 0
 270 458 270 457 270 453 c 0
 270 449 270 449 279 449 c 0
 288 449 288 448 288 444 c 0
 288 440 288 440 297 440 c 0
 306 440 306 439 306 435 c 0
 306 431 307 431 311 431 c 0
 315 431 315 430 315 426 c 0
 315 422 315 422 324 422 c 0
 333 422 333 421 333 417 c 0
 333 413 334 413 338 413 c 0
 342 413 342 412 342 408 c 0
 342 404 343 404 347 404 c 0
 351 404 351 403 351 399 c 0
 351 395 352 395 356 395 c 0
 360 395 360 394 360 390 c 0
 360 386 360 386 364 386 c 0
 368 386 369 386 369 377 c 0
 369 368 369 368 373 368 c 0
 377 368 378 367 378 363 c 0
 378 359 378 359 382 359 c 0
 386 359 387 359 387 350 c 0
 387 341 387 341 391 341 c 0
 395 341 396 341 396 328 c 0x1d
 396 315 396 314 400 314 c 0
 404 314 405 314 405 296 c 0
 405 278 405 278 409 278 c 0
 413 278 414 278 414 233 c 0x1c40
 414 188 413 188 409 188 c 0
 405 188 405 188 405 175 c 0
 405 162 404 162 400 162 c 0
 396 162 396 161 396 148 c 0
 396 135 395 135 391 135 c 0
 387 135 387 135 387 126 c 0
 387 117 386 117 382 117 c 0
 378 117 378 116 378 112 c 0
 378 108 377 108 373 108 c 0
 369 108 369 107 369 103 c 0
 369 99 368 99 364 99 c 0
 360 99 360 99 360 90 c 0
 360 81 360 81 356 81 c 0
 352 81 351 80 351 76 c 0
 351 72 351 72 342 72 c 0
 333 72 333 71 333 67 c 0
 333 63 333 63 329 63 c 0
 325 63 324 62 324 58 c 0
 324 54 324 54 320 54 c 0
 316 54 315 53 315 49 c 0
 315 45 315 45 306 45 c 0
 297 45 297 44 297 40 c 0
 297 36 297 36 288 36 c 0
 279 36 279 35 279 31 c 0
 279 27 279 27 270 27 c 0
 261 27 261 26 261 22 c 0
 261 18 261 18 248 18 c 0x1d
 235 18 234 17 234 13 c 0
 234 9 234 9 203 9 c 0x2d
 172 9 172 8 172 4 c 0
 172 0 172 0 154 0 c 0x8c80
 136 0 136 0 136 4 c 0
 136 8 136 9 109 9 c 0x2c80
 82 9 82 9 82 13 c 0
 82 17 81 18 68 18 c 0
 55 18 55 18 55 22 c 0
 55 26 54 27 41 27 c 0
 28 27 28 27 28 31 c 0
 28 35 28 36 19 36 c 0
 10 36 10 36 10 121 c 0
 10 206 10 206 14 206 c 0
 18 206 19 206 19 202 c 0
 19 198 19 197 32 197 c 0
 45 197 46 197 46 193 c 0x1e
 46 189 46 188 64 188 c 0x1d
 82 188 82 188 82 184 c 0
 82 180 82 179 113 179 c 0x2d
 144 179 145 180 145 184 c 0
 145 188 145 188 158 188 c 0
 171 188 172 189 172 193 c 0
 172 197 172 197 176 197 c 0
 180 197 181 198 181 202 c 0
 181 206 181 206 185 206 c 0
 189 206 189 207 189 211 c 0
 189 215 190 215 194 215 c 0
 198 215 198 216 198 220 c 0
 198 224 199 224 203 224 c 0
 207 224 207 225 207 256 c 0
 207 287 207 287 203 287 c 0
 199 287 198 288 198 292 c 0
 198 296 198 296 194 296 c 0
 190 296 189 296 189 305 c 0
 189 314 190 314 181 314 c 0
 172 314 172 315 172 319 c 0x1cc0
 172 323 171 323 167 323 c 0
 163 323 163 324 163 328 c 0
 163 332 163 332 154 332 c 0
 145 332 145 333 145 337 c 0
 145 341 144 341 131 341 c 0
 118 341 118 342 118 346 c 0
 118 350 118 350 64 350 c 0x1d
 10 350 10 350 10 368 c 0
 10 386 10 386 14 386 c 0
 18 386 19 386 19 408 c 0
 19 430 19 431 23 431 c 0
 27 431 28 431 28 449 c 0
 28 467 28 467 32 467 c 0
 36 467 37 467 37 489 c 0
 37 511 37 512 41 512 c 0
 45 512 46 512 46 534 c 0x1e
 46 556 46 556 50 556 c 0
 54 556 55 557 55 579 c 0
 55 601 55 601 59 601 c 0
 63 601 64 602 64 624 c 0
 64 646 64 646 68 646 c 0
 72 646 73 647 73 669 c 0x1d
EndSplineSet
EndChar

StartChar: six
Encoding: 54 54 40
Width: 531
Flags: W
HStem: 0 187<216.187 311.026> 4 191<205.401 262.677 263.324 321.712> 316 4<245 248.979> 595 59<307.952 322.363> 617 33<318.75 329.999> 639 8<329.815 333>
VStem: 10 187<205.974 315.797> 14 198<193.001 244.477 247.523 249.308 250.691 363.999> 21 195<247.523 249.308 250.691 372.998> 25 198<270.002 394.998> 36 202<312.001 431.998> 36 198<303.002 425.999> 43 202<332.002 451.999> 58 198<369.002 486.998> 65 198<391.002 502.98> 76 198<421.002 532.943> 87 199<452.001 572.999> 91 198<461.002 579.999> 98 199<483.002 603.998> 102 198<492.001 611.998> 109 199<514.192 633.998> 120 199<543.938 642.815 643.185 657.728> 153 30<694.062 704.816> 157 4<705.021 709> 311 74<463.274 488.732> 315 55<476.001 492> 319 29<496 503> 322 11<502.994 506.925> 326 195<200.001 302.999>
LayerCount: 2
Fore
SplineSet
157 705 m 0x280001
 157 709 157 709 159 709 c 0
 161 709 161 709 161 707 c 0x280001
 161 705 160 705 166 705 c 0
 172 705 172 705 172 703 c 0
 172 701 171 702 177 702 c 0
 183 702 183 702 183 700 c 0x280002
 183 698 182 698 188 698 c 0
 194 698 194 698 194 696 c 0
 194 694 193 694 199 694 c 0
 205 694 205 694 205 692 c 0
 205 690 204 691 208 691 c 0
 212 691 212 691 212 689 c 0x29
 212 687 212 687 218 687 c 0
 224 687 223 687 223 685 c 0x2840
 223 683 223 683 229 683 c 0
 235 683 234 683 234 681 c 0x2810
 234 679 234 680 240 680 c 0
 246 680 245 680 245 678 c 0x2808
 245 676 245 676 251 676 c 0
 257 676 256 676 256 674 c 0x2804
 256 672 256 672 260 672 c 0
 264 672 263 672 263 670 c 0x2802
 263 668 263 669 269 669 c 0
 275 669 274 669 274 667 c 0x2801
 274 665 274 665 280 665 c 0
 286 665 286 665 286 663 c 0x280080
 286 661 285 661 291 661 c 0
 297 661 297 661 297 659 c 0x280020
 297 657 296 658 302 658 c 0
 308 658 308 658 308 656 c 0
 308 654 307 654 313 654 c 0x300008
 319 654 319 654 319 652 c 0
 319 650 318 650 322 650 c 0x28000410
 326 650 326 650 326 648 c 0x28000008
 326 646 326 647 330 647 c 0
 334 647 333 647 333 643 c 0x24000010
 333 639 333 639 331 639 c 0
 329 639 330 640 330 634 c 0
 330 628 330 628 328 628 c 0
 326 628 326 629 326 623 c 0x24000008
 326 617 326 617 324 617 c 0
 322 617 322 618 322 612 c 0
 322 606 322 606 320 606 c 0
 318 606 319 607 319 601 c 0x28000410
 319 595 319 595 317 595 c 0
 315 595 315 596 315 590 c 0x30000040
 315 584 315 584 313 584 c 0
 311 584 311 584 311 580 c 0
 311 576 311 577 309 577 c 0
 307 577 308 577 308 571 c 0x30000880
 308 565 308 566 306 566 c 0
 304 566 304 566 304 560 c 0
 304 554 304 555 302 555 c 0
 300 555 300 555 300 549 c 0x300010
 300 543 300 544 298 544 c 0
 296 544 297 544 297 538 c 0x300020
 297 532 297 533 295 533 c 0
 293 533 293 533 293 529 c 0
 293 525 293 525 291 525 c 0
 289 525 289 526 289 520 c 0x300040
 289 514 289 514 287 514 c 0
 285 514 286 515 286 509 c 0x300080
 286 503 286 503 284 503 c 0
 282 503 282 504 282 498 c 0
 282 492 282 492 280 492 c 0
 278 492 278 493 278 487 c 0
 278 481 278 481 276 481 c 0
 274 481 274 482 274 478 c 0x3001
 274 474 275 474 273 474 c 0
 271 474 271 474 271 468 c 0
 271 462 271 463 269 463 c 0
 267 463 267 463 267 457 c 0
 267 451 267 452 265 452 c 0
 263 452 263 452 263 446 c 0x3002
 263 440 264 441 262 441 c 0
 260 441 260 441 260 435 c 0
 260 429 260 430 258 430 c 0
 256 430 256 430 256 426 c 0x3004
 256 422 256 422 254 422 c 0
 252 422 252 423 252 417 c 0
 252 411 253 411 251 411 c 0
 249 411 249 412 249 406 c 0
 249 400 249 400 247 400 c 0
 245 400 245 401 245 395 c 0x3008
 245 389 245 389 243 389 c 0
 241 389 241 390 241 384 c 0
 241 378 242 378 240 378 c 0
 238 378 238 379 238 373 c 0x3020
 238 367 238 367 236 367 c 0
 234 367 234 368 234 364 c 0x3010
 234 360 234 360 232 360 c 0
 230 360 230 360 230 354 c 0
 230 348 231 349 229 349 c 0
 227 349 227 349 227 343 c 0
 227 337 227 338 225 338 c 0
 223 338 223 338 223 332 c 0x3040
 223 326 223 327 221 327 c 0
 219 327 219 327 219 321 c 0
 219 315 220 316 218 316 c 0
 216 316 216 316 216 312 c 0x3080
 216 308 216 309 214 309 c 0
 212 309 212 309 212 303 c 0x31
 212 297 212 298 210 298 c 0
 208 298 208 298 208 292 c 0
 208 286 209 287 207 287 c 0
 205 287 205 287 205 281 c 0
 205 275 205 276 203 276 c 0
 201 276 201 276 201 270 c 0
 201 264 201 264 199 264 c 0
 197 264 197 265 197 250 c 0x32
 197 235 197 235 199 235 c 0
 201 235 201 236 201 230 c 0
 201 224 201 224 203 224 c 0
 205 224 205 224 205 220 c 0
 205 216 205 217 207 217 c 0
 209 217 208 217 208 215 c 0
 208 213 208 213 210 213 c 0
 212 213 212 213 212 211 c 0x31
 212 209 212 209 214 209 c 0
 216 209 216 210 216 208 c 0x3080
 216 206 216 206 218 206 c 0
 220 206 219 206 219 204 c 0
 219 202 219 202 221 202 c 0
 223 202 223 202 223 200 c 0x3040
 223 198 223 198 225 198 c 0
 227 198 227 199 227 197 c 0
 227 195 226 195 230 195 c 0
 234 195 234 195 234 193 c 0x7010
 234 191 234 191 238 191 c 0x7020
 242 191 241 191 241 189 c 0
 241 187 242 187 249 187 c 0
 256 187 256 188 256 186 c 0xa004
 256 184 256 184 263 184 c 0xa002
 270 184 271 184 271 186 c 0
 271 188 271 187 278 187 c 0
 285 187 286 187 286 189 c 0xa00080
 286 191 285 191 291 191 c 0
 297 191 297 191 297 193 c 0xa00020
 297 195 296 195 298 195 c 0
 300 195 300 195 300 197 c 0x600010
 300 199 300 198 302 198 c 0
 304 198 304 198 304 200 c 0
 304 202 304 202 306 202 c 0
 308 202 308 202 308 204 c 0
 308 206 307 206 309 206 c 0
 311 206 311 206 311 208 c 0x60000880
 311 210 311 209 313 209 c 0
 315 209 315 209 315 211 c 0x60000040
 315 213 315 213 317 213 c 0
 319 213 319 213 319 215 c 0x60000020
 319 217 318 217 320 217 c 0
 322 217 322 216 322 220 c 0x60000010
 322 224 322 224 324 224 c 0
 326 224 326 224 326 231 c 0
 326 238 326 239 328 239 c 0
 330 239 330 239 330 252 c 0
 330 265 330 264 328 264 c 0
 326 264 326 264 326 270 c 0x60000008
 326 276 326 276 324 276 c 0
 322 276 322 275 322 279 c 0x60000010
 322 283 322 283 320 283 c 0
 318 283 319 283 319 287 c 0x60000020
 319 291 319 290 317 290 c 0
 315 290 315 290 315 292 c 0x60000040
 315 294 315 294 313 294 c 0
 311 294 311 294 311 296 c 0
 311 298 311 298 309 298 c 0
 307 298 308 297 308 299 c 0x60000880
 308 301 308 301 306 301 c 0
 304 301 304 301 304 303 c 0
 304 305 304 305 302 305 c 0
 300 305 300 305 300 307 c 0x600010
 300 309 301 309 297 309 c 0x600020
 293 309 293 308 293 310 c 0
 293 312 293 312 289 312 c 0x600040
 285 312 286 312 286 314 c 0x600080
 286 316 285 316 265 316 c 0
 245 316 245 316 245 318 c 0x6008
 245 320 245 320 247 320 c 0
 249 320 249 319 249 325 c 0
 249 331 249 331 251 331 c 0
 253 331 252 330 252 334 c 0
 252 338 252 338 254 338 c 0
 256 338 256 337 256 343 c 0x6004
 256 349 256 349 258 349 c 0
 260 349 260 349 260 353 c 0
 260 357 260 356 262 356 c 0
 264 356 263 356 263 360 c 0x6002
 263 364 263 364 265 364 c 0
 267 364 267 363 267 369 c 0
 267 375 267 375 269 375 c 0
 271 375 271 374 271 378 c 0
 271 382 271 382 273 382 c 0
 275 382 274 382 274 388 c 0x6001
 274 394 274 393 276 393 c 0
 278 393 278 393 278 397 c 0
 278 401 278 400 280 400 c 0
 282 400 282 400 282 404 c 0
 282 408 282 408 284 408 c 0
 286 408 286 407 286 413 c 0x600080
 286 419 285 419 287 419 c 0
 289 419 289 418 289 422 c 0x600040
 289 426 289 426 291 426 c 0
 293 426 293 426 293 432 c 0
 293 438 293 437 295 437 c 0
 297 437 297 437 297 441 c 0x600020
 297 445 296 445 298 445 c 0
 300 445 300 444 300 448 c 0x600010
 300 452 300 452 302 452 c 0
 304 452 304 451 304 457 c 0
 304 463 304 463 306 463 c 0
 308 463 308 463 308 467 c 0
 308 471 307 470 309 470 c 0
 311 470 311 470 311 476 c 0x60000880
 311 482 311 481 313 481 c 0
 315 481 315 481 315 485 c 0x60000040
 315 489 315 489 317 489 c 0
 319 489 319 488 319 494 c 0x60000020
 319 500 318 500 320 500 c 0
 322 500 322 499 322 503 c 0
 322 507 322 507 328 507 c 0
 334 507 333 507 333 505 c 0x60000010
 333 503 333 503 337 503 c 0
 341 503 341 503 341 501 c 0
 341 499 340 500 344 500 c 0
 348 500 348 500 348 498 c 0x60000020
 348 496 348 496 352 496 c 0
 356 496 355 496 355 494 c 0
 355 492 355 492 359 492 c 0
 363 492 363 492 363 490 c 0
 363 488 362 489 366 489 c 0
 370 489 370 489 370 487 c 0x60000040
 370 485 370 485 374 485 c 0
 378 485 377 485 377 483 c 0
 377 481 377 481 381 481 c 0
 385 481 385 481 385 479 c 0x60000080
 385 477 384 478 388 478 c 0
 392 478 392 478 392 476 c 0
 392 474 392 474 394 474 c 0
 396 474 396 474 396 472 c 0
 396 470 395 470 399 470 c 0
 403 470 403 470 403 468 c 0
 403 466 403 467 405 467 c 0
 407 467 407 467 407 465 c 0
 407 463 406 463 410 463 c 0
 414 463 414 463 414 461 c 0
 414 459 414 459 416 459 c 0
 418 459 418 459 418 457 c 0
 418 455 417 456 421 456 c 0
 425 456 425 456 425 454 c 0
 425 452 425 452 427 452 c 0
 429 452 429 452 429 450 c 0
 429 448 429 448 431 448 c 0
 433 448 432 448 432 446 c 0
 432 444 432 445 434 445 c 0
 436 445 436 445 436 443 c 0
 436 441 436 441 440 441 c 0
 444 441 443 441 443 439 c 0
 443 437 443 437 445 437 c 0
 447 437 447 437 447 435 c 0
 447 433 447 433 449 433 c 0
 451 433 451 434 451 432 c 0
 451 430 451 430 453 430 c 0
 455 430 455 430 455 428 c 0
 455 426 454 426 456 426 c 0
 458 426 458 426 458 424 c 0
 458 422 458 422 460 422 c 0
 462 422 462 423 462 421 c 0
 462 419 462 419 464 419 c 0
 466 419 466 419 466 417 c 0
 466 415 465 415 467 415 c 0
 469 415 469 415 469 413 c 0
 469 411 469 411 471 411 c 0
 473 411 473 412 473 408 c 0
 473 404 473 404 475 404 c 0
 477 404 477 404 477 402 c 0
 477 400 476 400 478 400 c 0
 480 400 480 401 480 399 c 0
 480 397 480 397 482 397 c 0
 484 397 484 397 484 393 c 0
 484 389 484 389 486 389 c 0
 488 389 488 390 488 386 c 0
 488 382 487 382 489 382 c 0
 491 382 491 382 491 380 c 0
 491 378 491 378 493 378 c 0
 495 378 495 379 495 375 c 0
 495 371 495 371 497 371 c 0
 499 371 499 371 499 367 c 0
 499 363 498 364 500 364 c 0
 502 364 502 364 502 358 c 0
 502 352 502 353 504 353 c 0
 506 353 506 353 506 349 c 0
 506 345 506 345 508 345 c 0
 510 345 510 345 510 338 c 0
 510 331 509 331 511 331 c 0
 513 331 513 330 513 323 c 0
 513 316 513 316 515 316 c 0
 517 316 517 316 517 305 c 0
 517 294 517 294 519 294 c 0
 521 294 521 294 521 259 c 0x60000008
 521 224 521 224 519 224 c 0
 517 224 517 224 517 211 c 0
 517 198 517 198 515 198 c 0
 513 198 513 198 513 191 c 0
 513 184 513 184 511 184 c 0
 509 184 510 184 510 178 c 0
 510 172 510 173 508 173 c 0
 506 173 506 173 506 167 c 0
 506 161 506 162 504 162 c 0
 502 162 502 162 502 158 c 0
 502 154 502 154 500 154 c 0
 498 154 499 155 499 149 c 0
 499 143 499 143 497 143 c 0
 495 143 495 144 495 140 c 0
 495 136 495 136 493 136 c 0
 491 136 491 136 491 134 c 0
 491 132 491 132 489 132 c 0
 487 132 488 133 488 129 c 0
 488 125 488 125 486 125 c 0
 484 125 484 125 484 121 c 0
 484 117 484 118 482 118 c 0
 480 118 480 118 480 116 c 0
 480 114 480 114 478 114 c 0
 476 114 477 114 477 110 c 0
 477 106 477 107 475 107 c 0
 473 107 473 107 473 105 c 0
 473 103 473 103 471 103 c 0
 469 103 469 103 469 101 c 0
 469 99 469 99 467 99 c 0
 465 99 466 100 466 96 c 0
 466 92 466 92 464 92 c 0
 462 92 462 92 462 90 c 0
 462 88 462 88 460 88 c 0
 458 88 458 88 458 86 c 0
 458 84 458 84 456 84 c 0
 454 84 455 85 455 83 c 0
 455 81 455 81 453 81 c 0
 451 81 451 81 451 79 c 0
 451 77 451 77 449 77 c 0
 447 77 447 77 447 75 c 0
 447 73 447 73 445 73 c 0
 443 73 443 74 443 72 c 0
 443 70 444 70 442 70 c 0
 440 70 440 70 440 68 c 0
 440 66 440 66 438 66 c 0
 436 66 436 66 436 64 c 0
 436 62 436 62 434 62 c 0
 432 62 432 63 432 61 c 0
 432 59 433 59 431 59 c 0
 429 59 429 59 429 57 c 0
 429 55 429 55 425 55 c 0
 421 55 421 55 421 53 c 0
 421 51 422 51 420 51 c 0
 418 51 418 52 418 50 c 0
 418 48 418 48 416 48 c 0
 414 48 414 48 414 46 c 0
 414 44 414 44 410 44 c 0
 406 44 407 44 407 42 c 0
 407 40 407 40 405 40 c 0
 403 40 403 41 403 39 c 0
 403 37 403 37 399 37 c 0
 395 37 396 37 396 35 c 0
 396 33 396 33 394 33 c 0
 392 33 392 33 392 31 c 0
 392 29 392 29 388 29 c 0
 384 29 385 30 385 28 c 0x60000080
 385 26 385 26 381 26 c 0
 377 26 377 26 377 24 c 0
 377 22 378 22 374 22 c 0
 370 22 370 22 370 20 c 0x60000040
 370 18 370 18 364 18 c 0
 358 18 359 19 359 17 c 0
 359 15 359 15 353 15 c 0
 347 15 348 15 348 13 c 0x60000020
 348 11 348 11 342 11 c 0
 336 11 337 11 337 9 c 0
 337 7 337 7 330 7 c 0
 323 7 322 8 322 6 c 0x60000010
 322 4 322 4 311 4 c 0x60000080
 300 4 300 4 300 2 c 0
 300 0 300 0 265 0 c 0xa0001080
 230 0 230 0 230 2 c 0
 230 4 230 4 219 4 c 0
 208 4 208 4 208 6 c 0
 208 8 208 7 201 7 c 0
 194 7 194 7 194 9 c 0
 194 11 194 11 188 11 c 0
 182 11 183 11 183 13 c 0x600002
 183 15 183 15 177 15 c 0
 171 15 172 15 172 17 c 0
 172 19 172 18 168 18 c 0
 164 18 164 18 164 20 c 0
 164 22 165 22 161 22 c 0
 157 22 157 22 157 24 c 0x600001
 157 26 157 26 153 26 c 0x600002
 149 26 150 26 150 28 c 0
 150 30 150 29 146 29 c 0
 142 29 142 29 142 31 c 0
 142 33 143 33 139 33 c 0
 135 33 135 33 135 35 c 0
 135 37 135 37 133 37 c 0
 131 37 131 37 131 39 c 0
 131 41 132 40 128 40 c 0
 124 40 124 40 124 42 c 0
 124 44 124 44 122 44 c 0
 120 44 120 44 120 46 c 0x600004
 120 48 121 48 117 48 c 0
 113 48 113 48 113 50 c 0
 113 52 113 51 111 51 c 0
 109 51 109 51 109 53 c 0x600008
 109 55 109 55 107 55 c 0
 105 55 106 55 106 57 c 0
 106 59 106 59 104 59 c 0
 102 59 102 59 102 61 c 0x600010
 102 63 102 62 100 62 c 0
 98 62 98 62 98 64 c 0x600020
 98 66 98 66 94 66 c 0
 90 66 91 66 91 68 c 0x600040
 91 70 91 70 89 70 c 0
 87 70 87 70 87 72 c 0x600080
 87 74 87 73 85 73 c 0
 83 73 83 73 83 75 c 0
 83 77 84 77 82 77 c 0
 80 77 80 77 80 79 c 0
 80 81 80 81 78 81 c 0
 76 81 76 81 76 83 c 0x6001
 76 85 76 84 74 84 c 0
 72 84 72 84 72 88 c 0
 72 92 73 92 71 92 c 0
 69 92 69 92 69 94 c 0
 69 96 69 96 67 96 c 0
 65 96 65 95 65 97 c 0x6002
 65 99 65 99 63 99 c 0
 61 99 61 99 61 101 c 0
 61 103 62 103 60 103 c 0
 58 103 58 103 58 107 c 0x6004
 58 111 58 110 56 110 c 0
 54 110 54 110 54 112 c 0
 54 114 54 114 52 114 c 0
 50 114 50 114 50 116 c 0
 50 118 51 118 49 118 c 0
 47 118 47 117 47 121 c 0
 47 125 47 125 45 125 c 0
 43 125 43 125 43 129 c 0x6008
 43 133 43 132 41 132 c 0
 39 132 39 132 39 134 c 0
 39 136 40 136 38 136 c 0
 36 136 36 136 36 140 c 0x6010
 36 144 36 143 34 143 c 0
 32 143 32 143 32 147 c 0
 32 151 32 151 30 151 c 0
 28 151 28 150 28 156 c 0
 28 162 29 162 27 162 c 0
 25 162 25 161 25 165 c 0x6040
 25 169 25 169 23 169 c 0
 21 169 21 168 21 174 c 0
 21 180 21 180 19 180 c 0
 17 180 17 180 17 187 c 0xa080
 17 194 18 195 16 195 c 0
 14 195 14 195 14 204 c 0x61
 14 213 14 213 12 213 c 0
 10 213 10 213 10 246 c 0x62
 10 279 10 279 12 279 c 0
 14 279 14 279 14 288 c 0x61
 14 297 14 298 16 298 c 0
 18 298 17 298 17 305 c 0
 17 312 17 312 19 312 c 0
 21 312 21 313 21 320 c 0x6080
 21 327 21 327 23 327 c 0
 25 327 25 327 25 334 c 0x6040
 25 341 25 342 27 342 c 0
 29 342 28 341 28 347 c 0
 28 353 28 353 30 353 c 0
 32 353 32 352 32 358 c 0
 32 364 32 364 34 364 c 0
 36 364 36 363 36 369 c 0x6020
 36 375 36 375 38 375 c 0
 40 375 39 374 39 380 c 0
 39 386 39 386 41 386 c 0
 43 386 43 385 43 391 c 0x6008
 43 397 43 397 45 397 c 0
 47 397 47 396 47 402 c 0
 47 408 47 408 49 408 c 0
 51 408 50 407 50 411 c 0
 50 415 50 415 52 415 c 0
 54 415 54 415 54 421 c 0
 54 427 54 426 56 426 c 0
 58 426 58 426 58 432 c 0x6004
 58 438 58 437 60 437 c 0
 62 437 61 437 61 443 c 0
 61 449 61 448 63 448 c 0
 65 448 65 448 65 452 c 0x6002
 65 456 65 456 67 456 c 0
 69 456 69 455 69 461 c 0
 69 467 69 467 71 467 c 0
 73 467 72 466 72 472 c 0
 72 478 72 478 74 478 c 0
 76 478 76 477 76 483 c 0x6001
 76 489 76 489 78 489 c 0
 80 489 80 488 80 492 c 0
 80 496 80 496 82 496 c 0
 84 496 83 495 83 501 c 0
 83 507 83 507 85 507 c 0
 87 507 87 506 87 512 c 0x600080
 87 518 87 518 89 518 c 0
 91 518 91 517 91 523 c 0x600040
 91 529 91 529 93 529 c 0
 95 529 94 529 94 533 c 0
 94 537 94 536 96 536 c 0
 98 536 98 536 98 542 c 0x600020
 98 548 98 547 100 547 c 0
 102 547 102 547 102 553 c 0x600010
 102 559 102 558 104 558 c 0
 106 558 106 558 106 564 c 0
 106 570 105 569 107 569 c 0
 109 569 109 569 109 573 c 0x600008
 109 577 109 577 111 577 c 0
 113 577 113 576 113 582 c 0
 113 588 113 588 115 588 c 0
 117 588 117 587 117 593 c 0
 117 599 116 599 118 599 c 0
 120 599 120 598 120 604 c 0
 120 610 120 610 122 610 c 0
 124 610 124 609 124 615 c 0
 124 621 124 621 126 621 c 0
 128 621 128 621 128 625 c 0
 128 629 127 628 129 628 c 0
 131 628 131 628 131 634 c 0
 131 640 131 639 133 639 c 0x640004
 135 639 135 639 135 645 c 0
 135 651 135 650 137 650 c 0
 139 650 139 650 139 656 c 0
 139 662 138 661 140 661 c 0
 142 661 142 661 142 665 c 0
 142 669 142 669 144 669 c 0
 146 669 146 668 146 674 c 0
 146 680 146 680 148 680 c 0
 150 680 150 679 150 685 c 0
 150 691 149 691 151 691 c 0
 153 691 153 690 153 696 c 0x280002
 153 702 153 702 155 702 c 0
 157 702 157 701 157 705 c 0x280001
EndSplineSet
EndChar

StartChar: seven
Encoding: 55 55 41
Width: 478
Flags: W
HStem: 18 27<73 82>
VStem: 91 206<31.6006 161.803> 100 206<54.1839 187.995> 109 206<81.1084 214.743> 127 197<135.257 268.983> 136 197<162.257 295.892> 145 197<188.831 332> 154 197<215.197 359> 163 197<242.108 386> 172 197<269.015 412.892> 181 197<305.108 439.803> 189 198<332.035 466.169> 198 198<359.011 484.169>
LayerCount: 2
Fore
SplineSet
10 687 m 0x8008
 10 691 10 691 239 691 c 0
 468 691 468 691 468 678 c 0
 468 665 467 664 463 664 c 0
 459 664 459 664 459 651 c 0
 459 638 458 637 454 637 c 0
 450 637 450 637 450 619 c 0
 450 601 449 601 445 601 c 0
 441 601 441 601 441 588 c 0
 441 575 440 574 436 574 c 0
 432 574 432 574 432 561 c 0
 432 548 431 547 427 547 c 0
 423 547 423 547 423 529 c 0
 423 511 422 512 418 512 c 0
 414 512 414 511 414 498 c 0
 414 485 413 485 409 485 c 0
 405 485 405 485 405 467 c 0
 405 449 404 449 400 449 c 0
 396 449 396 448 396 435 c 0x8008
 396 422 395 422 391 422 c 0
 387 422 387 422 387 404 c 0x8010
 387 386 386 386 382 386 c 0
 378 386 378 385 378 372 c 0x8020
 378 359 377 359 373 359 c 0
 369 359 369 359 369 346 c 0x8040
 369 333 368 332 364 332 c 0
 360 332 360 332 360 314 c 0x8080
 360 296 360 296 356 296 c 0
 352 296 351 296 351 283 c 0x81
 351 270 351 269 347 269 c 0
 343 269 342 269 342 251 c 0x82
 342 233 342 233 338 233 c 0
 334 233 333 233 333 220 c 0x84
 333 207 333 206 329 206 c 0
 325 206 324 206 324 188 c 0x88
 324 170 324 171 320 171 c 0
 316 171 315 170 315 157 c 0x90
 315 144 315 144 311 144 c 0
 307 144 306 143 306 130 c 0xa0
 306 117 306 117 302 117 c 0
 298 117 297 117 297 99 c 0xc0
 297 81 297 81 293 81 c 0
 289 81 288 80 288 67 c 0
 288 54 288 54 284 54 c 0
 280 54 279 53 279 40 c 0
 279 27 279 27 275 27 c 0
 271 27 270 26 270 22 c 0
 270 18 271 18 172 18 c 0x8040
 73 18 73 18 73 31 c 0
 73 44 73 45 77 45 c 0
 81 45 82 45 82 58 c 0
 82 71 82 72 86 72 c 0
 90 72 91 72 91 90 c 0xc0
 91 108 91 108 95 108 c 0
 99 108 100 108 100 121 c 0xa0
 100 134 100 135 104 135 c 0
 108 135 109 135 109 148 c 0x90
 109 161 109 162 113 162 c 0
 117 162 118 162 118 175 c 0
 118 188 118 188 122 188 c 0
 126 188 127 189 127 202 c 0x88
 127 215 127 215 131 215 c 0
 135 215 136 216 136 229 c 0x84
 136 242 136 242 140 242 c 0
 144 242 145 243 145 256 c 0x82
 145 269 145 269 149 269 c 0
 153 269 154 269 154 287 c 0x81
 154 305 154 305 158 305 c 0
 162 305 163 306 163 319 c 0x8080
 163 332 163 332 167 332 c 0
 171 332 172 333 172 346 c 0x8040
 172 359 172 359 176 359 c 0
 180 359 181 359 181 372 c 0x8020
 181 385 181 386 185 386 c 0
 189 386 189 386 189 399 c 0x8010
 189 412 190 413 194 413 c 0
 198 413 198 413 198 426 c 0
 198 439 199 440 203 440 c 0
 207 440 207 440 207 453 c 0
 207 466 208 467 212 467 c 0
 216 467 216 467 216 485 c 0
 216 503 217 503 118 503 c 2
 19 503 l 1
 19 592 l 2
 19 682 18 682 14 682 c 0
 10 682 10 683 10 687 c 0x8008
EndSplineSet
EndChar

StartChar: eight
Encoding: 56 56 42
Width: 507
Flags: W
HStem: 0 153<191.003 307.689> 9 153<183.037 249.399 250.6 252.339 255.661 316.598> 233 9<488.5 496.993> 314 144<200.418 298.938> 565 144<209.305 298.663>
VStem: 12 162<171.003 295.792> 21 170<162.108 231.339 234.661 235.738 240.261 305.099> 48 143<467.16 546.973> 236 27<1.52588e-05 8.75085> 308 144<467.274 555.545> 326 162<171 232.169 233.831 237.815 238.185 295.598>
LayerCount: 2
Fore
SplineSet
200 704 m 0xbc80
 200 708 200 709 254 709 c 0
 308 709 308 708 308 704 c 0
 308 700 309 700 322 700 c 0
 335 700 335 700 335 696 c 0
 335 692 335 691 344 691 c 0
 353 691 353 691 353 687 c 0
 353 683 353 682 362 682 c 0
 371 682 371 682 371 678 c 0
 371 674 371 673 375 673 c 0
 379 673 380 673 380 669 c 0
 380 665 380 664 384 664 c 0
 388 664 389 664 389 660 c 0
 389 656 389 655 393 655 c 0
 397 655 398 655 398 651 c 0
 398 647 398 646 402 646 c 0
 406 646 407 646 407 642 c 0
 407 638 407 637 411 637 c 0
 415 637 416 637 416 633 c 0
 416 629 416 628 420 628 c 0
 424 628 425 628 425 624 c 0
 425 620 425 619 429 619 c 0
 433 619 434 619 434 610 c 0
 434 601 434 601 438 601 c 0
 442 601 443 601 443 588 c 0
 443 575 443 574 447 574 c 0
 451 574 452 574 452 516 c 0
 452 458 451 458 447 458 c 0
 443 458 443 458 443 449 c 0
 443 440 442 440 438 440 c 0
 434 440 434 440 434 431 c 0
 434 422 433 422 429 422 c 0
 425 422 425 421 425 408 c 0
 425 395 425 395 429 395 c 0
 433 395 434 394 434 390 c 0
 434 386 434 386 438 386 c 0
 442 386 443 385 443 381 c 0
 443 377 443 377 447 377 c 0
 451 377 452 377 452 368 c 0xbcc0
 452 359 452 359 456 359 c 0
 460 359 461 358 461 354 c 0
 461 350 461 350 465 350 c 0
 469 350 470 350 470 341 c 0
 470 332 470 332 474 332 c 0
 478 332 479 332 479 319 c 0
 479 306 479 305 483 305 c 0
 487 305 488 305 488 274 c 0
 488 243 488 242 492 242 c 0
 496 242 497 242 497 238 c 0
 497 234 496 233 492 233 c 0
 488 233 488 233 488 202 c 0xb8a0
 488 171 487 171 483 171 c 0
 479 171 479 170 479 157 c 0
 479 144 478 144 474 144 c 0
 470 144 470 144 470 135 c 0
 470 126 469 126 465 126 c 0
 461 126 461 126 461 117 c 0
 461 108 460 108 456 108 c 0
 452 108 452 107 452 103 c 0xb8c0
 452 99 451 99 447 99 c 0
 443 99 443 98 443 94 c 0
 443 90 442 90 438 90 c 0
 434 90 434 89 434 85 c 0
 434 81 433 81 429 81 c 0
 425 81 425 80 425 76 c 0
 425 72 424 72 420 72 c 0
 416 72 416 71 416 67 c 0
 416 63 415 63 411 63 c 0
 407 63 407 62 407 58 c 0
 407 54 406 54 402 54 c 0
 398 54 398 53 398 49 c 0
 398 45 397 45 393 45 c 0
 389 45 389 44 389 40 c 0
 389 36 389 36 380 36 c 0
 371 36 371 35 371 31 c 0
 371 27 371 27 362 27 c 0
 353 27 353 26 353 22 c 0
 353 18 353 18 340 18 c 0
 327 18 326 17 326 13 c 0
 326 9 326 9 295 9 c 0x78a0
 264 9 263 8 263 4 c 0
 263 0 263 0 250 0 c 0xb8a0
 237 0 236 0 236 4 c 0
 236 8 236 9 209 9 c 0
 182 9 183 9 183 13 c 0
 183 17 182 18 169 18 c 0
 156 18 156 18 156 22 c 0
 156 26 156 27 147 27 c 0
 138 27 138 27 138 31 c 0
 138 35 138 36 129 36 c 0
 120 36 120 36 120 40 c 0
 120 44 119 45 115 45 c 0
 111 45 111 45 111 49 c 0
 111 53 111 54 102 54 c 0
 93 54 93 54 93 58 c 0
 93 62 92 63 88 63 c 0
 84 63 84 63 84 67 c 0
 84 71 83 72 79 72 c 0
 75 72 75 72 75 76 c 0
 75 80 74 81 70 81 c 0
 66 81 66 81 66 85 c 0
 66 89 65 90 61 90 c 0
 57 90 57 90 57 99 c 0
 57 108 56 108 52 108 c 0
 48 108 48 108 48 112 c 0x79a0
 48 116 47 117 43 117 c 0
 39 117 39 117 39 126 c 0
 39 135 38 135 34 135 c 0
 30 135 30 135 30 144 c 0
 30 153 29 153 25 153 c 0
 21 153 21 153 21 171 c 0xba80
 21 189 20 188 16 188 c 0
 12 188 12 189 12 238 c 0xbc80
 12 287 12 287 16 287 c 0
 20 287 21 287 21 305 c 0xba80
 21 323 21 323 25 323 c 0
 29 323 30 323 30 332 c 0
 30 341 30 341 34 341 c 0
 38 341 39 341 39 350 c 0
 39 359 39 359 43 359 c 0
 47 359 48 359 48 363 c 0
 48 367 48 368 52 368 c 0
 56 368 57 368 57 372 c 0
 57 376 57 377 61 377 c 0
 65 377 66 377 66 381 c 0
 66 385 66 386 70 386 c 0
 74 386 75 386 75 395 c 0
 75 404 75 404 79 404 c 0
 83 404 84 404 84 408 c 0
 84 412 83 413 79 413 c 0
 75 413 75 413 75 422 c 0
 75 431 74 431 70 431 c 0
 66 431 66 431 66 440 c 0
 66 449 65 449 61 449 c 0
 57 449 57 449 57 462 c 0
 57 475 56 476 52 476 c 0
 48 476 48 476 48 516 c 0xb980
 48 556 48 556 52 556 c 0
 56 556 57 557 57 570 c 0
 57 583 57 583 61 583 c 0
 65 583 66 584 66 597 c 0
 66 610 66 610 70 610 c 0
 74 610 75 611 75 615 c 0
 75 619 75 619 79 619 c 0
 83 619 84 619 84 628 c 0
 84 637 84 637 88 637 c 0
 92 637 93 638 93 642 c 0
 93 646 93 646 97 646 c 0
 101 646 102 647 102 651 c 0
 102 655 102 655 106 655 c 0
 110 655 111 656 111 660 c 0
 111 664 111 664 115 664 c 0
 119 664 120 665 120 669 c 0
 120 673 120 673 129 673 c 0
 138 673 138 674 138 678 c 0
 138 682 138 682 142 682 c 0
 146 682 147 683 147 687 c 0
 147 691 147 691 160 691 c 0
 173 691 174 692 174 696 c 0
 174 700 174 700 187 700 c 0
 200 700 200 700 200 704 c 0xbc80
272 561 m 0
 272 565 272 565 250 565 c 0
 228 565 227 565 227 561 c 0
 227 557 227 556 223 556 c 0
 219 556 218 556 218 552 c 0
 218 548 218 547 214 547 c 0
 210 547 209 547 209 543 c 0
 209 539 209 538 205 538 c 0
 201 538 200 538 200 529 c 0
 200 520 200 521 196 521 c 0
 192 521 191 521 191 512 c 0x39c0
 191 503 192 503 196 503 c 0
 200 503 200 502 200 489 c 0
 200 476 201 476 205 476 c 0
 209 476 209 475 209 471 c 0
 209 467 209 467 218 467 c 0
 227 467 227 466 227 462 c 0
 227 458 228 458 250 458 c 0
 272 458 272 458 272 462 c 0
 272 466 272 467 281 467 c 0
 290 467 290 467 290 471 c 0
 290 475 291 476 295 476 c 0
 299 476 299 476 299 485 c 0
 299 494 300 494 304 494 c 0
 308 494 308 494 308 512 c 0
 308 530 308 529 304 529 c 0
 300 529 299 529 299 538 c 0
 299 547 299 547 295 547 c 0
 291 547 290 548 290 552 c 0
 290 556 290 556 281 556 c 0
 272 556 272 557 272 561 c 0
281 310 m 0
 281 314 281 314 250 314 c 0
 219 314 218 314 218 310 c 0
 218 306 218 305 209 305 c 0
 200 305 200 305 200 301 c 0
 200 297 200 296 196 296 c 0
 192 296 191 296 191 292 c 0x7ac0
 191 288 191 287 187 287 c 0
 183 287 183 287 183 278 c 0
 183 269 182 269 178 269 c 0
 174 269 174 269 174 233 c 0x7c80
 174 197 174 197 178 197 c 0
 182 197 183 197 183 188 c 0
 183 179 183 179 187 179 c 0
 191 179 191 179 191 175 c 0
 191 171 192 171 196 171 c 0
 200 171 200 170 200 166 c 0
 200 162 200 162 209 162 c 0x7a80
 218 162 218 161 218 157 c 0
 218 153 218 153 254 153 c 0xba80
 290 153 290 153 290 157 c 0
 290 161 291 162 295 162 c 0
 299 162 299 162 299 166 c 0
 299 170 300 171 304 171 c 0
 308 171 308 171 308 175 c 0x7ac0
 308 179 309 179 313 179 c 0
 317 179 317 180 317 184 c 0
 317 188 318 188 322 188 c 0
 326 188 326 189 326 202 c 0
 326 215 327 215 331 215 c 0
 335 215 335 215 335 233 c 0
 335 251 335 251 331 251 c 0
 327 251 326 252 326 265 c 0x78a0
 326 278 326 278 322 278 c 0
 318 278 317 279 317 283 c 0
 317 287 317 287 313 287 c 0
 309 287 308 288 308 292 c 0
 308 296 308 296 304 296 c 0
 300 296 299 297 299 301 c 0
 299 305 299 305 290 305 c 0
 281 305 281 306 281 310 c 0
EndSplineSet
EndChar

StartChar: nine
Encoding: 57 57 43
Width: 531
Flags: W
HStem: 0 21G<371 373> 0 21G<371 373> 55 59<208.206 222.981> 59 33<205 212> 62 8<197 201> 500 202<205.039 223 267.508 329.969> 522 187<219.113 315.026>
VStem: 10 195<406.001 510.726> 36 224<299.001 385.999> 124 99<230.001 258.999> 146 73<219.001 243.999> 161 55<209.278 231.227> 183 29<202.386 217.138> 197 11<202 206.037> 205 198<51.2742 65.8154 66.1846 144.998> 205 191<51.2742 65.8154 66.1846 126.998> 208 199<51.2742 65.8154 66.1846 153.862> 219 199<66.1846 183.808> 223 198<75.0018 190.98> 234 198<108.002 224.034> 238 198<118.001 236.998> 245 198<138.002 253.045> 256 199<172.95 291.998> 256 22<705.008 709> 260 198<178.002 298.998> 267 199<202.192 322.981> 274 199<219.002 337.808> 282 198<241.002 361.998> 286 198<257.057 374.998> 293 198<272.001 382> 297 198<286.955 382> 304 198<303.002 382> 315 195<332.002 456.585 457.416 457.662> 319 62<11.0195 26.3303> 326 191<366.002 456.585 457.416 508.999> 333 188<430 487.926> 348 29<4.18386 14.9375> 370 4<1.52588e-05 3.93896>
LayerCount: 2
Fore
SplineSet
256 707 m 0x040001
 256 709 256 709 267 709 c 0x02000040
 278 709 278 709 278 707 c 0
 278 705 278 705 295 705 c 0
 312 705 311 705 311 703 c 0
 311 701 311 702 320 702 c 0
 329 702 330 702 330 700 c 0
 330 698 329 698 335 698 c 0
 341 698 341 698 341 696 c 0
 341 694 340 694 346 694 c 0
 352 694 352 694 352 692 c 0
 352 690 351 691 357 691 c 0
 363 691 363 691 363 689 c 0
 363 687 362 687 366 687 c 0
 370 687 370 687 370 685 c 0
 370 683 370 683 374 683 c 0x0400010004
 378 683 377 683 377 681 c 0x0400000008
 377 679 377 680 381 680 c 0x0400000040
 385 680 385 680 385 678 c 0
 385 676 384 676 388 676 c 0
 392 676 392 676 392 674 c 0
 392 672 392 672 394 672 c 0
 396 672 396 672 396 670 c 0x0401
 396 668 395 669 399 669 c 0
 403 669 403 669 403 667 c 0x0402
 403 665 403 665 405 665 c 0
 407 665 407 665 407 663 c 0x040080
 407 661 406 661 410 661 c 0
 414 661 414 661 414 659 c 0
 414 657 414 658 416 658 c 0
 418 658 418 658 418 656 c 0x040040
 418 654 418 654 420 654 c 0
 422 654 421 654 421 652 c 0x040020
 421 650 421 650 423 650 c 0
 425 650 425 650 425 648 c 0
 425 646 425 647 429 647 c 0
 433 647 432 647 432 645 c 0x040010
 432 643 432 643 434 643 c 0
 436 643 436 643 436 641 c 0x040008
 436 639 436 639 438 639 c 0
 440 639 440 639 440 637 c 0
 440 635 440 636 442 636 c 0
 444 636 443 636 443 634 c 0x040004
 443 632 443 632 445 632 c 0
 447 632 447 632 447 630 c 0
 447 628 447 628 449 628 c 0
 451 628 451 628 451 626 c 0
 451 624 451 625 453 625 c 0
 455 625 455 625 455 623 c 0x040002
 455 621 454 621 456 621 c 0
 458 621 458 621 458 619 c 0x04000080
 458 617 458 617 460 617 c 0
 462 617 462 617 462 615 c 0
 462 613 462 613 464 613 c 0
 466 613 466 614 466 610 c 0x04000040
 466 606 465 606 467 606 c 0
 469 606 469 606 469 604 c 0
 469 602 469 602 471 602 c 0
 473 602 473 603 473 601 c 0x04000020
 473 599 473 599 475 599 c 0
 477 599 477 599 477 595 c 0
 477 591 476 591 478 591 c 0
 480 591 480 592 480 590 c 0x04000010
 480 588 480 588 482 588 c 0
 484 588 484 588 484 584 c 0x04000008
 484 580 484 580 486 580 c 0
 488 580 488 581 488 579 c 0
 488 577 487 577 489 577 c 0
 491 577 491 577 491 573 c 0x04000004
 491 569 491 569 493 569 c 0
 495 569 495 570 495 566 c 0x04000002
 495 562 495 562 497 562 c 0
 499 562 499 562 499 558 c 0
 499 554 498 555 500 555 c 0
 502 555 502 555 502 551 c 0x04000001
 502 547 502 547 504 547 c 0
 506 547 506 548 506 542 c 0
 506 536 506 536 508 536 c 0
 510 536 510 537 510 531 c 0x0400000080
 510 525 509 525 511 525 c 0
 513 525 513 525 513 518 c 0
 513 511 513 511 515 511 c 0
 517 511 517 511 517 500 c 0x0400000020
 517 489 517 489 519 489 c 0
 521 489 521 488 521 459 c 0x0400000010
 521 430 521 430 519 430 c 0
 517 430 517 430 517 421 c 0x0400000020
 517 412 517 411 515 411 c 0
 513 411 513 411 513 404 c 0
 513 397 513 397 511 397 c 0
 509 397 510 396 510 389 c 0x0400000080
 510 382 510 382 508 382 c 0
 506 382 506 382 506 375 c 0
 506 368 506 367 504 367 c 0
 502 367 502 368 502 362 c 0x04000001
 502 356 502 356 500 356 c 0
 498 356 499 357 499 351 c 0
 499 345 499 345 497 345 c 0
 495 345 495 346 495 340 c 0x04000002
 495 334 495 334 493 334 c 0
 491 334 491 335 491 329 c 0x04000004
 491 323 491 323 489 323 c 0
 487 323 488 324 488 318 c 0
 488 312 488 312 486 312 c 0
 484 312 484 313 484 309 c 0x04000008
 484 305 484 305 482 305 c 0
 480 305 480 305 480 299 c 0x04000010
 480 293 480 294 478 294 c 0
 476 294 477 294 477 288 c 0
 477 282 477 283 475 283 c 0
 473 283 473 283 473 277 c 0x04000020
 473 271 473 272 471 272 c 0
 469 272 469 272 469 268 c 0
 469 264 469 264 467 264 c 0
 465 264 466 265 466 259 c 0x04000040
 466 253 466 253 464 253 c 0
 462 253 462 254 462 248 c 0
 462 242 462 242 460 242 c 0
 458 242 458 243 458 237 c 0x04000080
 458 231 458 231 456 231 c 0
 454 231 455 232 455 228 c 0x040002
 455 224 455 224 453 224 c 0
 451 224 451 225 451 219 c 0
 451 213 451 213 449 213 c 0
 447 213 447 214 447 208 c 0
 447 202 447 202 445 202 c 0
 443 202 443 203 443 197 c 0x040004
 443 191 444 191 442 191 c 0
 440 191 440 192 440 186 c 0
 440 180 440 180 438 180 c 0
 436 180 436 180 436 176 c 0x040008
 436 172 436 173 434 173 c 0
 432 173 432 173 432 167 c 0x040010
 432 161 433 162 431 162 c 0
 429 162 429 162 429 156 c 0
 429 150 429 151 427 151 c 0
 425 151 425 151 425 145 c 0
 425 139 425 140 423 140 c 0
 421 140 421 140 421 136 c 0x040020
 421 132 422 132 420 132 c 0
 418 132 418 133 418 127 c 0x040040
 418 121 418 121 416 121 c 0
 414 121 414 122 414 116 c 0
 414 110 414 110 412 110 c 0
 410 110 410 111 410 105 c 0
 410 99 411 99 409 99 c 0
 407 99 407 100 407 94 c 0x040080
 407 88 407 88 405 88 c 0
 403 88 403 88 403 84 c 0x0402
 403 80 403 81 401 81 c 0
 399 81 399 81 399 75 c 0
 399 69 400 70 398 70 c 0
 396 70 396 70 396 64 c 0x0c01
 396 58 396 59 394 59 c 0
 392 59 392 59 392 53 c 0
 392 47 392 48 390 48 c 0
 388 48 388 48 388 44 c 0
 388 40 389 40 387 40 c 0
 385 40 385 41 385 35 c 0
 385 29 385 29 383 29 c 0
 381 29 381 30 381 24 c 0x1000000040
 381 18 381 18 379 18 c 0
 377 18 377 19 377 13 c 0x1000000008
 377 7 378 7 376 7 c 0
 374 7 374 8 374 4 c 0
 374 0 374 0 372 0 c 0
 370 0 370 0 370 2 c 0x9000000004
 370 4 370 4 364 4 c 0
 358 4 359 4 359 6 c 0
 359 8 359 7 353 7 c 0
 347 7 348 7 348 9 c 0x9000000008
 348 11 348 11 342 11 c 0
 336 11 337 11 337 13 c 0
 337 15 337 15 331 15 c 0
 325 15 326 15 326 17 c 0x9000000020
 326 19 326 18 322 18 c 0
 318 18 319 18 319 20 c 0x9000000040
 319 22 319 22 313 22 c 0
 307 22 308 22 308 24 c 0
 308 26 308 26 302 26 c 0
 296 26 297 26 297 28 c 0x90000002
 297 30 297 29 291 29 c 0
 285 29 286 29 286 31 c 0x90000008
 286 33 286 33 280 33 c 0
 274 33 274 33 274 35 c 0x90000020
 274 37 275 37 271 37 c 0
 267 37 267 37 267 39 c 0x90000040
 267 41 268 40 262 40 c 0
 256 40 256 40 256 42 c 0x900001
 256 44 257 44 251 44 c 0
 245 44 245 44 245 46 c 0x900004
 245 48 246 48 240 48 c 0
 234 48 234 48 234 50 c 0x900010
 234 52 235 51 229 51 c 0
 223 51 223 51 223 53 c 0
 223 55 224 55 218 55 c 0
 212 55 212 55 212 57 c 0xa00820
 212 59 212 59 208 59 c 0x100080
 204 59 205 59 205 61 c 0x1002
 205 63 205 62 201 62 c 0
 197 62 197 62 197 66 c 0x0804
 197 70 197 70 199 70 c 0
 201 70 201 69 201 75 c 0
 201 81 201 81 203 81 c 0
 205 81 205 80 205 86 c 0x0802
 205 92 205 92 207 92 c 0
 209 92 208 91 208 97 c 0x100080
 208 103 208 103 210 103 c 0
 212 103 212 102 212 108 c 0x1008
 212 114 212 114 214 114 c 0
 216 114 216 114 216 118 c 0
 216 122 216 121 218 121 c 0
 220 121 219 121 219 127 c 0x201040
 219 133 219 132 221 132 c 0
 223 132 223 132 223 138 c 0x200020
 223 144 223 143 225 143 c 0
 227 143 227 143 227 149 c 0
 227 155 227 154 229 154 c 0
 231 154 230 154 230 160 c 0
 230 166 230 165 232 165 c 0
 234 165 234 165 234 169 c 0x200010
 234 173 234 173 236 173 c 0
 238 173 238 172 238 178 c 0x200008
 238 184 238 184 240 184 c 0
 242 184 241 183 241 189 c 0
 241 195 241 195 243 195 c 0
 245 195 245 194 245 200 c 0x200004
 245 206 245 206 247 206 c 0
 249 206 249 205 249 211 c 0
 249 217 249 217 251 217 c 0
 253 217 252 216 252 220 c 0
 252 224 252 224 254 224 c 0
 256 224 256 224 256 230 c 0x200002
 256 236 256 235 258 235 c 0
 260 235 260 235 260 241 c 0x20000080
 260 247 260 246 262 246 c 0
 264 246 263 246 263 252 c 0
 263 258 263 257 265 257 c 0
 267 257 267 257 267 263 c 0x20000040
 267 269 267 268 269 268 c 0
 271 268 271 268 271 272 c 0
 271 276 271 276 273 276 c 0
 275 276 274 275 274 281 c 0x20000020
 274 287 274 287 276 287 c 0
 278 287 278 286 278 292 c 0
 278 298 278 298 280 298 c 0
 282 298 282 297 282 303 c 0x20000110
 282 309 282 309 284 309 c 0
 286 309 286 308 286 314 c 0x20000008
 286 320 285 320 287 320 c 0
 289 320 289 319 289 323 c 0
 289 327 289 327 291 327 c 0
 293 327 293 326 293 332 c 0x20000004
 293 338 293 338 295 338 c 0
 297 338 297 337 297 343 c 0x20000002
 297 349 296 349 298 349 c 0
 300 349 300 348 300 354 c 0
 300 360 300 360 302 360 c 0
 304 360 304 360 304 366 c 0x20000001
 304 372 304 371 306 371 c 0
 308 371 308 371 308 375 c 0
 308 379 307 378 309 378 c 0
 311 378 311 378 311 384 c 0
 311 390 311 389 313 389 c 0
 315 389 315 389 315 395 c 0x2000000080
 315 401 315 400 317 400 c 0
 319 400 319 400 319 406 c 0x2000000040
 319 412 318 411 320 411 c 0
 322 411 322 411 322 417 c 0
 322 423 322 422 324 422 c 0
 326 422 326 422 326 426 c 0x2000000020
 326 430 326 430 328 430 c 0
 330 430 330 430 330 439 c 0
 330 448 329 448 331 448 c 0
 333 448 333 448 333 457 c 0x2000000010
 333 466 333 467 331 467 c 0
 329 467 330 467 330 474 c 0
 330 481 330 481 328 481 c 0
 326 481 326 481 326 485 c 0x2000000020
 326 489 326 489 324 489 c 0
 322 489 322 488 322 490 c 0
 322 492 322 492 320 492 c 0
 318 492 319 492 319 496 c 0x2000000040
 319 500 319 500 317 500 c 0
 315 500 315 499 315 501 c 0x2400000080
 315 503 315 503 313 503 c 0
 311 503 311 503 311 505 c 0
 311 507 312 507 308 507 c 0
 304 507 304 507 304 509 c 0x24000001
 304 511 304 511 302 511 c 0
 300 511 300 510 300 512 c 0
 300 514 301 514 297 514 c 0x24000002
 293 514 293 514 293 516 c 0x24000004
 293 518 293 518 287 518 c 0
 281 518 282 518 282 520 c 0x24000010
 282 522 282 522 265 522 c 0
 248 522 249 522 249 520 c 0
 249 518 249 518 243 518 c 0
 237 518 238 518 238 516 c 0x020008
 238 514 238 514 236 514 c 0
 234 514 234 514 234 512 c 0x020010
 234 510 234 511 230 511 c 0
 226 511 227 511 227 509 c 0
 227 507 227 507 225 507 c 0
 223 507 223 507 223 505 c 0x020020
 223 503 223 503 221 503 c 0
 219 503 219 503 219 501 c 0
 219 499 220 500 218 500 c 0
 216 500 216 500 216 498 c 0x041040
 216 496 216 496 214 496 c 0
 212 496 212 496 212 492 c 0x0408
 212 488 212 489 210 489 c 0
 208 489 208 489 208 485 c 0
 208 481 209 481 207 481 c 0
 205 481 205 482 205 476 c 0
 205 470 205 470 203 470 c 0
 201 470 201 471 201 456 c 0
 201 441 201 441 203 441 c 0
 205 441 205 441 205 435 c 0
 205 429 205 430 207 430 c 0
 209 430 208 430 208 426 c 0x050080
 208 422 208 422 210 422 c 0
 212 422 212 423 212 421 c 0x0408
 212 419 212 419 214 419 c 0
 216 419 216 419 216 415 c 0
 216 411 216 411 218 411 c 0
 220 411 219 412 219 410 c 0x041040
 219 408 219 408 223 408 c 0x040020
 227 408 227 408 227 406 c 0
 227 404 227 404 229 404 c 0
 231 404 230 404 230 402 c 0
 230 400 230 400 234 400 c 0x040010
 238 400 238 401 238 399 c 0x040008
 238 397 237 397 241 397 c 0
 245 397 245 397 245 395 c 0x040004
 245 393 245 393 265 393 c 0
 285 393 286 393 286 391 c 0x04000008
 286 389 286 389 284 389 c 0
 282 389 282 390 282 386 c 0
 282 382 282 382 280 382 c 0
 278 382 278 383 278 377 c 0x04000110
 278 371 278 371 276 371 c 0
 274 371 274 371 274 367 c 0x04000020
 274 363 275 364 273 364 c 0
 271 364 271 364 271 358 c 0
 271 352 271 353 269 353 c 0
 267 353 267 353 267 349 c 0
 267 345 267 345 265 345 c 0
 263 345 263 346 263 340 c 0
 263 334 264 334 262 334 c 0
 260 334 260 335 260 331 c 0x04800040
 260 327 260 327 258 327 c 0
 256 327 256 327 256 323 c 0x040001
 256 319 256 320 254 320 c 0
 252 320 252 320 252 314 c 0
 252 308 253 309 251 309 c 0
 249 309 249 309 249 305 c 0
 249 301 249 301 247 301 c 0
 245 301 245 302 245 296 c 0x040004
 245 290 245 290 243 290 c 0
 241 290 241 291 241 287 c 0
 241 283 242 283 240 283 c 0
 238 283 238 283 238 277 c 0x040008
 238 271 238 272 236 272 c 0
 234 272 234 272 234 268 c 0
 234 264 234 264 232 264 c 0
 230 264 230 265 230 261 c 0
 230 257 231 257 229 257 c 0
 227 257 227 258 227 252 c 0
 227 246 227 246 225 246 c 0
 223 246 223 246 223 242 c 0x044010
 223 238 223 239 221 239 c 0
 219 239 219 239 219 233 c 0x0420
 219 227 220 228 218 228 c 0
 216 228 216 228 216 224 c 0x0410
 216 220 216 220 214 220 c 0
 212 220 212 221 212 215 c 0x0408
 212 209 212 209 210 209 c 0
 208 209 208 210 208 206 c 0
 208 202 209 202 203 202 c 0
 197 202 197 202 197 204 c 0x0404
 197 206 198 206 194 206 c 0
 190 206 190 206 190 208 c 0
 190 210 190 209 186 209 c 0
 182 209 183 209 183 211 c 0x0408
 183 213 183 213 179 213 c 0
 175 213 175 213 175 215 c 0
 175 217 176 217 172 217 c 0
 168 217 168 217 168 219 c 0
 168 221 168 220 164 220 c 0
 160 220 161 220 161 222 c 0x0410
 161 224 161 224 157 224 c 0
 153 224 153 224 153 226 c 0
 153 228 154 228 150 228 c 0
 146 228 146 228 146 230 c 0x0420
 146 232 146 231 142 231 c 0
 138 231 139 231 139 233 c 0
 139 235 139 235 137 235 c 0
 135 235 135 235 135 237 c 0
 135 239 135 239 131 239 c 0
 127 239 128 239 128 241 c 0
 128 243 128 242 126 242 c 0
 124 242 124 242 124 244 c 0x0440
 124 246 124 246 120 246 c 0
 116 246 117 246 117 248 c 0
 117 250 117 250 115 250 c 0
 113 250 113 250 113 252 c 0
 113 254 113 253 109 253 c 0
 105 253 106 253 106 255 c 0
 106 257 106 257 104 257 c 0
 102 257 102 257 102 259 c 0
 102 261 102 261 100 261 c 0
 98 261 98 261 98 263 c 0
 98 265 98 264 94 264 c 0
 90 264 91 264 91 266 c 0
 91 268 91 268 89 268 c 0
 87 268 87 268 87 270 c 0
 87 272 87 272 85 272 c 0
 83 272 83 272 83 274 c 0
 83 276 84 276 82 276 c 0
 80 276 80 275 80 277 c 0
 80 279 80 279 78 279 c 0
 76 279 76 279 76 281 c 0
 76 283 76 283 74 283 c 0
 72 283 72 283 72 285 c 0
 72 287 73 287 71 287 c 0
 69 287 69 286 69 288 c 0
 69 290 69 290 67 290 c 0
 65 290 65 290 65 292 c 0
 65 294 65 294 63 294 c 0
 61 294 61 294 61 296 c 0
 61 298 62 298 60 298 c 0
 58 298 58 297 58 299 c 0
 58 301 58 301 56 301 c 0
 54 301 54 301 54 305 c 0
 54 309 54 309 52 309 c 0
 50 309 50 308 50 310 c 0
 50 312 51 312 49 312 c 0
 47 312 47 312 47 316 c 0
 47 320 47 320 45 320 c 0
 43 320 43 319 43 321 c 0
 43 323 43 323 41 323 c 0
 39 323 39 323 39 327 c 0
 39 331 40 331 38 331 c 0
 36 331 36 330 36 334 c 0x0480
 36 338 36 338 34 338 c 0
 32 338 32 338 32 342 c 0
 32 346 32 345 30 345 c 0
 28 345 28 345 28 349 c 0
 28 353 29 353 27 353 c 0
 25 353 25 352 25 358 c 0
 25 364 25 364 23 364 c 0
 21 364 21 363 21 369 c 0
 21 375 21 375 19 375 c 0
 17 375 17 375 17 382 c 0
 17 389 18 389 16 389 c 0
 14 389 14 390 14 399 c 0
 14 408 14 408 12 408 c 0
 10 408 10 408 10 450 c 0x05
 10 492 10 492 12 492 c 0
 14 492 14 492 14 501 c 0
 14 510 14 511 16 511 c 0
 18 511 17 511 17 518 c 0
 17 525 17 525 19 525 c 0
 21 525 21 525 21 531 c 0
 21 537 21 536 23 536 c 0
 25 536 25 536 25 542 c 0
 25 548 25 547 27 547 c 0
 29 547 28 547 28 551 c 0
 28 555 28 555 30 555 c 0
 32 555 32 554 32 558 c 0
 32 562 32 562 34 562 c 0
 36 562 36 562 36 566 c 0x0480
 36 570 36 569 38 569 c 0
 40 569 39 569 39 573 c 0
 39 577 39 577 41 577 c 0
 43 577 43 576 43 580 c 0
 43 584 43 584 45 584 c 0
 47 584 47 584 47 588 c 0
 47 592 47 591 49 591 c 0
 51 591 50 591 50 593 c 0
 50 595 50 595 52 595 c 0
 54 595 54 595 54 597 c 0
 54 599 54 599 56 599 c 0
 58 599 58 598 58 602 c 0
 58 606 58 606 60 606 c 0
 62 606 61 606 61 608 c 0
 61 610 61 610 63 610 c 0
 65 610 65 610 65 612 c 0
 65 614 65 613 67 613 c 0
 69 613 69 613 69 615 c 0
 69 617 69 617 71 617 c 0
 73 617 72 617 72 621 c 0
 72 625 72 625 74 625 c 0
 76 625 76 624 76 626 c 0
 76 628 76 628 78 628 c 0
 80 628 80 628 80 630 c 0
 80 632 80 632 82 632 c 0
 84 632 83 632 83 634 c 0
 83 636 83 636 85 636 c 0
 87 636 87 635 87 637 c 0
 87 639 87 639 89 639 c 0
 91 639 91 639 91 641 c 0
 91 643 91 643 93 643 c 0
 95 643 94 643 94 645 c 0
 94 647 94 647 98 647 c 0
 102 647 102 646 102 648 c 0
 102 650 102 650 104 650 c 0
 106 650 106 650 106 652 c 0
 106 654 105 654 107 654 c 0
 109 654 109 654 109 656 c 0
 109 658 109 658 111 658 c 0
 113 658 113 657 113 659 c 0
 113 661 113 661 117 661 c 0
 121 661 120 661 120 663 c 0
 120 665 120 665 122 665 c 0
 124 665 124 665 124 667 c 0x0440
 124 669 124 669 128 669 c 0
 132 669 131 668 131 670 c 0
 131 672 131 672 135 672 c 0
 139 672 139 672 139 674 c 0
 139 676 138 676 140 676 c 0
 142 676 142 676 142 678 c 0
 142 680 142 680 146 680 c 0x0420
 150 680 150 679 150 681 c 0
 150 683 149 683 153 683 c 0
 157 683 157 683 157 685 c 0
 157 687 156 687 162 687 c 0
 168 687 168 687 168 689 c 0
 168 691 168 691 172 691 c 0
 176 691 175 690 175 692 c 0
 175 694 175 694 181 694 c 0
 187 694 186 694 186 696 c 0
 186 698 187 698 194 698 c 0
 201 698 201 698 201 700 c 0
 201 702 201 702 210 702 c 0
 219 702 219 701 219 703 c 0x040040
 219 705 220 705 238 705 c 0x040008
 256 705 256 705 256 707 c 0x040001
EndSplineSet
EndChar

StartChar: sterling
Encoding: 163 163 44
Width: 496
Flags: W
HStem: 18 188<72.6833 90.3708 261.001 450> 296 99<55.1413 82 279.611 378> 305 81<55.0335 81.9946> 529 180<252.069 314.766>
VStem: 64 179<422.008 528.411> 82 179<207.125 277.169 395.775 484.169 485.831 496.154>
LayerCount: 2
Fore
SplineSet
225 704 m 0xd4
 225 708 226 709 275 709 c 0
 324 709 324 708 324 704 c 0
 324 700 325 700 338 700 c 0
 351 700 351 700 351 696 c 0
 351 692 351 691 360 691 c 0
 369 691 369 691 369 687 c 0
 369 683 369 682 378 682 c 0
 387 682 387 682 387 678 c 0
 387 674 387 673 396 673 c 0
 405 673 405 673 405 669 c 0
 405 665 405 664 409 664 c 0
 413 664 414 664 414 660 c 0
 414 656 414 655 418 655 c 0
 422 655 423 655 423 651 c 0
 423 647 423 646 427 646 c 0
 431 646 432 646 432 642 c 0
 432 638 432 637 436 637 c 0
 440 637 441 637 441 633 c 0
 441 629 441 628 445 628 c 0
 449 628 450 628 450 619 c 0
 450 610 450 610 454 610 c 0
 458 610 459 610 459 601 c 0
 459 592 459 592 463 592 c 0
 467 592 468 592 468 583 c 0
 468 574 468 574 472 574 c 0
 476 574 477 574 477 556 c 0
 477 538 477 538 481 538 c 0
 485 538 486 539 486 512 c 0
 486 485 486 485 405 485 c 0
 324 485 324 485 324 489 c 0
 324 493 324 494 320 494 c 0
 316 494 315 494 315 507 c 0
 315 520 315 521 311 521 c 0
 307 521 306 521 306 525 c 0
 306 529 306 529 284 529 c 0
 262 529 261 529 261 525 c 0xd4
 261 521 261 521 257 521 c 0
 253 521 252 521 252 512 c 0
 252 503 252 503 248 503 c 0
 244 503 243 503 243 485 c 0xd8
 243 467 244 467 248 467 c 0
 252 467 252 466 252 453 c 0
 252 440 253 440 257 440 c 0
 261 440 261 440 261 431 c 0
 261 422 262 422 266 422 c 0
 270 422 270 421 270 408 c 0
 270 395 270 395 324 395 c 2
 378 395 l 1
 378 346 l 1
 378 296 l 1
 329 296 l 2
 280 296 279 296 279 283 c 0
 279 270 279 269 275 269 c 0
 271 269 270 269 270 251 c 0
 270 233 270 233 266 233 c 0
 262 233 261 233 261 220 c 0xd4
 261 207 262 206 356 206 c 2
 450 206 l 1
 450 112 l 1
 450 18 l 1
 230 18 l 2
 10 18 10 18 10 22 c 0
 10 26 10 27 14 27 c 0
 18 27 19 27 19 40 c 0
 19 53 19 54 23 54 c 0
 27 54 28 54 28 67 c 0
 28 80 28 81 32 81 c 0
 36 81 37 81 37 94 c 0
 37 107 37 108 41 108 c 0
 45 108 46 108 46 117 c 0
 46 126 46 126 50 126 c 0
 54 126 55 126 55 139 c 0
 55 152 55 153 59 153 c 0
 63 153 64 153 64 166 c 0xd8
 64 179 64 179 68 179 c 0
 72 179 73 180 73 193 c 0
 73 206 73 206 77 206 c 0
 81 206 82 206 82 215 c 0
 82 224 82 224 86 224 c 0
 90 224 91 224 91 242 c 0
 91 260 91 260 95 260 c 0
 99 260 100 260 100 278 c 0
 100 296 100 296 82 296 c 0xd4
 64 296 64 297 64 301 c 0
 64 305 63 305 59 305 c 0
 55 305 55 306 55 346 c 0
 55 386 55 386 59 386 c 0
 63 386 64 386 64 390 c 0xb8
 64 394 64 395 73 395 c 0
 82 395 82 395 82 408 c 0xd4
 82 421 81 422 77 422 c 0
 73 422 73 422 73 440 c 0
 73 458 72 458 68 458 c 0
 64 458 64 458 64 498 c 0xd8
 64 538 64 538 68 538 c 0
 72 538 73 538 73 556 c 0
 73 574 73 574 77 574 c 0
 81 574 82 574 82 583 c 0
 82 592 82 592 86 592 c 0
 90 592 91 592 91 601 c 0
 91 610 91 610 95 610 c 0
 99 610 100 611 100 615 c 0
 100 619 100 619 104 619 c 0
 108 619 109 619 109 628 c 0
 109 637 109 637 113 637 c 0
 117 637 118 638 118 642 c 0
 118 646 118 646 122 646 c 0
 126 646 127 647 127 651 c 0
 127 655 127 655 131 655 c 0
 135 655 136 656 136 660 c 0
 136 664 136 664 145 664 c 0
 154 664 154 665 154 669 c 0
 154 673 154 673 158 673 c 0
 162 673 163 674 163 678 c 0
 163 682 163 682 172 682 c 0
 181 682 181 683 181 687 c 0
 181 691 180 691 189 691 c 0
 198 691 198 692 198 696 c 0
 198 700 199 700 212 700 c 0
 225 700 225 700 225 704 c 0xd4
EndSplineSet
EndChar

StartChar: Euro
Encoding: 8364 8364 45
Width: 541
Flags: W
HStem: 0 21G<315 333> 0 21G<315 333> 18 188<325.246 369.169 387.007 449.997> 54 117<441.008 494.972> 63 99<459.004 503.997> 72 81<468.415 513> 90 54<486.003 522.02> 99 36<499.039 526.185> 117 9<522.042 530.993> 278 63<10.0471 81.9497 270.001 404.814> 278 54<10.0172 81.7627> 386 63<10.0471 81.9679 270.049 404.869> 386 54<10.0172 81.5365> 494 21G<373.5 382.5> 512 188<326.907 377.585 378.415 440.997> 547 126<423.003 485.972> 556 108<441.003 494.997> 565 90<450.007 504> 574 63<477.003 521.972> 583 45<486.004 530.972> 592 27<504 530.993> 601 9<522 530.993>
VStem: 82 188<197.831 277.419 341.671 385.316 449.636 520.169> 91 197<188.655 254.984 467.831 528.699> 306 36<1.52588e-05 8.93511> 351 72<503.415 528.998> 360 63<188.164 223.816> 360 54<503.003 528.958> 369 18<224 233 494 503>
LayerCount: 2
Fore
SplineSet
261 704 m 0x00020180
 261 708 261 709 324 709 c 0
 387 709 387 708 387 704 c 0x00020188
 387 700 387 700 400 700 c 0
 413 700 414 700 414 696 c 0x00020090
 414 692 414 691 423 691 c 0
 432 691 432 691 432 687 c 0
 432 683 432 682 441 682 c 0
 450 682 450 682 450 678 c 0
 450 674 450 673 459 673 c 0x000100a0
 468 673 468 673 468 669 c 0
 468 665 468 664 472 664 c 0x000080a0
 476 664 477 664 477 660 c 0
 477 656 477 655 481 655 c 0x000040a0
 485 655 486 655 486 651 c 0
 486 647 486 646 490 646 c 0
 494 646 495 646 495 642 c 0
 495 638 495 637 499 637 c 0x000020a0
 503 637 504 637 504 633 c 0
 504 629 504 628 508 628 c 0x000010a0
 512 628 513 628 513 624 c 0
 513 620 513 619 517 619 c 0x000008a0
 521 619 522 619 522 615 c 0
 522 611 522 610 526 610 c 0
 530 610 531 610 531 606 c 0
 531 602 530 601 526 601 c 0x000004a0
 522 601 522 601 522 597 c 0
 522 593 521 592 517 592 c 0x000008a0
 513 592 513 592 513 588 c 0
 513 584 512 583 508 583 c 0x000010a0
 504 583 504 583 504 579 c 0
 504 575 504 574 495 574 c 0x000020a0
 486 574 486 574 486 570 c 0
 486 566 485 565 481 565 c 0x000040a0
 477 565 477 565 477 561 c 0
 477 557 476 556 472 556 c 0x000080a0
 468 556 468 556 468 552 c 0
 468 548 468 547 459 547 c 0
 450 547 450 547 450 543 c 0
 450 539 449 538 445 538 c 0
 441 538 441 538 441 534 c 0
 441 530 441 529 432 529 c 0
 423 529 423 529 423 525 c 0x000100c0
 423 521 422 521 418 521 c 0
 414 521 414 520 414 516 c 0
 414 512 413 512 409 512 c 0x00020090
 405 512 405 511 405 507 c 0
 405 503 405 503 396 503 c 0
 387 503 387 502 387 498 c 0
 387 494 387 494 378 494 c 0
 369 494 369 494 369 503 c 0x00040088
 369 512 368 512 364 512 c 0
 360 512 360 512 360 516 c 0x00020090
 360 520 360 521 356 521 c 0
 352 521 351 521 351 525 c 0
 351 529 351 529 324 529 c 0
 297 529 297 529 297 525 c 0
 297 521 297 521 293 521 c 0
 289 521 288 520 288 516 c 0x000201c0
 288 512 288 512 284 512 c 0
 280 512 279 511 279 498 c 0
 279 485 279 485 275 485 c 0
 271 485 270 485 270 467 c 0
 270 449 271 449 338 449 c 0
 405 449 405 448 405 417 c 0
 405 386 405 386 342 386 c 0
 279 386 279 385 279 381 c 0
 279 377 279 377 275 377 c 0
 271 377 270 377 270 359 c 0
 270 341 271 341 338 341 c 0
 405 341 405 341 405 314 c 0
 405 287 404 287 400 287 c 0
 396 287 396 287 396 283 c 0
 396 279 396 278 333 278 c 0
 270 278 270 278 270 256 c 0x00520280
 270 234 271 233 275 233 c 0
 279 233 279 233 279 220 c 0
 279 207 280 206 284 206 c 0
 288 206 288 206 288 202 c 0
 288 198 289 197 293 197 c 0
 297 197 297 197 297 193 c 0
 297 189 297 188 324 188 c 0
 351 188 351 189 351 193 c 0x205201c0
 351 197 352 197 356 197 c 0
 360 197 360 198 360 202 c 0x205200a0
 360 206 360 206 364 206 c 0
 368 206 369 207 369 220 c 0
 369 233 369 233 378 233 c 0
 387 233 387 233 387 229 c 0x20520088
 387 225 387 224 396 224 c 0
 405 224 405 224 405 220 c 0
 405 216 405 215 409 215 c 0
 413 215 414 215 414 211 c 0
 414 207 414 206 418 206 c 0x20520090
 422 206 423 206 423 202 c 0
 423 198 423 197 432 197 c 0
 441 197 441 197 441 193 c 0
 441 189 441 188 445 188 c 0
 449 188 450 188 450 184 c 0
 450 180 450 179 454 179 c 0
 458 179 459 179 459 175 c 0
 459 171 459 171 468 171 c 0x100000a0
 477 171 477 170 477 166 c 0
 477 162 477 162 481 162 c 0x080000a0
 485 162 486 161 486 157 c 0
 486 153 486 153 490 153 c 0x040000a0
 494 153 495 152 495 148 c 0
 495 144 495 144 504 144 c 0x020000a0
 513 144 513 143 513 139 c 0
 513 135 513 135 517 135 c 0x010000a0
 521 135 522 134 522 130 c 0
 522 126 522 126 526 126 c 0
 530 126 531 125 531 121 c 0
 531 117 530 117 526 117 c 0x008000a0
 522 117 522 117 522 108 c 0
 522 99 521 99 517 99 c 0x010000a0
 513 99 513 98 513 94 c 0
 513 90 512 90 508 90 c 0x020000a0
 504 90 504 89 504 85 c 0
 504 81 503 81 499 81 c 0
 495 81 495 80 495 76 c 0
 495 72 494 72 490 72 c 0x040000a0
 486 72 486 71 486 67 c 0
 486 63 485 63 481 63 c 0x080000a0
 477 63 477 62 477 58 c 0
 477 54 476 54 472 54 c 0x100000a0
 468 54 468 53 468 49 c 0
 468 45 467 45 463 45 c 0
 459 45 459 44 459 40 c 0
 459 36 459 36 450 36 c 0
 441 36 441 35 441 31 c 0
 441 27 441 27 432 27 c 0
 423 27 423 26 423 22 c 0
 423 18 422 18 409 18 c 0x200000a0
 396 18 396 17 396 13 c 0
 396 9 396 9 369 9 c 0
 342 9 342 8 342 4 c 0
 342 0 342 0 324 0 c 0x80000088
 306 0 306 0 306 4 c 0
 306 8 306 9 279 9 c 0
 252 9 252 9 252 13 c 0
 252 17 252 18 239 18 c 0x20000088
 226 18 225 18 225 22 c 0
 225 26 225 27 216 27 c 0
 207 27 207 27 207 31 c 0
 207 35 207 36 198 36 c 0
 189 36 189 36 189 40 c 0
 189 44 189 45 185 45 c 0
 181 45 181 45 181 49 c 0
 181 53 181 54 172 54 c 0x10000088
 163 54 163 54 163 58 c 0
 163 62 162 63 158 63 c 0x08000088
 154 63 154 63 154 67 c 0
 154 71 153 72 149 72 c 0x04000088
 145 72 145 72 145 81 c 0
 145 90 144 90 140 90 c 0x02000088
 136 90 136 90 136 94 c 0
 136 98 135 99 131 99 c 0x01000088
 127 99 127 99 127 108 c 0
 127 117 126 117 122 117 c 0
 118 117 118 117 118 121 c 0
 118 125 117 126 113 126 c 0x00800088
 109 126 109 126 109 139 c 0
 109 152 108 153 104 153 c 0
 100 153 100 153 100 166 c 0
 100 179 99 179 95 179 c 0
 91 179 91 179 91 197 c 0x04000188
 91 215 90 215 86 215 c 0
 82 215 82 216 82 247 c 0
 82 278 82 278 46 278 c 0x04400280
 10 278 10 278 10 305 c 0
 10 332 10 332 14 332 c 0x00200280
 18 332 19 333 19 337 c 0
 19 341 19 341 50 341 c 0
 81 341 82 341 82 363 c 0
 82 385 82 386 46 386 c 0x00500280
 10 386 10 386 10 413 c 0
 10 440 10 440 14 440 c 0x00080280
 18 440 19 440 19 444 c 0
 19 448 19 449 50 449 c 0
 81 449 82 449 82 476 c 0x00100280
 82 503 82 503 86 503 c 0
 90 503 91 503 91 521 c 0
 91 539 91 538 95 538 c 0
 99 538 100 539 100 552 c 0
 100 565 100 565 104 565 c 0x00104180
 108 565 109 565 109 574 c 0x00002180
 109 583 109 583 113 583 c 0x00001180
 117 583 118 583 118 592 c 0x00000980
 118 601 118 601 122 601 c 0
 126 601 127 601 127 610 c 0x00000580
 127 619 127 619 131 619 c 0x00000980
 135 619 136 620 136 624 c 0
 136 628 136 628 140 628 c 0x00001180
 144 628 145 629 145 633 c 0
 145 637 145 637 149 637 c 0x00002180
 153 637 154 638 154 642 c 0
 154 646 154 646 158 646 c 0
 162 646 163 647 163 651 c 0
 163 655 163 655 167 655 c 0x00004180
 171 655 172 656 172 660 c 0
 172 664 172 664 176 664 c 0x00008180
 180 664 181 665 181 669 c 0
 181 673 180 673 189 673 c 0x00010180
 198 673 198 674 198 678 c 0
 198 682 198 682 207 682 c 0
 216 682 216 683 216 687 c 0
 216 691 216 691 225 691 c 0
 234 691 234 692 234 696 c 0
 234 700 235 700 248 700 c 0
 261 700 261 700 261 704 c 0x00020180
EndSplineSet
EndChar

StartChar: exclam
Encoding: 33 33 46
Width: 278
Flags: W
HStem: 0 238<60.9993 215.001> 14 210<47.0355 135.739 140.261 229.001> 28 182<46.9099 89.005 186.995 242.964>
VStem: 33 210<27.9993 116.739 121.261 210.001> 47 196<27.9993 83.8485 154.151 210.001 281.969 700> 47 182<14.0355 69.9316 168.004 223.964 280 698.688>
LayerCount: 2
Fore
SplineSet
47 490 m 1x08
 47 700 l 1
 145 700 l 1
 243 700 l 1
 243 616 l 2x08
 243 532 243 532 236 532 c 0
 229 532 229 532 229 406 c 2
 229 280 l 1
 138 280 l 1
 47 280 l 1x04
 47 490 l 1x08
89 231 m 0
 89 238 89 238 138 238 c 0x88
 187 238 187 238 187 231 c 0
 187 224 187 224 201 224 c 0x48
 215 224 215 224 215 217 c 0
 215 210 215 210 222 210 c 0
 229 210 229 210 229 203 c 0x24
 229 196 229 196 236 196 c 0
 243 196 243 196 243 182 c 0
 243 168 243 168 250 168 c 0
 257 168 257 168 257 119 c 0
 257 70 257 70 250 70 c 0
 243 70 243 70 243 56 c 0x30
 243 42 243 42 236 42 c 0
 229 42 229 42 229 35 c 0
 229 28 229 28 222 28 c 0x24
 215 28 215 28 215 21 c 0
 215 14 215 14 201 14 c 0x44
 187 14 187 14 187 7 c 0
 187 0 187 0 138 0 c 0x84
 89 0 89 0 89 7 c 0
 89 14 89 14 75 14 c 0x44
 61 14 61 14 61 21 c 0
 61 28 61 28 54 28 c 0
 47 28 47 28 47 35 c 0x28
 47 42 47 42 40 42 c 0
 33 42 33 42 33 63 c 0
 33 84 33 84 26 84 c 0
 19 84 19 84 19 119 c 0
 19 154 19 154 26 154 c 0
 33 154 33 154 33 168 c 0x30
 33 182 33 182 40 182 c 0
 47 182 47 182 47 196 c 0
 47 210 47 210 54 210 c 0x28
 61 210 61 210 61 217 c 0
 61 224 61 224 75 224 c 0x48
 89 224 89 224 89 231 c 0
EndSplineSet
EndChar

StartChar: at
Encoding: 64 64 47
Width: 720
Flags: W
HStem: 0 84<247.999 556.001> 14 84<220.068 390.155 406.522 569.354> 28 84<206 289.831 499.99 583.932> 28 42<584 598> 42 98<177.999 219.328> 196 56<529.262 584> 210 70<555.999 598.09> 294 28<360.019 374> 406 140<332.034 415.018> 406 42<542.036 556> 532 112<149.91 178 584 612.09> 546 112<150.646 191.996 570.004 611.964> 574 98<177.999 219.996 542.004 584.001> 602 84<206 276.001 485.999 556> 616 84<220.004 331.863 430.137 541.996> 630 84<248.068 378.739 383.261 513.932> 644 84<275.999 486.001>
VStem: 10 98<238.001 461.665> 38 84<196.672 307.656 392.344 504.001> 52 98<167.999 223.996 490.672 545.996> 52 84<182.068 237.996> 66 112<140.004 181.328 531.999 574> 66 98<503.999 560.001> 80 112<125.999 168.001 546.004 587.996> 94 126<111.91 139.996 573.999 602.09> 192 126<322.716 392.001> 206 140<224.039 292.578 378.813 405.973> 290 42<196 210> 360 42<714.073 728> 402 126<252.937 384.031> 416 126<268.584 299.385 302.615 405.84> 556 28<98.0733 112> 570 98<545.999 588.001> 584 98<532.672 573.996> 584 84<265.91 308.001> 598 84<266.036 336.002> 612 84<279.999 376.054 450.688 546.001> 640 70<335.999 504.001>
LayerCount: 2
Fore
SplineSet
360 721 m 0x01010048
 360 728 360 728 381 728 c 0x01008048
 402 728 402 728 402 721 c 0
 402 714 402 714 444 714 c 0x01010048
 486 714 486 714 486 707 c 0
 486 700 486 700 507 700 c 0
 528 700 528 700 528 693 c 0x01020004
 528 686 528 686 542 686 c 0
 556 686 556 686 556 679 c 0x01040003
 556 672 556 672 570 672 c 0x0108000080
 584 672 584 672 584 665 c 0
 584 658 584 658 591 658 c 0x0110000020
 598 658 598 658 598 651 c 0
 598 644 598 644 605 644 c 0x0120000010
 612 644 612 644 612 637 c 0
 612 630 612 630 619 630 c 0x0101000008
 626 630 626 630 626 623 c 0
 626 616 626 616 633 616 c 0x0102000008
 640 616 640 616 640 609 c 0
 640 602 640 602 647 602 c 0x0104000004
 654 602 654 602 654 595 c 0
 654 588 654 588 661 588 c 0
 668 588 668 588 668 574 c 0x0108000080
 668 560 668 560 675 560 c 0
 682 560 682 560 682 553 c 0x0108000040
 682 546 682 546 689 546 c 0
 696 546 696 546 696 525 c 0x0110000008
 696 504 696 504 703 504 c 0
 710 504 710 504 710 420 c 0x0110000004
 710 336 710 336 703 336 c 0
 696 336 696 336 696 322 c 0x0110000008
 696 308 696 308 689 308 c 0
 682 308 682 308 682 294 c 0x0110000010
 682 280 682 280 675 280 c 0
 668 280 668 280 668 273 c 0x0310000020
 668 266 668 266 661 266 c 0
 654 266 654 266 654 252 c 0
 654 238 654 238 640 238 c 0x0500000004
 626 238 626 238 626 231 c 0
 626 224 626 224 619 224 c 0
 612 224 612 224 612 217 c 0x0500000008
 612 210 612 210 598 210 c 0x0300000010
 584 210 584 210 584 203 c 0
 584 196 584 196 563 196 c 0
 542 196 542 196 542 189 c 0
 542 182 542 182 500 182 c 0
 458 182 458 182 458 189 c 0
 458 196 458 196 444 196 c 0x0500000220
 430 196 430 196 430 203 c 0
 430 210 430 210 416 210 c 0x0300000220
 402 210 402 210 402 266 c 0x03000004
 402 322 402 322 409 322 c 0
 416 322 416 322 416 364 c 0
 416 406 416 406 381 406 c 0
 346 406 346 406 346 399 c 0x03800022
 346 392 346 392 339 392 c 0
 332 392 332 392 332 385 c 0x03800010
 332 378 332 378 325 378 c 0
 318 378 318 378 318 357 c 0x03800040
 318 336 318 336 325 336 c 0
 332 336 332 336 332 329 c 0x03800010
 332 322 332 322 353 322 c 0
 374 322 374 322 374 308 c 0
 374 294 374 294 367 294 c 0
 360 294 360 294 360 273 c 0
 360 252 360 252 353 252 c 0
 346 252 346 252 346 238 c 0x05800028
 346 224 346 224 339 224 c 0
 332 224 332 224 332 210 c 0x03000010
 332 196 332 196 311 196 c 0x05000010
 290 196 290 196 290 203 c 0
 290 210 290 210 269 210 c 0
 248 210 248 210 248 217 c 0
 248 224 248 224 234 224 c 0
 220 224 220 224 220 231 c 0x03000090
 220 238 220 238 213 238 c 0
 206 238 206 238 206 252 c 0x05000020
 206 266 206 266 199 266 c 0
 192 266 192 266 192 329 c 0x05000040
 192 392 192 392 199 392 c 0
 206 392 206 392 206 406 c 0x05400020
 206 420 206 420 213 420 c 0
 220 420 220 420 220 434 c 0
 220 448 220 448 227 448 c 0
 234 448 234 448 234 455 c 0
 234 462 234 462 241 462 c 0
 248 462 248 462 248 469 c 0
 248 476 248 476 255 476 c 0
 262 476 262 476 262 483 c 0
 262 490 262 490 269 490 c 0
 276 490 276 490 276 497 c 0
 276 504 276 504 283 504 c 0
 290 504 290 504 290 511 c 0x05400090
 290 518 290 518 304 518 c 0
 318 518 318 518 318 525 c 0
 318 532 318 532 339 532 c 0
 360 532 360 532 360 539 c 0x05600048
 360 546 360 546 402 546 c 0x01800004
 444 546 444 546 444 539 c 0
 444 532 444 532 465 532 c 0
 486 532 486 532 486 525 c 0
 486 518 486 518 500 518 c 0
 514 518 514 518 514 511 c 0
 514 504 514 504 521 504 c 0
 528 504 528 504 528 497 c 0x01200004
 528 490 528 490 535 490 c 0
 542 490 542 490 542 469 c 0
 542 448 542 448 549 448 c 0
 556 448 556 448 556 427 c 0
 556 406 556 406 549 406 c 0
 542 406 542 406 542 371 c 0x01600003
 542 336 542 336 535 336 c 0
 528 336 528 336 528 301 c 0x01600004
 528 266 528 266 535 266 c 0
 542 266 542 266 542 259 c 0
 542 252 542 252 549 252 c 0
 556 252 556 252 556 259 c 0x05600003
 556 266 556 266 570 266 c 0x0560000080
 584 266 584 266 584 273 c 0x0560000020
 584 280 584 280 591 280 c 0
 598 280 598 280 598 294 c 0x0300000010
 598 308 598 308 605 308 c 0
 612 308 612 308 612 322 c 0x0300000008
 612 336 612 336 619 336 c 0
 626 336 626 336 626 357 c 0
 626 378 626 378 633 378 c 0
 640 378 640 378 640 413 c 0x0300000004
 640 448 640 448 633 448 c 0
 626 448 626 448 626 476 c 0
 626 504 626 504 619 504 c 0
 612 504 612 504 612 518 c 0x0340000008
 612 532 612 532 605 532 c 0
 598 532 598 532 598 539 c 0x0360000010
 598 546 598 546 591 546 c 0
 584 546 584 546 584 553 c 0x0110000040
 584 560 584 560 577 560 c 0
 570 560 570 560 570 567 c 0x0110000080
 570 574 570 574 563 574 c 0
 556 574 556 574 556 581 c 0
 556 588 556 588 549 588 c 0
 542 588 542 588 542 595 c 0x01080003
 542 602 542 602 528 602 c 0x01040004
 514 602 514 602 514 609 c 0
 514 616 514 616 500 616 c 0x01020004
 486 616 486 616 486 623 c 0
 486 630 486 630 458 630 c 0x01010004
 430 630 430 630 430 637 c 0
 430 644 430 644 381 644 c 0x01008004
 332 644 332 644 332 637 c 0
 332 630 332 630 304 630 c 0x01010014
 276 630 276 630 276 623 c 0
 276 616 276 616 262 616 c 0x01020014
 248 616 248 616 248 609 c 0
 248 602 248 602 234 602 c 0
 220 602 220 602 220 595 c 0x01040094
 220 588 220 588 213 588 c 0
 206 588 206 588 206 581 c 0
 206 574 206 574 199 574 c 0
 192 574 192 574 192 567 c 0x01080120
 192 560 192 560 185 560 c 0
 178 560 178 560 178 553 c 0x010804
 178 546 178 546 171 546 c 0
 164 546 164 546 164 539 c 0x011002
 164 532 164 532 157 532 c 0
 150 532 150 532 150 518 c 0x012010
 150 504 150 504 143 504 c 0
 136 504 136 504 136 497 c 0x012008
 136 490 136 490 129 490 c 0
 122 490 122 490 122 469 c 0x012020
 122 448 122 448 115 448 c 0
 108 448 108 448 108 350 c 0x016040
 108 252 108 252 115 252 c 0
 122 252 122 252 122 238 c 0x056020
 122 224 122 224 129 224 c 0
 136 224 136 224 136 210 c 0x030008
 136 196 136 196 143 196 c 0
 150 196 150 196 150 189 c 0x050010
 150 182 150 182 157 182 c 0
 164 182 164 182 164 175 c 0x050002
 164 168 164 168 171 168 c 0
 178 168 178 168 178 161 c 0x050004
 178 154 178 154 185 154 c 0
 192 154 192 154 192 147 c 0
 192 140 192 140 199 140 c 0
 206 140 206 140 206 133 c 0x0d000120
 206 126 206 126 213 126 c 0
 220 126 220 126 220 119 c 0
 220 112 220 112 234 112 c 0x21000080
 248 112 248 112 248 105 c 0
 248 98 248 98 269 98 c 0x41000080
 290 98 290 98 290 91 c 0
 290 84 290 84 395 84 c 0x81000090
 500 84 500 84 500 91 c 0
 500 98 500 98 528 98 c 0
 556 98 556 98 556 105 c 0x41000095
 556 112 556 112 570 112 c 0x2100000080
 584 112 584 112 584 91 c 0
 584 70 584 70 591 70 c 0x1100000020
 598 70 598 70 598 49 c 0
 598 28 598 28 577 28 c 0x2100000010
 556 28 556 28 556 21 c 0
 556 14 556 14 528 14 c 0x4100000510
 500 14 500 14 500 7 c 0
 500 0 500 0 402 0 c 0x8100000510
 304 0 304 0 304 7 c 0
 304 14 304 14 276 14 c 0x4100000510
 248 14 248 14 248 21 c 0
 248 28 248 28 227 28 c 0
 206 28 206 28 206 35 c 0x2100002510
 206 42 206 42 192 42 c 0
 178 42 178 42 178 49 c 0x09000440
 178 56 178 56 171 56 c 0
 164 56 164 56 164 63 c 0x090002
 164 70 164 70 150 70 c 0x110010
 136 70 136 70 136 77 c 0x110008
 136 84 136 84 129 84 c 0
 122 84 122 84 122 91 c 0x810020
 122 98 122 98 115 98 c 0
 108 98 108 98 108 105 c 0x410040
 108 112 108 112 101 112 c 0
 94 112 94 112 94 119 c 0x21000080
 94 126 94 126 87 126 c 0
 80 126 80 126 80 140 c 0x090001
 80 154 80 154 73 154 c 0
 66 154 66 154 66 161 c 0x090004
 66 168 66 168 59 168 c 0
 52 168 52 168 52 189 c 0x090010
 52 210 52 210 45 210 c 0
 38 210 38 210 38 224 c 0x0b0020
 38 238 38 238 31 238 c 0
 24 238 24 238 24 273 c 0
 24 308 24 308 17 308 c 0
 10 308 10 308 10 350 c 0x0b0040
 10 392 10 392 17 392 c 0
 24 392 24 392 24 427 c 0
 24 462 24 462 31 462 c 0
 38 462 38 462 38 483 c 0x0b0020
 38 504 38 504 45 504 c 0
 52 504 52 504 52 518 c 0
 52 532 52 532 59 532 c 0x0b2010
 66 532 66 532 66 546 c 0x011004
 66 560 66 560 73 560 c 0
 80 560 80 560 80 567 c 0x011001
 80 574 80 574 87 574 c 0
 94 574 94 574 94 588 c 0x01080080
 94 602 94 602 101 602 c 0
 108 602 108 602 108 609 c 0x010440
 108 616 108 616 115 616 c 0
 122 616 122 616 122 623 c 0x010220
 122 630 122 630 129 630 c 0
 136 630 136 630 136 637 c 0x010108
 136 644 136 644 150 644 c 0x012010
 164 644 164 644 164 651 c 0
 164 658 164 658 171 658 c 0x011002
 178 658 178 658 178 665 c 0
 178 672 178 672 192 672 c 0x01080440
 206 672 206 672 206 679 c 0x01080020
 206 686 206 686 220 686 c 0x01040080
 234 686 234 686 234 693 c 0
 234 700 234 700 255 700 c 0x01020080
 276 700 276 700 276 707 c 0
 276 714 276 714 318 714 c 0
 360 714 360 714 360 721 c 0x01010048
EndSplineSet
EndChar

StartChar: numbersign
Encoding: 35 35 48
Width: 594
Flags: W
HStem: 14 42<290 303.891> 196 126<24.5998 92.5668 234.337 317.139 444.861 541.487> 210 112<444.861 541.973> 280 28<542.131 556> 406 126<52.8615 135.139 262.861 345.139 472.861 569.277> 630 70<276.059 289.76 486.059 499.76>
VStem: 80 112<14.9344 144.739> 94 112<57.9381 194.754> 122 112<322.451 398.677> 136 112<358.615 405.91> 150 112<532.469 629.828> 164 126<546.766 698.578> 290 112<14.4672 139.139> 304 112<35.9691 174.031> 318 112<56.8615 195.533> 332 112<322.183 376.708> 346 112<329.323 405.475> 360 112<532.469 629.828> 374 126<546.766 698.578>
LayerCount: 2
Fore
SplineSet
164 651 m 0xcc10
 164 700 164 700 227 700 c 0
 290 700 290 700 290 665 c 0xcc10
 290 630 290 630 283 630 c 0
 276 630 276 630 276 588 c 0
 276 546 276 546 269 546 c 0
 262 546 262 546 262 539 c 0
 262 532 262 532 311 532 c 0
 360 532 360 532 360 567 c 0xcc2040
 360 602 360 602 367 602 c 0
 374 602 374 602 374 651 c 0
 374 700 374 700 437 700 c 0
 500 700 500 700 500 665 c 0xcc0020
 500 630 500 630 493 630 c 0
 486 630 486 630 486 588 c 0
 486 546 486 546 479 546 c 0
 472 546 472 546 472 539 c 0xcc0040
 472 532 472 532 528 532 c 0
 584 532 584 532 584 504 c 0
 584 476 584 476 577 476 c 0
 570 476 570 476 570 448 c 0
 570 420 570 420 563 420 c 0
 556 420 556 420 556 413 c 0
 556 406 556 406 507 406 c 0
 458 406 458 406 458 371 c 0xcc0080
 458 336 458 336 451 336 c 0
 444 336 444 336 444 329 c 0
 444 322 444 322 493 322 c 0xcc01
 542 322 542 322 542 315 c 0
 542 308 542 308 549 308 c 0
 556 308 556 308 556 294 c 0
 556 280 556 280 549 280 c 0x9c01
 542 280 542 280 542 245 c 0
 542 210 542 210 535 210 c 0xac01
 528 210 528 210 528 203 c 0
 528 196 528 196 479 196 c 0
 430 196 430 196 430 168 c 0xcc02
 430 140 430 140 423 140 c 0
 416 140 416 140 416 91 c 0xcc04
 416 42 416 42 409 42 c 0
 402 42 402 42 402 28 c 0xcc08
 402 14 402 14 346 14 c 0xcc0080
 290 14 290 14 290 35 c 0xcc08
 290 56 290 56 297 56 c 0
 304 56 304 56 304 105 c 0xcc04
 304 154 304 154 311 154 c 0
 318 154 318 154 318 175 c 0
 318 196 318 196 262 196 c 0xcc22
 206 196 206 196 206 140 c 0xcd
 206 84 206 84 199 84 c 0
 192 84 192 84 192 49 c 0xce
 192 14 192 14 136 14 c 0xcc40
 80 14 80 14 80 56 c 0xce
 80 98 80 98 87 98 c 0
 94 98 94 98 94 147 c 0
 94 196 94 196 52 196 c 0xcd
 10 196 10 196 10 245 c 0
 10 294 10 294 17 294 c 0
 24 294 24 294 24 308 c 0x9d
 24 322 24 322 73 322 c 0
 122 322 122 322 122 357 c 0xcc80
 122 392 122 392 129 392 c 0
 136 392 136 392 136 399 c 0xcc40
 136 406 136 406 87 406 c 0
 38 406 38 406 38 448 c 0
 38 490 38 490 45 490 c 0
 52 490 52 490 52 511 c 0
 52 532 52 532 101 532 c 0
 150 532 150 532 150 567 c 0xcc20
 150 602 150 602 157 602 c 0
 164 602 164 602 164 651 c 0xcc10
346 378 m 0xcc0080
 346 406 346 406 297 406 c 0
 248 406 248 406 248 399 c 0xcc4080
 248 392 248 392 241 392 c 0
 234 392 234 392 234 357 c 0
 234 322 234 322 283 322 c 0
 332 322 332 322 332 336 c 0xcc81
 332 350 332 350 339 350 c 0
 346 350 346 350 346 378 c 0xcc0080
EndSplineSet
EndChar

StartChar: dollar
Encoding: 36 36 49
Width: 387
Flags: W
HStem: 532 182<305.766 367.677>
VStem: 109 252<224.205 278.062 281.938 349.996 645.338 713.997> 109 196<-67.184 14.0901 715.874 781.653> 361 14<518 531.474>
LayerCount: 2
Fore
SplineSet
109 728 m 2xa0
 109 784 l 1
 207 784 l 2
 305 784 305 784 305 749 c 0xa0
 305 714 305 714 333 714 c 0
 361 714 361 714 361 707 c 0xc0
 361 700 361 700 368 700 c 0
 375 700 375 700 375 609 c 0
 375 518 375 518 368 518 c 0
 361 518 361 518 361 525 c 0
 361 532 361 532 326 532 c 0
 291 532 291 532 291 525 c 0
 291 518 291 518 284 518 c 0
 277 518 277 518 277 511 c 0
 277 504 277 504 270 504 c 0
 263 504 263 504 263 490 c 0
 263 476 263 476 270 476 c 0
 277 476 277 476 277 455 c 0
 277 434 277 434 284 434 c 0
 291 434 291 434 291 427 c 0
 291 420 291 420 298 420 c 0
 305 420 305 420 305 406 c 0xb0
 305 392 305 392 312 392 c 0
 319 392 319 392 319 378 c 0
 319 364 319 364 326 364 c 0
 333 364 333 364 333 357 c 0
 333 350 333 350 340 350 c 0
 347 350 347 350 347 329 c 0
 347 308 347 308 354 308 c 0
 361 308 361 308 361 245 c 0xc0
 361 182 361 182 354 182 c 0
 347 182 347 182 347 168 c 0
 347 154 347 154 340 154 c 0
 333 154 333 154 333 140 c 0
 333 126 333 126 326 126 c 0
 319 126 319 126 319 119 c 0
 319 112 319 112 312 112 c 0
 305 112 305 112 305 21 c 2
 305 -70 l 1
 207 -70 l 2
 109 -70 109 -70 109 -28 c 0xa0
 109 14 109 14 95 14 c 0
 81 14 81 14 81 21 c 0
 81 28 81 28 60 28 c 0
 39 28 39 28 39 35 c 0
 39 42 39 42 25 42 c 0
 11 42 11 42 11 133 c 0
 11 224 11 224 60 224 c 0
 109 224 109 224 109 231 c 0
 109 238 109 238 116 238 c 0
 123 238 123 238 123 280 c 0
 123 322 123 322 116 322 c 0
 109 322 109 322 109 329 c 0xc0
 109 336 109 336 102 336 c 0
 95 336 95 336 95 350 c 0
 95 364 95 364 88 364 c 0
 81 364 81 364 81 371 c 0
 81 378 81 378 74 378 c 0
 67 378 67 378 67 392 c 0
 67 406 67 406 60 406 c 0
 53 406 53 406 53 427 c 0
 53 448 53 448 46 448 c 0
 39 448 39 448 39 511 c 0
 39 574 39 574 46 574 c 0
 53 574 53 574 53 588 c 0
 53 602 53 602 60 602 c 0
 67 602 67 602 67 616 c 0
 67 630 67 630 74 630 c 0
 81 630 81 630 81 637 c 0
 81 644 81 644 88 644 c 0
 95 644 95 644 95 658 c 0
 95 672 95 672 102 672 c 0
 109 672 109 672 109 728 c 2xa0
EndSplineSet
EndChar

StartChar: percent
Encoding: 37 37 50
Width: 860
Flags: W
HStem: 0 112<612.034 723.88> 14 112<290 303.831 598 659.385 662.615 723.831> 14 42<262 276.059> 168 42<836.006 850> 252 112<598.169 659.385 662.615 723.831> 266 112<612.004 723.88> 350 112<136.084 247.966> 364 112<122.733 197.385 200.615 261.959> 602 112<122.733 191.354 192.646 197.385 200.615 261.963> 616 112<136.084 247.916> 616 98<192.646 247.831> 686 14<584.073 598>
VStem: 10 112<476.052 601.948> 24 112<476.068 536.739 541.261 601.932> 178 42<350 363.994> 178 28<714.073 728> 234 126<462.027 489.187 588.813 615.973> 262 56<14.0115 69.9958> 276 98<490.128 587.872> 276 56<35.9691 111.932> 290 56<56.0042 139.996> 304 56<84.0684 182.001> 318 56<126.004 209.932> 332 56<154.068 237.996> 346 56<181.999 279.932> 360 56<224.004 307.996> 374 56<252.068 349.932> 388 56<294.004 377.996> 402 56<322.068 419.932> 416 56<364.004 447.996> 430 56<392.068 489.932> 444 56<434.004 517.996> 458 56<462.068 559.932> 472 56<504.004 587.996> 486 98<140.128 237.872> 486 56<532.068 630.001> 500 126<112.027 139.187 238.813 265.973> 500 56<574.004 657.932> 514 56<602.068 685.996> 528 56<629.999 692.677> 640 42<2.67029e-05 13.9942 364.006 378> 724 112<126.169 187.385 190.615 251.831> 738 112<126.12 251.88>
LayerCount: 2
Fore
SplineSet
178 721 m 0x108900000080
 178 728 178 728 192 728 c 0x104900000080
 206 728 206 728 206 721 c 0
 206 714 206 714 234 714 c 0x108980000080
 262 714 262 714 262 707 c 0x108040000080
 262 700 262 700 276 700 c 0x101010000080
 290 700 290 700 290 693 c 0x101008000080
 290 686 290 686 297 686 c 0
 304 686 304 686 304 679 c 0x101004000080
 304 672 304 672 318 672 c 0x101002000080
 332 672 332 672 332 658 c 0x101001000080
 332 644 332 644 339 644 c 0
 346 644 346 644 346 637 c 0x101000800080
 346 630 346 630 353 630 c 0
 360 630 360 630 360 616 c 0x102000400080
 360 602 360 602 367 602 c 0
 374 602 374 602 374 539 c 0
 374 476 374 476 367 476 c 0x118020000080
 360 476 360 476 360 462 c 0x120000400080
 360 448 360 448 353 448 c 0
 346 448 346 448 346 441 c 0x120000800080
 346 434 346 434 339 434 c 0
 332 434 332 434 332 420 c 0x120001000080
 332 406 332 406 325 406 c 0
 318 406 318 406 318 399 c 0x120002000080
 318 392 318 392 304 392 c 0x120004000080
 290 392 290 392 290 385 c 0x120008000080
 290 378 290 378 276 378 c 0x140010000080
 262 378 262 378 262 371 c 0
 262 364 262 364 241 364 c 0x110040000080
 220 364 220 364 220 357 c 0
 220 350 220 350 199 350 c 0x120240000080
 178 350 178 350 178 357 c 0
 178 364 178 364 150 364 c 0x110240000080
 122 364 122 364 122 371 c 0
 122 378 122 378 108 378 c 0x140a40000080
 94 378 94 378 94 385 c 0
 94 392 94 392 87 392 c 0
 80 392 80 392 80 399 c 0
 80 406 80 406 73 406 c 0
 66 406 66 406 66 413 c 0
 66 420 66 420 59 420 c 0
 52 420 52 420 52 427 c 0
 52 434 52 434 45 434 c 0
 38 434 38 434 38 448 c 0
 38 462 38 462 31 462 c 0
 24 462 24 462 24 483 c 0x120400000080
 24 504 24 504 17 504 c 0
 10 504 10 504 10 539 c 0x120800000080
 10 574 10 574 17 574 c 0
 24 574 24 574 24 595 c 0
 24 616 24 616 31 616 c 0x122400000080
 38 616 38 616 38 630 c 0
 38 644 38 644 45 644 c 0
 52 644 52 644 52 651 c 0
 52 658 52 658 59 658 c 0
 66 658 66 658 66 665 c 0
 66 672 66 672 73 672 c 0
 80 672 80 672 80 679 c 0
 80 686 80 686 87 686 c 0
 94 686 94 686 94 693 c 0
 94 700 94 700 108 700 c 0x101400000080
 122 700 122 700 122 707 c 0
 122 714 122 714 150 714 c 0
 178 714 178 714 178 721 c 0x108900000080
234 609 m 0x118080000080
 234 616 234 616 199 616 c 0x104080000080
 164 616 164 616 164 609 c 0
 164 602 164 602 150 602 c 0
 136 602 136 602 136 595 c 0x108480000080
 136 588 136 588 129 588 c 0
 122 588 122 588 122 539 c 0x108800000080
 122 490 122 490 129 490 c 0
 136 490 136 490 136 483 c 0
 136 476 136 476 150 476 c 0x118400000080
 164 476 164 476 164 469 c 0
 164 462 164 462 199 462 c 0
 234 462 234 462 234 469 c 0x120480000080
 234 476 234 476 241 476 c 0
 248 476 248 476 248 483 c 0
 248 490 248 490 255 490 c 0
 262 490 262 490 262 504 c 0x110040000080
 262 518 262 518 269 518 c 0
 276 518 276 518 276 539 c 0x110020000080
 276 560 276 560 269 560 c 0
 262 560 262 560 262 574 c 0x110040000080
 262 588 262 588 255 588 c 0
 248 588 248 588 248 595 c 0
 248 602 248 602 241 602 c 0
 234 602 234 602 234 609 c 0x118080000080
528 686 m 0x101000000180
 528 700 528 700 563 700 c 0
 598 700 598 700 598 693 c 0
 598 686 598 686 591 686 c 0
 584 686 584 686 584 672 c 0x101000000180
 584 658 584 658 577 658 c 0
 570 658 570 658 570 644 c 0x101000000280
 570 630 570 630 563 630 c 0
 556 630 556 630 556 609 c 0x101000000480
 556 588 556 588 549 588 c 0
 542 588 542 588 542 574 c 0x101000001080
 542 560 542 560 535 560 c 0
 528 560 528 560 528 539 c 0x101000004080
 528 518 528 518 521 518 c 0
 514 518 514 518 514 504 c 0x101000008080
 514 490 514 490 507 490 c 0
 500 490 500 490 500 469 c 0x101000010080
 500 448 500 448 493 448 c 0
 486 448 486 448 486 434 c 0x101000020080
 486 420 486 420 479 420 c 0
 472 420 472 420 472 399 c 0
 472 378 472 378 465 378 c 0x141000040080
 458 378 458 378 458 364 c 0x110000080080
 458 350 458 350 451 350 c 0
 444 350 444 350 444 329 c 0x120000100080
 444 308 444 308 437 308 c 0
 430 308 430 308 430 294 c 0x120000200080
 430 280 430 280 423 280 c 0
 416 280 416 280 416 259 c 0x120000400080
 416 238 416 238 409 238 c 0
 402 238 402 238 402 224 c 0x120000800080
 402 210 402 210 395 210 c 0
 388 210 388 210 388 196 c 0x120001000080
 388 182 388 182 381 182 c 0
 374 182 374 182 374 161 c 0x120002000080
 374 140 374 140 367 140 c 0
 360 140 360 140 360 126 c 0x520004000080
 360 112 360 112 353 112 c 0
 346 112 346 112 346 91 c 0x900008000080
 346 70 346 70 339 70 c 0
 332 70 332 70 332 56 c 0x300010000080
 332 42 332 42 325 42 c 0
 318 42 318 42 318 28 c 0x300040000080
 318 14 318 14 290 14 c 0x500008000080
 262 14 262 14 262 35 c 0x500040000080
 262 56 262 56 269 56 c 0
 276 56 276 56 276 70 c 0x300010000080
 276 84 276 84 283 84 c 0
 290 84 290 84 290 105 c 0x300008000080
 290 126 290 126 297 126 c 0
 304 126 304 126 304 140 c 0x500004000080
 304 154 304 154 311 154 c 0
 318 154 318 154 318 168 c 0x500002000080
 318 182 318 182 325 182 c 0
 332 182 332 182 332 203 c 0x500001000080
 332 224 332 224 339 224 c 0
 346 224 346 224 346 238 c 0x500000800080
 346 252 346 252 353 252 c 0
 360 252 360 252 360 273 c 0x580000400080
 360 294 360 294 367 294 c 0
 374 294 374 294 374 308 c 0x580000200080
 374 322 374 322 381 322 c 0
 388 322 388 322 388 343 c 0
 388 364 388 364 395 364 c 0x110000100080
 402 364 402 364 402 378 c 0x140000080080
 402 392 402 392 409 392 c 0
 416 392 416 392 416 413 c 0x140000040080
 416 434 416 434 423 434 c 0
 430 434 430 434 430 448 c 0x140000020080
 430 462 430 462 437 462 c 0
 444 462 444 462 444 483 c 0x120000010080
 444 504 444 504 451 504 c 0
 458 504 458 504 458 518 c 0x120000008080
 458 532 458 532 465 532 c 0
 472 532 472 532 472 553 c 0x120000004080
 472 574 472 574 479 574 c 0
 486 574 486 574 486 588 c 0
 486 602 486 602 493 602 c 0x128000001080
 500 602 500 602 500 616 c 0x102000000480
 500 630 500 630 507 630 c 0
 514 630 514 630 514 651 c 0x102000000280
 514 672 514 672 521 672 c 0
 528 672 528 672 528 686 c 0x101000000180
640 371 m 0
 640 378 640 378 661 378 c 0x140000000180
 682 378 682 378 682 371 c 0
 682 364 682 364 710 364 c 0x180000000180
 738 364 738 364 738 357 c 0
 738 350 738 350 752 350 c 0x1200000001a0
 766 350 766 350 766 343 c 0
 766 336 766 336 773 336 c 0
 780 336 780 336 780 329 c 0
 780 322 780 322 787 322 c 0
 794 322 794 322 794 315 c 0
 794 308 794 308 801 308 c 0
 808 308 808 308 808 301 c 0
 808 294 808 294 815 294 c 0
 822 294 822 294 822 280 c 0
 822 266 822 266 829 266 c 0
 836 266 836 266 836 238 c 0x1400000000c0
 836 210 836 210 843 210 c 0
 850 210 850 210 850 189 c 0x1400000000a0
 850 168 850 168 843 168 c 0
 836 168 836 168 836 140 c 0
 836 112 836 112 829 112 c 0x9400000000c0
 822 112 822 112 822 98 c 0
 822 84 822 84 815 84 c 0
 808 84 808 84 808 77 c 0
 808 70 808 70 801 70 c 0
 794 70 794 70 794 63 c 0
 794 56 794 56 787 56 c 0x3000000000c0
 780 56 780 56 780 49 c 0
 780 42 780 42 773 42 c 0
 766 42 766 42 766 35 c 0
 766 28 766 28 752 28 c 0
 738 28 738 28 738 21 c 0
 738 14 738 14 710 14 c 0x5000000000a0
 682 14 682 14 682 7 c 0
 682 0 682 0 661 0 c 0x9000000000a0
 640 0 640 0 640 7 c 0
 640 14 640 14 619 14 c 0
 598 14 598 14 598 21 c 0
 598 28 598 28 584 28 c 0x5000000001a0
 570 28 570 28 570 35 c 0x500000000280
 570 42 570 42 556 42 c 0x500000000480
 542 42 542 42 542 49 c 0x500000001080
 542 56 542 56 535 56 c 0
 528 56 528 56 528 63 c 0x300000000180
 528 70 528 70 521 70 c 0
 514 70 514 70 514 84 c 0x300000000280
 514 98 514 98 507 98 c 0
 500 98 500 98 500 112 c 0x900000000480
 500 126 500 126 493 126 c 0
 486 126 486 126 486 189 c 0
 486 252 486 252 493 252 c 0x580000002080
 500 252 500 252 500 266 c 0x140000000480
 500 280 500 280 507 280 c 0
 514 280 514 280 514 294 c 0x140000000280
 514 308 514 308 521 308 c 0
 528 308 528 308 528 315 c 0x140000000180
 528 322 528 322 535 322 c 0
 542 322 542 322 542 329 c 0x140000001080
 542 336 542 336 556 336 c 0x140000000480
 570 336 570 336 570 343 c 0
 570 350 570 350 577 350 c 0x120000000280
 584 350 584 350 584 357 c 0
 584 364 584 364 612 364 c 0x180000000180
 640 364 640 364 640 371 c 0
696 259 m 0
 696 266 696 266 661 266 c 0
 626 266 626 266 626 259 c 0x1400000008c0
 626 252 626 252 619 252 c 0
 612 252 612 252 612 245 c 0
 612 238 612 238 605 238 c 0
 598 238 598 238 598 231 c 0
 598 224 598 224 591 224 c 0
 584 224 584 224 584 189 c 0
 584 154 584 154 591 154 c 0
 598 154 598 154 598 147 c 0
 598 140 598 140 605 140 c 0
 612 140 612 140 612 133 c 0
 612 126 612 126 619 126 c 0x580000002080
 626 126 626 126 626 119 c 0
 626 112 626 112 661 112 c 0x900000000880
 696 112 696 112 696 119 c 0
 696 126 696 126 710 126 c 0
 724 126 724 126 724 140 c 0x5000000008c0
 724 154 724 154 731 154 c 0
 738 154 738 154 738 189 c 0x5000000000a0
 738 224 738 224 731 224 c 0
 724 224 724 224 724 238 c 0
 724 252 724 252 710 252 c 0x5800000000c0
 696 252 696 252 696 259 c 0
EndSplineSet
EndChar

StartChar: asciicircum
Encoding: 94 94 51
Width: 598
Flags: W
HStem: 378 42<54.0003 68.0587 515.941 530.059>
VStem: 96 154<448.004 531.996> 110 154<476.004 559.996> 320 154<490.004 573.932> 334 154<448.068 531.996> 348 154<420.004 503.996> 362 154<392.004 475.932>
LayerCount: 2
Fore
SplineSet
194 707 m 0xa0
 194 714 194 714 299 714 c 0
 404 714 404 714 404 700 c 0
 404 686 404 686 411 686 c 0
 418 686 418 686 418 665 c 0
 418 644 418 644 425 644 c 0
 432 644 432 644 432 630 c 0
 432 616 432 616 439 616 c 0
 446 616 446 616 446 602 c 0
 446 588 446 588 453 588 c 0
 460 588 460 588 460 567 c 0
 460 546 460 546 467 546 c 0
 474 546 474 546 474 532 c 0xb0
 474 518 474 518 481 518 c 0
 488 518 488 518 488 504 c 0x88
 488 490 488 490 495 490 c 0
 502 490 502 490 502 469 c 0x84
 502 448 502 448 509 448 c 0
 516 448 516 448 516 434 c 0
 516 420 516 420 523 420 c 0
 530 420 530 420 530 406 c 0
 530 392 530 392 537 392 c 0
 544 392 544 392 544 385 c 0
 544 378 544 378 460 378 c 0
 376 378 376 378 376 392 c 0
 376 406 376 406 369 406 c 0
 362 406 362 406 362 420 c 0x82
 362 434 362 434 355 434 c 0
 348 434 348 434 348 455 c 0x84
 348 476 348 476 341 476 c 0
 334 476 334 476 334 490 c 0x88
 334 504 334 504 327 504 c 0
 320 504 320 504 320 518 c 0
 320 532 320 532 313 532 c 0
 306 532 306 532 306 553 c 0
 306 574 306 574 299 574 c 0
 292 574 292 574 292 567 c 0
 292 560 292 560 285 560 c 0
 278 560 278 560 278 546 c 0
 278 532 278 532 271 532 c 0
 264 532 264 532 264 511 c 0xb0
 264 490 264 490 257 490 c 0
 250 490 250 490 250 476 c 0
 250 462 250 462 243 462 c 0
 236 462 236 462 236 448 c 0
 236 434 236 434 229 434 c 0
 222 434 222 434 222 413 c 0
 222 392 222 392 215 392 c 0
 208 392 208 392 208 385 c 0
 208 378 208 378 131 378 c 0
 54 378 54 378 54 399 c 0
 54 420 54 420 61 420 c 0
 68 420 68 420 68 434 c 0
 68 448 68 448 75 448 c 0
 82 448 82 448 82 462 c 0
 82 476 82 476 89 476 c 0
 96 476 96 476 96 497 c 0xc0
 96 518 96 518 103 518 c 0
 110 518 110 518 110 532 c 0
 110 546 110 546 117 546 c 0
 124 546 124 546 124 560 c 0
 124 574 124 574 131 574 c 0
 138 574 138 574 138 588 c 0
 138 602 138 602 145 602 c 0
 152 602 152 602 152 623 c 0
 152 644 152 644 159 644 c 0
 166 644 166 644 166 658 c 0
 166 672 166 672 173 672 c 0
 180 672 180 672 180 686 c 0
 180 700 180 700 187 700 c 0
 194 700 194 700 194 707 c 0xa0
EndSplineSet
EndChar

StartChar: ampersand
Encoding: 38 38 52
Width: 566
Flags: W
HStem: 0 168<192.128 261.897> 28 308<332.041 460.801> 518 42<444 458>
VStem: 10 168<181.999 265.676> 52 182<476.336 545.611> 234 42<714.006 728>
LayerCount: 2
Fore
SplineSet
234 721 m 0x74
 234 728 234 728 255 728 c 0
 276 728 276 728 276 721 c 0x74
 276 714 276 714 304 714 c 0
 332 714 332 714 332 707 c 0
 332 700 332 700 346 700 c 0
 360 700 360 700 360 693 c 0
 360 686 360 686 367 686 c 0
 374 686 374 686 374 679 c 0
 374 672 374 672 381 672 c 0
 388 672 388 672 388 665 c 0
 388 658 388 658 395 658 c 0
 402 658 402 658 402 651 c 0
 402 644 402 644 409 644 c 0
 416 644 416 644 416 637 c 0
 416 630 416 630 423 630 c 0
 430 630 430 630 430 616 c 0
 430 602 430 602 437 602 c 0
 444 602 444 602 444 581 c 0
 444 560 444 560 451 560 c 0
 458 560 458 560 458 539 c 0
 458 518 458 518 451 518 c 0
 444 518 444 518 444 511 c 0
 444 504 444 504 374 504 c 0
 304 504 304 504 304 511 c 0
 304 518 304 518 297 518 c 0
 290 518 290 518 290 532 c 0
 290 546 290 546 262 546 c 0
 234 546 234 546 234 518 c 0x68
 234 490 234 490 241 490 c 0
 248 490 248 490 248 483 c 0
 248 476 248 476 255 476 c 0
 262 476 262 476 262 469 c 0
 262 462 262 462 269 462 c 0
 276 462 276 462 276 448 c 0
 276 434 276 434 283 434 c 0
 290 434 290 434 290 427 c 0
 290 420 290 420 297 420 c 0
 304 420 304 420 304 406 c 0
 304 392 304 392 311 392 c 0
 318 392 318 392 318 385 c 0
 318 378 318 378 325 378 c 0
 332 378 332 378 332 364 c 0
 332 350 332 350 339 350 c 0
 346 350 346 350 346 343 c 0
 346 336 346 336 353 336 c 0x64
 360 336 360 336 360 329 c 0
 360 322 360 322 423 322 c 0
 486 322 486 322 486 315 c 0
 486 308 486 308 493 308 c 0
 500 308 500 308 500 273 c 0
 500 238 500 238 493 238 c 0
 486 238 486 238 486 217 c 0
 486 196 486 196 479 196 c 0
 472 196 472 196 472 168 c 0xa4
 472 140 472 140 479 140 c 0
 486 140 486 140 486 133 c 0
 486 126 486 126 493 126 c 0
 500 126 500 126 500 112 c 0
 500 98 500 98 507 98 c 0
 514 98 514 98 514 91 c 0
 514 84 514 84 521 84 c 0
 528 84 528 84 528 70 c 0
 528 56 528 56 535 56 c 0
 542 56 542 56 542 49 c 0
 542 42 542 42 549 42 c 0
 556 42 556 42 556 28 c 0
 556 14 556 14 465 14 c 0
 374 14 374 14 374 21 c 0
 374 28 374 28 353 28 c 0x64
 332 28 332 28 332 21 c 0
 332 14 332 14 318 14 c 0
 304 14 304 14 304 7 c 0
 304 0 304 0 241 0 c 0
 178 0 178 0 178 7 c 0xb4
 178 14 178 14 157 14 c 0
 136 14 136 14 136 21 c 0
 136 28 136 28 129 28 c 0
 122 28 122 28 122 35 c 0
 122 42 122 42 108 42 c 0
 94 42 94 42 94 49 c 0
 94 56 94 56 87 56 c 0
 80 56 80 56 80 63 c 0
 80 70 80 70 73 70 c 0
 66 70 66 70 66 77 c 0
 66 84 66 84 59 84 c 0
 52 84 52 84 52 98 c 0x68
 52 112 52 112 45 112 c 0
 38 112 38 112 38 126 c 0
 38 140 38 140 31 140 c 0
 24 140 24 140 24 161 c 0
 24 182 24 182 17 182 c 0
 10 182 10 182 10 217 c 0x70
 10 252 10 252 17 252 c 0
 24 252 24 252 24 280 c 0
 24 308 24 308 31 308 c 0
 38 308 38 308 38 322 c 0
 38 336 38 336 45 336 c 0
 52 336 52 336 52 343 c 0
 52 350 52 350 59 350 c 0
 66 350 66 350 66 357 c 0
 66 364 66 364 73 364 c 0
 80 364 80 364 80 371 c 0
 80 378 80 378 87 378 c 0
 94 378 94 378 94 385 c 0
 94 392 94 392 101 392 c 0
 108 392 108 392 108 399 c 0
 108 406 108 406 101 406 c 0
 94 406 94 406 94 413 c 0
 94 420 94 420 87 420 c 0
 80 420 80 420 80 434 c 0
 80 448 80 448 73 448 c 0
 66 448 66 448 66 469 c 0
 66 490 66 490 59 490 c 0
 52 490 52 490 52 525 c 0x68
 52 560 52 560 59 560 c 0
 66 560 66 560 66 581 c 0
 66 602 66 602 73 602 c 0
 80 602 80 602 80 616 c 0
 80 630 80 630 87 630 c 0
 94 630 94 630 94 637 c 0
 94 644 94 644 101 644 c 0
 108 644 108 644 108 651 c 0
 108 658 108 658 115 658 c 0
 122 658 122 658 122 665 c 0
 122 672 122 672 129 672 c 0
 136 672 136 672 136 679 c 0
 136 686 136 686 143 686 c 0
 150 686 150 686 150 693 c 0
 150 700 150 700 164 700 c 0
 178 700 178 700 178 707 c 0
 178 714 178 714 206 714 c 0
 234 714 234 714 234 721 c 0x74
206 259 m 0
 206 266 206 266 199 266 c 0
 192 266 192 266 192 259 c 0
 192 252 192 252 185 252 c 0
 178 252 178 252 178 224 c 0
 178 196 178 196 185 196 c 0
 192 196 192 196 192 189 c 0
 192 182 192 182 199 182 c 0
 206 182 206 182 206 175 c 0
 206 168 206 168 227 168 c 0xb4
 248 168 248 168 248 175 c 0
 248 182 248 182 255 182 c 0
 262 182 262 182 262 189 c 0
 262 196 262 196 255 196 c 0
 248 196 248 196 248 203 c 0
 248 210 248 210 241 210 c 0
 234 210 234 210 234 224 c 0
 234 238 234 238 227 238 c 0
 220 238 220 238 220 245 c 0
 220 252 220 252 213 252 c 0
 206 252 206 252 206 259 c 0
EndSplineSet
EndChar

StartChar: asterisk
Encoding: 42 42 53
Width: 416
Flags: W
HStem: 420 14<82.0001 95.9267> 532 84<82.6719 123.964 292 334.001> 546 70<292.328 347.996> 560 28<340.677 362> 574 56<54.0137 81.9316>
VStem: 54 42<616.006 630> 110 14<406 419.786> 208 28<700 714> 236 70<406.646 447.964> 278 14<392 405.927 616.214 630>
LayerCount: 2
Fore
SplineSet
208 707 m 0x8f
 208 714 208 714 222 714 c 0
 236 714 236 714 236 686 c 0
 236 658 236 658 243 658 c 0
 250 658 250 658 250 637 c 0
 250 616 250 616 264 616 c 0xa680
 278 616 278 616 278 623 c 0
 278 630 278 630 285 630 c 0x8e40
 292 630 292 630 292 623 c 0
 292 616 292 616 313 616 c 0xc640
 334 616 334 616 334 609 c 0
 334 602 334 602 341 602 c 0
 348 602 348 602 348 595 c 0
 348 588 348 588 355 588 c 0x9640
 362 588 362 588 362 574 c 0x8e40
 362 560 362 560 348 560 c 0x9640
 334 560 334 560 334 553 c 0
 334 546 334 546 327 546 c 0xa640
 320 546 320 546 320 539 c 0
 320 532 320 532 306 532 c 0xc680
 292 532 292 532 292 511 c 0xc640
 292 490 292 490 299 490 c 0
 306 490 306 490 306 455 c 0xc680
 306 420 306 420 299 420 c 0
 292 420 292 420 292 406 c 0
 292 392 292 392 285 392 c 0
 278 392 278 392 278 399 c 0xc640
 278 406 278 406 264 406 c 0
 250 406 250 406 250 413 c 0
 250 420 250 420 243 420 c 0
 236 420 236 420 236 427 c 0xc680
 236 434 236 434 229 434 c 0
 222 434 222 434 222 441 c 0
 222 448 222 448 208 448 c 0
 194 448 194 448 194 441 c 0
 194 434 194 434 180 434 c 0
 166 434 166 434 166 427 c 0
 166 420 166 420 145 420 c 0
 124 420 124 420 124 413 c 0
 124 406 124 406 117 406 c 0
 110 406 110 406 110 413 c 0
 110 420 110 420 96 420 c 0
 82 420 82 420 82 427 c 0
 82 434 82 434 89 434 c 0
 96 434 96 434 96 448 c 0
 96 462 96 462 103 462 c 0
 110 462 110 462 110 476 c 0
 110 490 110 490 117 490 c 0
 124 490 124 490 124 504 c 0
 124 518 124 518 117 518 c 0
 110 518 110 518 110 525 c 0
 110 532 110 532 103 532 c 0xc7
 96 532 96 532 96 539 c 0
 96 546 96 546 89 546 c 0xa7
 82 546 82 546 82 553 c 0
 82 560 82 560 75 560 c 0x97
 68 560 68 560 68 567 c 0
 68 574 68 574 61 574 c 0
 54 574 54 574 54 602 c 0
 54 630 54 630 75 630 c 0x8f
 96 630 96 630 96 623 c 0
 96 616 96 616 124 616 c 0xa7
 152 616 152 616 152 630 c 0
 152 644 152 644 159 644 c 0
 166 644 166 644 166 658 c 0
 166 672 166 672 173 672 c 0
 180 672 180 672 180 686 c 0
 180 700 180 700 194 700 c 0
 208 700 208 700 208 707 c 0x8f
EndSplineSet
EndChar

StartChar: parenleft
Encoding: 40 40 54
Width: 297
Flags: W
HStem: 672 28<259.019 273>
VStem: 21 168<98.3817 489.917> 35 168<56.0684 288.186 307.784 531.992> 49 168<14.0684 153.234 448.839 573.328> 63 154<490.649 602.001> 77 154<-42.0014 55.3281 532.008 630.001> 91 154<-70.0004 13.3281 574.068 657.932> 105 154<-83.9958 -14.0684 601.999 685.354> 133 140<-104.677 -69.9986 658.672 699.505>
LayerCount: 2
Fore
SplineSet
133 693 m 0x8080
 133 700 133 700 203 700 c 0xa0
 273 700 273 700 273 686 c 0x8080
 273 672 273 672 266 672 c 0
 259 672 259 672 259 651 c 0x81
 259 630 259 630 252 630 c 0
 245 630 245 630 245 616 c 0x82
 245 602 245 602 238 602 c 0
 231 602 231 602 231 581 c 0x84
 231 560 231 560 224 560 c 0
 217 560 217 560 217 532 c 0x90
 217 504 217 504 210 504 c 0
 203 504 203 504 203 476 c 0xa0
 203 448 203 448 196 448 c 0
 189 448 189 448 189 301 c 0xc0
 189 154 189 154 196 154 c 0
 203 154 203 154 203 119 c 0xa0
 203 84 203 84 210 84 c 0
 217 84 217 84 217 63 c 0x90
 217 42 217 42 224 42 c 0
 231 42 231 42 231 21 c 0x84
 231 0 231 0 238 0 c 0
 245 0 245 0 245 -21 c 0x82
 245 -42 245 -42 252 -42 c 0
 259 -42 259 -42 259 -56 c 0x81
 259 -70 259 -70 266 -70 c 0
 273 -70 273 -70 273 -84 c 0
 273 -98 273 -98 280 -98 c 0
 287 -98 287 -98 287 -105 c 0
 287 -112 287 -112 210 -112 c 0
 133 -112 133 -112 133 -98 c 0x8080
 133 -84 133 -84 126 -84 c 0
 119 -84 119 -84 119 -77 c 0
 119 -70 119 -70 112 -70 c 0
 105 -70 105 -70 105 -56 c 0x81
 105 -42 105 -42 98 -42 c 0
 91 -42 91 -42 91 -28 c 0x82
 91 -14 91 -14 84 -14 c 0
 77 -14 77 -14 77 0 c 0x84
 77 14 77 14 70 14 c 0
 63 14 63 14 63 35 c 0x88
 63 56 63 56 56 56 c 0
 49 56 49 56 49 77 c 0x90
 49 98 49 98 42 98 c 0
 35 98 35 98 35 133 c 0xa0
 35 168 35 168 28 168 c 0
 21 168 21 168 21 294 c 0xc0
 21 420 21 420 28 420 c 0
 35 420 35 420 35 455 c 0xa0
 35 490 35 490 42 490 c 0
 49 490 49 490 49 511 c 0x90
 49 532 49 532 56 532 c 0
 63 532 63 532 63 553 c 0x88
 63 574 63 574 70 574 c 0
 77 574 77 574 77 588 c 0x84
 77 602 77 602 84 602 c 0
 91 602 91 602 91 616 c 0x82
 91 630 91 630 98 630 c 0
 105 630 105 630 105 644 c 0x81
 105 658 105 658 112 658 c 0
 119 658 119 658 119 672 c 0
 119 686 119 686 126 686 c 0
 133 686 133 686 133 693 c 0x8080
EndSplineSet
EndChar

StartChar: parenright
Encoding: 41 41 55
Width: 296
Flags: W
VStem: 24 140<-104.677 -56.0042 644.004 692.677> 38 140<-97.9958 -28.6719 629.999 685.996> 52 154<-55.9958 27.9316 560.068 643.996> 52 140<-69.9958 0.000640869> 66 154<-27.9316 55.3281 532.672 630> 80 154<-0.000640869 111.421 476.579 587.932> 94 154<42.0042 181.052 406.948 545.996> 108 168<112.418 475.582>
LayerCount: 2
Fore
SplineSet
10 693 m 0x80
 10 700 10 700 87 700 c 0
 164 700 164 700 164 686 c 0x80
 164 672 164 672 171 672 c 0
 178 672 178 672 178 658 c 0x40
 178 644 178 644 185 644 c 0
 192 644 192 644 192 637 c 0x10
 192 630 192 630 199 630 c 0
 206 630 206 630 206 616 c 0x20
 206 602 206 602 213 602 c 0
 220 602 220 602 220 581 c 0x08
 220 560 220 560 227 560 c 0
 234 560 234 560 234 546 c 0x04
 234 532 234 532 241 532 c 0
 248 532 248 532 248 504 c 0x02
 248 476 248 476 255 476 c 0
 262 476 262 476 262 441 c 0
 262 406 262 406 269 406 c 0
 276 406 276 406 276 294 c 0x01
 276 182 276 182 269 182 c 0
 262 182 262 182 262 147 c 0
 262 112 262 112 255 112 c 0
 248 112 248 112 248 84 c 0x02
 248 56 248 56 241 56 c 0
 234 56 234 56 234 42 c 0x04
 234 28 234 28 227 28 c 0
 220 28 220 28 220 14 c 0x08
 220 0 220 0 213 0 c 0
 206 0 206 0 206 -14 c 0x20
 206 -28 206 -28 199 -28 c 0
 192 -28 192 -28 192 -42 c 0x10
 192 -56 192 -56 185 -56 c 0
 178 -56 178 -56 178 -70 c 0x40
 178 -84 178 -84 171 -84 c 0
 164 -84 164 -84 164 -98 c 0
 164 -112 164 -112 87 -112 c 0
 10 -112 10 -112 10 -105 c 0
 10 -98 10 -98 17 -98 c 0
 24 -98 24 -98 24 -84 c 0x80
 24 -70 24 -70 31 -70 c 0
 38 -70 38 -70 38 -56 c 0x40
 38 -42 38 -42 45 -42 c 0
 52 -42 52 -42 52 -21 c 0x20
 52 0 52 0 59 0 c 0
 66 0 66 0 66 21 c 0x08
 66 42 66 42 73 42 c 0
 80 42 80 42 80 63 c 0x04
 80 84 80 84 87 84 c 0
 94 84 94 84 94 119 c 0x02
 94 154 94 154 101 154 c 0
 108 154 108 154 108 294 c 0x01
 108 434 108 434 101 434 c 0
 94 434 94 434 94 469 c 0x02
 94 504 94 504 87 504 c 0
 80 504 80 504 80 525 c 0x04
 80 546 80 546 73 546 c 0
 66 546 66 546 66 567 c 0x08
 66 588 66 588 59 588 c 0
 52 588 52 588 52 609 c 0x20
 52 630 52 630 45 630 c 0
 38 630 38 630 38 644 c 0x40
 38 658 38 658 31 658 c 0
 24 658 24 658 24 672 c 0
 24 686 24 686 17 686 c 0
 10 686 10 686 10 693 c 0x80
EndSplineSet
EndChar

StartChar: underscore
Encoding: 95 95 56
Width: 530
Flags: W
HStem: -154 112<6.72098 524> -140 98<6.09012 275.938>
LayerCount: 2
Fore
SplineSet
6 -91 m 2x40
 6 -42 l 1x40
 265 -42 l 1
 524 -42 l 1
 524 -98 l 1
 524 -154 l 1
 272 -154 l 2x80
 20 -154 20 -154 20 -147 c 0
 20 -140 20 -140 13 -140 c 0
 6 -140 6 -140 6 -91 c 2x40
EndSplineSet
EndChar

StartChar: plus
Encoding: 43 43 57
Width: 538
Flags: W
HStem: 280 168<332.417 526.578> 294 140<10 192 333.246 528>
VStem: 192 154<99.4219 293.583 434.417 628.578> 192 140<98 292.754 435.246 630>
LayerCount: 2
Fore
SplineSet
192 532 m 1x60
 192 630 l 1
 262 630 l 1
 332 630 l 1
 332 539 l 2
 332 448 332 448 339 448 c 0x90
 346 448 346 448 346 441 c 0
 346 434 346 434 437 434 c 2
 528 434 l 1
 528 364 l 1
 528 294 l 1
 437 294 l 2
 346 294 346 294 346 287 c 0x60
 346 280 346 280 339 280 c 0
 332 280 332 280 332 189 c 2
 332 98 l 1
 262 98 l 1
 192 98 l 1x90
 192 196 l 1xa0
 192 294 l 1
 101 294 l 1
 10 294 l 1
 10 364 l 1
 10 434 l 1
 101 434 l 1
 192 434 l 1x50
 192 532 l 1x60
EndSplineSet
EndChar

StartChar: hyphen
Encoding: 45 45 58
Width: 346
Flags: W
HStem: 252 140<54 291.125> 252 126<55.75 291.817>
VStem: 54 224<252.984 391.474>
LayerCount: 2
Fore
SplineSet
54 322 m 1xa0
 54 392 l 1
 166 392 l 2xa0
 278 392 278 392 278 385 c 0
 278 378 278 378 285 378 c 0
 292 378 292 378 292 315 c 2
 292 252 l 1x60
 173 252 l 1
 54 252 l 1
 54 322 l 1xa0
EndSplineSet
EndChar

StartChar: equal
Encoding: 61 61 59
Width: 578
Flags: W
HStem: 224 126<30 548> 392 140<30 548>
LayerCount: 2
Fore
SplineSet
30 462 m 1
 30 532 l 1
 289 532 l 1
 548 532 l 1
 548 462 l 1
 548 392 l 1
 289 392 l 1
 30 392 l 1
 30 462 l 1
30 287 m 1
 30 350 l 1
 289 350 l 1
 548 350 l 1
 548 287 l 1
 548 224 l 1
 289 224 l 1
 30 224 l 1
 30 287 l 1
EndSplineSet
EndChar

StartChar: colon
Encoding: 58 58 60
Width: 334
Flags: W
HStem: 0 238<89.9993 244.001> 14 210<76.0355 164.739 169.261 258.001> 28 182<75.9099 118.005 215.995 271.964> 294 238<104.004 244.001> 308 210<76.0733 164.739 169.261 258.001> 322 182<75.9099 118.005 215.995 271.964>
VStem: 62 210<27.9993 110.062 113.938 116.739 121.261 210.001 321.999 404.062 407.938 410.739 415.261 503.927> 76 182<14.0355 70.0043 168.004 223.964 308.036 364.004 462.004 504.09> 90 154<13.9099 42.0014 196.004 224.09 307.91 336.001> 118 98<0.0901222 14.0901 223.91 237.91 294.09 308.09 517.91 531.91>
LayerCount: 2
Fore
SplineSet
118 525 m 0x0840
 118 532 118 532 167 532 c 0
 216 532 216 532 216 525 c 0x1040
 216 518 216 518 230 518 c 0
 244 518 244 518 244 511 c 0x0880
 244 504 244 504 251 504 c 0
 258 504 258 504 258 497 c 0x05
 258 490 258 490 265 490 c 0
 272 490 272 490 272 476 c 0
 272 462 272 462 279 462 c 0
 286 462 286 462 286 413 c 0
 286 364 286 364 279 364 c 0
 272 364 272 364 272 350 c 0x06
 272 336 272 336 265 336 c 0
 258 336 258 336 258 329 c 0
 258 322 258 322 251 322 c 0x05
 244 322 244 322 244 315 c 0
 244 308 244 308 230 308 c 0x0880
 216 308 216 308 216 301 c 0
 216 294 216 294 167 294 c 0
 118 294 118 294 118 301 c 0x1040
 118 308 118 308 104 308 c 0
 90 308 90 308 90 315 c 0x0880
 90 322 90 322 83 322 c 0
 76 322 76 322 76 329 c 0x05
 76 336 76 336 69 336 c 0
 62 336 62 336 62 350 c 0
 62 364 62 364 55 364 c 0
 48 364 48 364 48 406 c 0
 48 448 48 448 55 448 c 0
 62 448 62 448 62 462 c 0x06
 62 476 62 476 69 476 c 0
 76 476 76 476 76 490 c 0x05
 76 504 76 504 90 504 c 0x0480
 104 504 104 504 104 511 c 0
 104 518 104 518 111 518 c 0
 118 518 118 518 118 525 c 0x0840
118 231 m 0
 118 238 118 238 167 238 c 0
 216 238 216 238 216 231 c 0x8040
 216 224 216 224 230 224 c 0
 244 224 244 224 244 217 c 0x4080
 244 210 244 210 251 210 c 0
 258 210 258 210 258 203 c 0x21
 258 196 258 196 265 196 c 0
 272 196 272 196 272 182 c 0
 272 168 272 168 279 168 c 0
 286 168 286 168 286 119 c 0
 286 70 286 70 279 70 c 0
 272 70 272 70 272 56 c 0x22
 272 42 272 42 265 42 c 0
 258 42 258 42 258 35 c 0
 258 28 258 28 251 28 c 0x21
 244 28 244 28 244 21 c 0
 244 14 244 14 230 14 c 0x4080
 216 14 216 14 216 7 c 0
 216 0 216 0 167 0 c 0
 118 0 118 0 118 7 c 0x8040
 118 14 118 14 104 14 c 0
 90 14 90 14 90 21 c 0x4080
 90 28 90 28 83 28 c 0
 76 28 76 28 76 35 c 0x21
 76 42 76 42 69 42 c 0
 62 42 62 42 62 56 c 0
 62 70 62 70 55 70 c 0
 48 70 48 70 48 112 c 0
 48 154 48 154 55 154 c 0
 62 154 62 154 62 168 c 0x22
 62 182 62 182 69 182 c 0
 76 182 76 182 76 196 c 0
 76 210 76 210 83 210 c 0x21
 90 210 90 210 90 217 c 0
 90 224 90 224 104 224 c 0x4080
 118 224 118 224 118 231 c 0
EndSplineSet
EndChar

StartChar: quotedbl
Encoding: 34 34 61
Width: 512
Flags: W
HStem: 686 14<228.796 242 438.651 452>
VStem: 74 154<505.433 685.354> 88 126<437.605 671.139> 102 98<434.467 573.4> 284 154<505.874 685.354> 312 98<434.495 572.567>
LayerCount: 2
Fore
SplineSet
60 686 m 0xc0
 60 700 60 700 151 700 c 0
 242 700 242 700 242 693 c 0
 242 686 242 686 235 686 c 0
 228 686 228 686 228 637 c 0xc0
 228 588 228 588 221 588 c 0
 214 588 214 588 214 546 c 0xa0
 214 504 214 504 207 504 c 0
 200 504 200 504 200 469 c 0
 200 434 200 434 151 434 c 0
 102 434 102 434 102 455 c 0x90
 102 476 102 476 95 476 c 0
 88 476 88 476 88 525 c 0xa0
 88 574 88 574 81 574 c 0
 74 574 74 574 74 623 c 0
 74 672 74 672 67 672 c 0
 60 672 60 672 60 686 c 0xc0
270 686 m 0
 270 700 270 700 361 700 c 0
 452 700 452 700 452 693 c 0
 452 686 452 686 445 686 c 0
 438 686 438 686 438 644 c 0x88
 438 602 438 602 431 602 c 0
 424 602 424 602 424 553 c 0
 424 504 424 504 417 504 c 0
 410 504 410 504 410 469 c 0
 410 434 410 434 361 434 c 0
 312 434 312 434 312 448 c 0x84
 312 462 312 462 305 462 c 0
 298 462 298 462 298 518 c 0
 298 574 298 574 291 574 c 0
 284 574 284 574 284 623 c 0x88
 284 672 284 672 277 672 c 0
 270 672 270 672 270 686 c 0
EndSplineSet
EndChar

